{
.appVersion = "3149";
.formatVersion = 3;
axes = (
{
name = Weight;
tag = wght;
}
);
classes = (
{
automatic = 1;
code = "A Aacute Abreve Abreveacute Abrevedotbelow Abrevegrave Abrevehookabove Abrevetilde Acaron Acircumflex Acircumflexacute Acircumflexdotbelow Acircumflexgrave Acircumflexhookabove Acircumflextilde Adieresis Adotbelow Agrave Ahookabove Ainvertedbreve Amacron Aogonek Aring Aringacute Atilde AE AEacute B C Cacute Ccaron Ccedilla Cdotaccent D DZcaron Eth Dcaron Dcroat Dzcaron E Eacute Ebreve Ecaron Ecircumflex Ecircumflexacute Ecircumflexdotbelow Ecircumflexgrave Ecircumflexhookabove Ecircumflextilde Edieresis Edotaccent Edotbelow Egrave Ehookabove Einvertedbreve Emacron Eogonek Etilde Schwa F G Gbreve Gcaron Gcircumflex Gcommaaccent Gdotaccent H Hbar I Iacute Ibreve Icaron Icircumflex Idieresis Idotaccent Idotbelow Igrave Ihookabove Imacron Iogonek Itilde J K Kcommaaccent L Lacute Lcaron Lcommaaccent Lslash M N Nacute Ncaron Ncommaaccent Nhookleft Ntilde Eng O Oacute Obreve Ocaron Ocircumflex Ocircumflexacute Ocircumflexdotbelow Ocircumflexgrave Ocircumflexhookabove Ocircumflextilde Odieresis Odieresismacron Odotbelow Ograve Ohookabove Ohorn Ohornacute Ohorndotbelow Ohorngrave Ohornhookabove Ohorntilde Ohungarumlaut Omacron Oogonek Oslash Oslashacute Otilde OE P Thorn Q R Racute Rcaron Rcommaaccent S Sacute Saltillo Scaron Scedilla Scommaaccent T Tbar Tcaron Tcedilla Tcommaaccent U Uacute Ubreve Ucaron Ucircumflex Udieresis Udieresisacute Udieresiscaron Udieresisgrave Udieresismacron Udotbelow Ugrave Uhookabove Uhorn Uhornacute Uhorndotbelow Uhorngrave Uhornhookabove Uhorntilde Uhungarumlaut Umacron Uogonek Uring Utilde V W Wacute Wcircumflex Wdieresis Wgrave X Y Yacute Ycircumflex Ydieresis Ydotbelow Ygrave Yhookabove Ytilde Z Zacute Zcaron Zdotaccent saltillo.case";
name = Uppercase;
}
);
customParameters = (
{
name = "Use Typo Metrics";
value = 1;
},
{
name = fsType;
value = (
);
},
{
name = "Family Alignment Zones";
value = (
{
pos = 712;

glyphs = (
{
color = 4;
glyphname = A;
kernLeft = A;
kernRight = A;
lastChange = "2022-12-17 15:01:32 +0000";
layers = (
{
anchors = (
{
name = bottom;
pos = (262,0);
},
{
name = ogonek;
pos = (543,10);
},
{
name = top;
pos = (367,630);
}
);
background = {
shapes = (
{
closed = 1;
nodes = (
(-32,-12,l),
(-32,-12,o),
(62,-3,o),
(184,-3,cs),
(184,-3,o),
(191,12,o),
(194,35,c),
(111,59,l),
(124,99,o),
(145,151,o),
(170,206,c),
(383,216,l),
(398,146,o),
(409,84,o),
(413,47,c),
(325,26,l),
(325,-12,l),
(325,-12,o),
(446,-3,o),
(568,-3,cs),
(568,-3,o),
(576,21,o),
(579,44,c),
(520,64,l),
(487,180,o),
(420,425,o),
(382,649,c),
(369,649,o),
(316,634,o),
(299,624,c),
(296,593,l),
(241,469,o),
(42,88,o),
(23,55,c),
(-32,35,l)
);
},
{
closed = 1;
nodes = (
(331,452,o),
(354,359,o),
(372,271,c),
(198,271,l),
(243,366,o),
(289,461,o),
(315,518,c)
);
}
);
};
hints = (
{
horizontal = 1;
place = (211, 60);
place = (211, 60);
type = Stem;
},
{
horizontal = 1;
place = (-12, 21);
target = up;
type = BottomGhost;
},
{
horizontal = 1;
place = (-3, 21);
target = up;
type = BottomGhost;
},
{
horizontal = 1;
place = (649, -20);
target = down;
type = TopGhost;
}
);
layerId = UUID0;
shapes = (
{
closed = 1;
nodes = (
(16,-9,o),
(103,-5,o),
(195,-3,c),
(199,7,o),
(202,22,o),
(204,35,c),
(121,59,l),
(162,182,o),
(285,412,o),
(340,516,c),
(341,518,l),
(374,386,o),
(405,140,o),
(413,47,c),
(324,26,l),
(323,13,o),
(323,1,o),
(326,-12,c),
(371,-9,o),
(457,-6,o),
(558,-3,c),
(562,6,o),
(567,24,o),
(568,41,c),
(509,61,l),
(478,176,o),
(434,420,o),
(398,644,c),
(397,649,l),
(384,649,o),
(339,634,o),
(326,624,c),
(322,593,l),
(268,469,o),
(52,88,o),
(33,55,c),
(-23,35,l),
(-23,19,o),
(-23,4,o),
(-23,-12,c)
);
},
{
closed = 1;
nodes = (
(411,217,l),
(411,271,l),
(204,271,l),
(170,206,l)
);
}
);
width = 591;
},
{
anchors = (
{
name = bottom;
pos = (302,0);
},
{
name = ogonek;
pos = (564,0);
},
{
name = top;
pos = (382,663);
}
);
layerId = "B4F86D1D-EB2F-477C-956E-3DDEB412089F";
shapes = (
{
closed = 1;
nodes = (
(65,-3,o),
(136,-2,o),
(207,0,c),
(212,13,o),
(214,25,o),
(216,38,c),
(145,56,l),
(162,189,o),
(209,325,o),
(277,504,c),
(290,504,l),
(312,411,o),
(326,193,o),
(330,60,c),
(268,42,l),
(266,26,o),
(266,11,o),
(268,-5,c),
(381,-3,o),
(489,-2,o),
(602,0,c),
(609,15,o),
(611,29,o),
(613,44,c),
(584,57,l),
(571,111,o),
(514,505,o),
(507,649,c),
(491,665,l),
(417,663,o),
(343,662,o),
(270,660,c),
(259,630,l),
(199,471,o),
(80,166,o),
(32,54,c),
(-4,42,l),
(-6,26,o),
(-6,11,o),
(-5,-5,c)
);
},
{
closed = 1;
nodes = (
(327,210,l),
(324,272,l),
(189,272,l),
(167,193,l)
);
}
);
width = 656;
},
{
anchors = (
{
name = bottom;
pos = (271,0);
},
{
name = ogonek;
pos = (588,10);
},
{
name = top;
pos = (365,652);
}
);
layerId = "2F2E705F-35A9-412F-BB04-95DF071C0E1E";
shapes = (
{
closed = 1;
nodes = (
(60,-3,o),
(108,-2,o),
(168,-2,c),
(170,2,o),
(171,9,o),
(171,12,c),
(82,16,l),
(131,129,o),
(300,486,o),
(361,618,c),
(363,609,l),
(424,337,o),
(440,263,o),
(495,16,c),
(402,10,l),
(401,6,o),
(401,-1,o),
(401,-4,c),
(457,-3,o),
(512,-2,o),
(567,-1,c),
(568,2,o),
(569,10,o),
(569,13,c),
(513,17,l),
(467,225,o),
(419,431,o),
(373,639,c),
(372,645,l),
(365,644,o),
(358,642,o),
(351,638,c),
(350,632,l),
(254,426,o),
(157,221,o),
(62,15,c),
(-3,8,l),
(-3,4,o),
(-3,-2,o),
(-1,-6,c)
);
},
{
closed = 1;
nodes = (
(451,243,l),
(448,258,l),
(185,258,l),
(176,240,l)
);
}
);
width = 619;
}
);
unicode = 65;
},
{
color = 4;
glyphname = AE;
kernLeft = A;
kernRight = E;
lastChange = "2022-12-14 10:58:19 +0000";
layers = (
{
anchors = (
{
name = bottom;
pos = (343,0);
},
{
name = top;
pos = (470,652);
}
);
layerId = UUID0;
shapes = (
{
closed = 1;
nodes = (
(14,-6,o),
(88,0,o),
(186,0,c),
(189,9,o),
(193,25,o),
(194,38,c),
(114,62,l),
(144,160,o),
(256,407,o),
(320,548,c),
(322,550,o),
(328,553,o),
(330,553,c),
(359,443,o),
(398,124,o),
(403,50,c),
(319,29,l),
(317,14,o),
(319,0,o),
(319,-9,c),
(344,-7,o),
(423,-2,o),
(515,0,c),
(564,-1,o),
(610,-3,o),
(664,-6,c),
(673,4,l),
(690,159,l),
(691,170,l),
(678,175,o),
(664,177,o),
(649,178,c),
(610,74,l),
(581,68,o),
(543,63,o),
(499,60,c),
(471,166,o),
(436,377,o),
(401,575,c),
(471,582,o),
(522,585,o),
(591,585,c),
(614,476,l),
(617,465,l),
(631,465,o),
(645,467,o),
(660,473,c),
(674,646,l),
(675,652,l),
(579,652,o),
(485,652,o),
(389,652,cs),
(377,652,o),
(316,637,o),
(301,627,c),
(255,515,o),
(89,168,o),
(30,58,c),
(-23,38,l),
(-25,21,o),
(-23,0,o),
(-23,-9,c)
);
},
{
closed = 1;
nodes = (
(615,285,l),
(622,353,l),
(609,368,l),
(183,269,l),
(159,211,l)
);
}
);
width = 742;
},
{
anchors = (
{
name = bottom;
pos = (381,0);
},
{
name = top;
pos = (513,660);
}
);
layerId = "B4F86D1D-EB2F-477C-956E-3DDEB412089F";
shapes = (
{
closed = 1;
nodes = (
(63,-2,o),
(125,-3,o),
(190,0,c),
(195,13,o),
(198,25,o),
(199,38,c),
(156,56,l),
(179,187,o),
(258,369,o),
(341,553,c),
(345,558,o),
(351,561,o),
(356,563,c),
(349,391,o),
(343,218,o),
(336,46,c),
(299,38,l),
(299,22,o),
(299,11,o),
(301,-5,c),
(387,-2,o),
(473,0,o),
(560,3,cs),
(626,5,o),
(697,0,o),
(745,-2,c),
(753,8,l),
(781,182,l),
(778,191,l),
(750,195,o),
(723,198,o),
(695,198,c),
(649,86,l),
(629,82,o),
(576,72,o),
(532,69,c),
(535,365,o),
(533,406,o),
(546,587,c),
(560,589,o),
(616,596,o),
(640,596,c),
(654,469,l),
(664,462,l),
(692,462,o),
(719,464,o),
(748,468,c),
(778,656,l),
(771,665,l),
(724,662,o),
(532,660,o),
(370,660,c),
(350,654,o),
(329,643,o),
(309,631,c),
(257,493,o),
(178,323,o),
(42,50,c),
(-4,38,l),
(-4,22,o),
(-4,11,o),
(-2,-5,c)
);
},
{
closed = 1;
nodes = (
(718,280,l),
(731,366,l),
(718,377,l),
(207,282,l),
(192,214,l)
);
}
);
width = 820;
},
{
anchors = (
{
name = bottom;
pos = (385,0);
},
{
name = top;
pos = (505,646);
}
);
layerId = "2F2E705F-35A9-412F-BB04-95DF071C0E1E";
shapes = (
{
closed = 1;
nodes = (
(64,-3,o),
(119,-2,o),
(185,-2,c),
(187,2,o),
(188,9,o),
(188,12,c),
(90,16,l),
(144,126,o),
(320,493,o),
(370,605,c),
(373,610,o),
(375,615,o),
(378,620,c),
(425,402,o),
(462,220,o),
(504,16,c),
(419,10,l),
(417,6,o),
(417,-1,o),
(417,-4,c),
(443,-3,o),
(538,-2,o),
(600,-1,cs),
(652,-1,o),
(687,-2,o),
(736,-3,c),
(745,53,l),
(758,134,l),
(767,190,l),
(765,191,o),
(757,193,o),
(754,193,c),
(720,20,l),
(691,17,o),
(588,17,o),
(524,17,c),
(505,108,o),
(418,516,o),
(395,623,c),
(517,627,o),
(584,629,o),
(674,629,c),
(672,456,l),
(673,456,l),
(675,456,o),
(682,457,o),
(685,458,c),
(697,631,l),
(698,647,l),
(600,645,o),
(480,641,o),
(383,640,c),
(380,639,o),
(374,637,o),
(369,635,c),
(268,426,o),
(171,221,o),
(69,15,c),
(-2,8,l),
(-3,6,o),
(-3,-2,o),
(-2,-6,c)
);
},
{
closed = 1;
nodes = (
(631,324,l),
(633,333,l),
(623,341,l),
(197,253,l),
(188,234,l)
);
}
);
width = 825;
}
);
metricLeft = A;
metricRight = E;
unicode = 198;
},
{
color = 4;
glyphname = B;
kernLeft = H;
kernRight = B;
lastChange = "2022-12-16 16:12:24 +0000";
layers = (
{
anchors = (
{
name = bottom;
pos = (264,0);
},
{
name = center;
pos = (304,326);
},
{
name = top;
pos = (344,652);
}
);
background = {
shapes = (
{
closed = 1;
nodes = (
(549,302,o),
(479,324,o),
(442,335,c),
(506,386,o),
(556,437,o),
(556,516,cs),
(556,603,o),
(489,641,o),
(489,641,c),
(489,641,o),
(457,652,o),
(402,652,cs),
(331,652,o),
(230,640,o),
(128,640,cs),
(128,640,o),
(121,623,o),
(118,596,c),
(192,574,l),
(192,490,o),
(184,423,o),
(176,356,cs),
(162,243,o),
(142,125,o),
(130,57,c),
(50,38,l),
(49,32,o),
(49,24,o),
(49,17,cs),
(49,3,o),
(50,-9,o),
(50,-9,c),
(107,-9,o),
(249,-12,o),
(321,-12,cs),
(392,-12,o),
(450,13,o),
(450,13,c),
(510,58,o),
(549,134,o),
(549,209,c)
);
},
{
closed = 1;
nodes = (
(411,300,o),
(453,263,o),
(453,196,cs),
(453,149,o),
(446,112,o),
(431,78,cs),
(431,78,o),
(407,60,o),
(374,43,c),
(313,43,o),
(258,51,o),
(222,59,c),
(227,117,o),
(235,207,o),
(245,292,c),
(303,301,o),
(375,302,o),
(408,302,c)
);
},
{
closed = 1;
nodes = (
(259,405,o),
(273,524,o),
(283,583,c),
(283,583,o),
(358,597,o),
(431,597,cs),
(434,597,o),
(469,554,o),
(469,496,cs),
(469,458,o),
(461,423,o),
(448,392,c),
(418,365,o),
(382,353,o),
(319,353,cs),
(297,353,o),
(273,355,o),
(253,358,c)
);
}
);
};
hints = (
{
place = (151, 81);
place = (151, 81);
type = Stem;
},
{
place = (444, 88);
place = (444, 88);
type = Stem;
},
{
place = (465, 100);
place = (465, 100);
type = Stem;
},
{
horizontal = 1;
place = (-12, 55);
place = (-12, 55);
type = Stem;
},
{
horizontal = 1;
place = (302, 51);
place = (302, 51);
type = Stem;
},
{
horizontal = 1;
place = (597, 43);
place = (597, 43);
type = Stem;
},
{
horizontal = 1;
place = (597, 55);
place = (597, 55);
type = Stem;
},
{
horizontal = 1;
place = (-9, 21);
target = up;
type = BottomGhost;
}
);
layerId = UUID0;
shapes = (
{
closed = 1;
nodes = (
(370,-12,o),
(414,2,o),
(439,13,c),
(501,58,o),
(543,138,o),
(543,214,cs),
(543,300,o),
(478,324,o),
(443,335,c),
(508,386,o),
(561,439,o),
(561,522,cs),
(561,595,o),
(519,630,o),
(498,643,c),
(482,648,o),
(459,652,o),
(414,652,cs),
(343,652,o),
(241,640,o),
(139,640,c),
(134,629,o),
(129,614,o),
(128,596,c),
(203,574,l),
(201,539,o),
(196,476,o),
(177,356,cs),
(159,241,o),
(134,130,o),
(118,63,c),
(34,47,l),
(31,31,o),
(31,16,o),
(32,0,c),
(109,0,o),
(232,-12,o),
(309,-12,cs)
);
},
{
closed = 1;
nodes = (
(303,43,o),
(248,49,o),
(212,57,c),
(217,115,o),
(228,207,o),
(241,292,c),
(268,296,o),
(298,299,o),
(326,300,cs),
(359,302,o),
(389,302,o),
(407,302,c),
(432,280,o),
(455,245,o),
(455,200,cs),
(455,162,o),
(440,107,o),
(424,76,c),
(418,71,o),
(392,57,o),
(364,43,c)
);
},
{
closed = 1;
nodes = (
(298,353,o),
(271,355,o),
(251,358,c),
(258,405,o),
(276,524,o),
(288,583,c),
(308,587,o),
(331,590,o),
(356,593,cs),
(381,595,o),
(410,597,o),
(441,597,cs),
(444,597,o),
(475,556,o),
(475,500,cs),
(475,467,o),
(465,423,o),
(451,392,c),
(435,378,o),
(418,368,o),
(397,362,cs),
(376,356,o),
(351,353,o),
(320,353,cs)
);
}
);
width = 583;
},
{
anchors = (
{
name = bottom;
pos = (299,0);
},
{
name = center;
pos = (340,330);
},
{
name = top;
pos = (380,660);
}
);
background = {
shapes = (
{
closed = 1;
nodes = (
(405,-12,o),
(453,-1,o),
(509,19,c),
(581,72,o),
(624,144,o),
(624,207,cs),
(623,270,o),
(581,324,o),
(485,345,c),
(520,355,o),
(551,374,o),
(575,399,cs),
(611,437,o),
(629,482,o),
(629,525,cs),
(630,580,o),
(599,631,o),
(537,661,c),
(520,664,o),
(491,666,o),
(468,666,cs),
(370,666,o),
(216,664,o),
(103,660,c),
(98,647,o),
(96,635,o),
(94,622,c),
(141,602,l),
(136,513,o),
(122,393,o),
(110,290,cs),
(101,216,o),
(87,124,o),
(73,49,c),
(22,38,l),
(21,24,o),
(20,9,o),
(22,-5,c),
(77,-2,o),
(131,0,o),
(185,0,c),
(231,-5,o),
(303,-12,o),
(355,-12,cs)
);
},
{
closed = 1;
nodes = (
(295,119,o),
(301,177,o),
(317,305,c),
(342,305,o),
(365,305,o),
(390,305,c),
(399,295,o),
(425,262,o),
(415,186,cs),
(410,142,o),
(403,113,o),
(398,94,c),
(388,84,o),
(375,71,o),
(359,60,c),
(336,59,o),
(314,58,o),
(291,57,c)
);
},
{
closed = 1;
nodes = (
(334,442,o),
(347,530,o),
(358,591,c),
(365,595,o),
(390,601,o),
(420,604,c),
(434,570,o),
(437,504,o),
(430,447,cs),
(427,422,o),
(424,415,o),
(418,398,c),
(409,390,o),
(401,382,o),
(393,374,c),
(382,374,o),
(370,374,o),
(359,374,c),
(348,374,o),
(336,374,o),
(326,374,c)
);
}
);
};
layerId = "B4F86D1D-EB2F-477C-956E-3DDEB412089F";
shapes = (
{
closed = 1;
nodes = (
(405,-12,o),
(453,-1,o),
(509,19,c),
(581,72,o),
(624,144,o),
(624,207,cs),
(623,270,o),
(581,324,o),
(485,345,c),
(566,368,o),
(629,443,o),
(629,525,cs),
(630,580,o),
(599,631,o),
(537,661,c),
(520,664,o),
(491,666,o),
(468,666,cs),
(370,666,o),
(216,664,o),
(103,660,c),
(98,647,o),
(96,635,o),
(94,622,c),
(141,602,l),
(136,513,o),
(122,393,o),
(110,290,cs),
(101,216,o),
(87,129,o),
(73,54,c),
(22,43,l),
(21,29,o),
(20,14,o),
(22,0,c),
(125,0,o),
(231,-12,o),
(355,-12,cs)
);
},
{
closed = 1;
nodes = (
(336,59,o),
(314,58,o),
(291,57,c),
(295,119,o),
(301,177,o),
(317,305,c),
(329,305,o),
(341,305,o),
(353,305,cs),
(365,305,o),
(377,305,o),
(390,305,c),
(410,283,o),
(417,250,o),
(417,214,cs),
(417,172,o),
(407,127,o),
(398,94,c),
(388,84,o),
(375,71,o),
(359,60,c)
);
},
{
closed = 1;
nodes = (
(348,374,o),
(336,374,o),
(326,374,c),
(334,442,o),
(347,530,o),
(358,591,c),
(361,593,o),
(368,595,o),
(377,597,cs),
(388,600,o),
(403,602,o),
(420,604,c),
(429,581,o),
(434,545,o),
(434,508,cs),
(434,469,o),
(429,428,o),
(418,398,c),
(409,390,o),
(401,382,o),
(393,374,c),
(382,374,o),
(370,374,o),
(359,374,c)
);
}
);
width = 656;
},
{
anchors = (
{
name = bottom;
pos = (259,0);
},
{
name = center;
pos = (299,323);
},
{
name = top;
pos = (339,646);
}
);
background = {
shapes = (
{
closed = 1;
nodes = (
(355,-6,o),
(405,20,o),
(424,34,c),
(465,74,o),
(493,119,o),
(500,182,cs),
(511,270,o),
(457,330,o),
(395,342,c),
(400,346,o),
(437,374,o),
(448,386,c),
(481,429,o),
(495,459,o),
(499,491,cs),
(506,550,o),
(485,599,o),
(449,628,c),
(431,640,o),
(389,646,o),
(351,646,cs),
(285,646,o),
(197,640,o),
(134,640,c),
(132,636,o),
(131,631,o),
(130,627,c),
(218,619,l),
(209,533,o),
(192,409,o),
(182,330,cs),
(169,226,o),
(156,121,o),
(143,17,c),
(45,9,l),
(44,3,o),
(44,-2,o),
(45,-4,c),
(96,-3,o),
(131,-3,o),
(149,-2,c),
(172,-3,o),
(239,-6,o),
(304,-6,cs)
);
},
{
closed = 1;
nodes = (
(312,10,o),
(210,11,o),
(162,17,c),
(170,87,o),
(186,234,o),
(198,322,c),
(262,323,o),
(292,324,o),
(311,324,cs),
(351,324,o),
(386,323,o),
(404,319,c),
(451,297,o),
(490,255,o),
(481,178,cs),
(475,132,o),
(456,94,o),
(418,52,c),
(407,44,o),
(380,27,o),
(337,15,c)
);
},
{
closed = 1;
nodes = (
(212,442,o),
(227,550,o),
(239,620,c),
(270,623,o),
(311,627,o),
(347,627,cs),
(383,627,o),
(421,619,o),
(432,614,c),
(466,588,o),
(486,542,o),
(480,491,cs),
(473,437,o),
(433,392,o),
(408,373,cs),
(384,354,o),
(366,346,o),
(362,344,c),
(336,343,o),
(314,342,o),
(282,342,cs),
(254,342,o),
(229,342,o),
(200,342,c)
);
}
);
};
layerId = "2F2E705F-35A9-412F-BB04-95DF071C0E1E";
shapes = (
{
closed = 1;
nodes = (
(375,-6,o),
(425,20,o),
(444,34,c),
(492,81,o),
(521,137,o),
(521,202,cs),
(521,279,o),
(471,329,o),
(414,340,c),
(473,381,o),
(519,437,o),
(519,515,cs),
(519,563,o),
(500,603,o),
(469,628,c),
(451,640,o),
(409,646,o),
(371,646,cs),
(305,646,o),
(183,640,o),
(120,640,c),
(118,636,o),
(117,632,o),
(117,627,c),
(211,622,l),
(202,536,o),
(185,409,o),
(175,330,cs),
(162,226,o),
(149,121,o),
(136,17,c),
(38,13,l),
(38,7,o),
(38,2,o),
(39,0,c),
(150,0,o),
(209,-6,o),
(324,-6,cs)
);
},
{
closed = 1;
nodes = (
(324,11,o),
(203,13,o),
(155,17,c),
(163,87,o),
(179,236,o),
(191,324,c),
(255,325,o),
(292,326,o),
(311,326,cs),
(371,326,o),
(410,324,o),
(428,320,c),
(471,300,o),
(504,263,o),
(503,198,cs),
(502,144,o),
(477,95,o),
(438,52,c),
(427,44,o),
(400,23,o),
(337,11,c)
);
},
{
closed = 1;
nodes = (
(247,341,o),
(222,341,o),
(193,341,c),
(205,441,o),
(220,553,o),
(232,623,c),
(263,626,o),
(331,630,o),
(367,630,cs),
(403,630,o),
(444,621,o),
(455,616,c),
(485,593,o),
(502,554,o),
(502,508,cs),
(502,463,o),
(478,419,o),
(443,384,cs),
(426,367,o),
(405,353,o),
(386,343,c),
(360,342,o),
(314,341,o),
(282,341,cs)
);
}
);
width = 574;
}
);
metricLeft = H;
metricRight = "=H-15";
unicode = 66;
},
{
color = 4;
glyphname = C;
kernLeft = O;
kernRight = C;
lastChange = "2022-12-16 16:12:24 +0000";
layers = (
{
anchors = (
{
name = bottom;
pos = (267,0);
},
{
name = top;
pos = (377,652);
}
);
background = {
shapes = (
{
closed = 1;
nodes = (
(359,-2,o),
(446,37,o),
(519,92,c),
(504,129,l),
(441,104,o),
(348,62,o),
(280,62,c),
(176,108,o),
(126,204,o),
(141,326,cs),
(153,429,o),
(199,512,o),
(247,557,c),
(276,568,o),
(322,574,o),
(368,574,cs),
(415,574,o),
(442,566,o),
(473,551,c),
(485,450,l),
(489,444,l),
(536,450,l),
(561,609,l),
(558,618,l),
(518,636,o),
(429,652,o),
(380,652,cs),
(303,643,o),
(229,600,o),
(169,540,cs),
(102,473,o),
(55,385,o),
(44,297,cs),
(26,153,o),
(121,-12,o),
(263,-12,cs)
);
}
);
};
hints = (
{
place = (42, 96);
place = (42, 96);
type = Stem;
},
{
horizontal = 1;
place = (-12, 74);
place = (-12, 74);
type = Stem;
},
{
horizontal = 1;
place = (587, 63);
place = (587, 63);
type = Stem;
}
);
layerId = UUID0;
shapes = (
{
closed = 1;
nodes = (
(348,-12,o),
(434,37,o),
(509,92,c),
(494,129,l),
(432,102,o),
(338,62,o),
(271,62,c),
(184,101,o),
(137,178,o),
(137,275,cs),
(137,374,o),
(183,493,o),
(252,557,c),
(282,568,o),
(326,574,o),
(372,574,cs),
(420,574,o),
(446,566,o),
(476,551,c),
(476,440,l),
(525,440,l),
(568,609,l),
(565,618,l),
(526,636,o),
(436,652,o),
(387,652,cs),
(330,652,o),
(273,628,o),
(222,589,cs),
(119,512,o),
(41,376,o),
(41,255,cs),
(41,123,o),
(125,-12,o),
(252,-12,cs)
);
}
);
width = 551;
},
{
anchors = (
{
name = bottom;
pos = (298,0);
},
{
name = top;
pos = (389,660);
}
);
background = {
shapes = (
{
closed = 1;
nodes = (
(379,-11,o),
(472,20,o),
(578,95,c),
(559,149,l),
(467,105,o),
(379,77,o),
(295,77,c),
(265,105,o),
(256,166,o),
(261,237,cs),
(267,355,o),
(308,501,o),
(344,577,c),
(360,581,o),
(378,584,o),
(395,585,cs),
(412,587,o),
(430,588,o),
(447,588,c),
(452,402,l),
(577,410,l),
(636,628,l),
(630,640,l),
(573,660,o),
(515,670,o),
(456,670,cs),
(344,670,o),
(214,634,o),
(143,584,c),
(75,481,o),
(36,359,o),
(29,260,cs),
(20,102,o),
(97,-11,o),
(280,-11,cs)
);
}
);
};
layerId = "B4F86D1D-EB2F-477C-956E-3DDEB412089F";
shapes = (
{
closed = 1;
nodes = (
(379,-12,o),
(472,19,o),
(578,94,c),
(559,148,l),
(467,104,o),
(379,76,o),
(295,76,c),
(269,100,o),
(260,149,o),
(260,207,cs),
(260,308,o),
(298,482,o),
(344,579,c),
(366,585,o),
(412,589,o),
(441,590,cs),
(443,590,o),
(445,590,o),
(447,590,c),
(452,404,l),
(577,412,l),
(636,630,l),
(630,642,l),
(573,662,o),
(515,672,o),
(456,672,cs),
(344,672,o),
(214,634,o),
(143,584,c),
(77,484,o),
(28,344,o),
(28,230,cs),
(28,88,o),
(109,-12,o),
(280,-12,cs)
);
}
);
width = 616;
},
{
anchors = (
{
name = bottom;
pos = (260,0);
},
{
name = top;
pos = (361,646);
}
);
background = {
shapes = (
{
closed = 1;
nodes = (
(543,183,o),
(585,272,o),
(585,383,cs),
(585,527,o),
(494,646,o),
(364,646,c),
(312,646,o),
(217,589,o),
(172,548,c),
(105,461,o),
(61,367,o),
(61,252,cs),
(61,128,o),
(135,-6,o),
(289,-6,c),
(334,-6,o),
(432,51,o),
(481,96,c)
);
},
{
closed = 1;
nodes = (
(157,9,o),
(80,126,o),
(80,256,cs),
(80,357,o),
(117,456,o),
(187,539,c),
(238,578,o),
(304,624,o),
(359,630,c),
(479,630,o),
(567,519,o),
(567,382,cs),
(567,289,o),
(528,186,o),
(466,105,c),
(423,66,o),
(338,15,o),
(294,10,c)
);
}
);
};
layerId = "2F2E705F-35A9-412F-BB04-95DF071C0E1E";
shapes = (
{
closed = 1;
nodes = (
(335,-6,o),
(423,37,o),
(488,82,c),
(479,95,l),
(405,47,o),
(335,11,o),
(266,11,c),
(142,28,o),
(80,141,o),
(80,256,cs),
(80,359,o),
(117,456,o),
(187,539,c),
(238,578,o),
(304,621,o),
(359,627,c),
(401,627,o),
(467,617,o),
(516,600,c),
(504,449,l),
(517,449,l),
(537,611,l),
(535,616,l),
(480,634,o),
(409,646,o),
(365,646,cs),
(312,646,o),
(217,589,o),
(172,548,c),
(105,461,o),
(61,369,o),
(61,254,cs),
(61,88,o),
(171,-6,o),
(279,-6,cs)
);
}
);
width = 538;
}
);
metricLeft = O;
metricRight = "=H/2";
unicode = 67;
},
{
color = 4;
glyphname = D;
kernLeft = H;
kernRight = O;
lastChange = "2022-12-16 16:12:24 +0000";
layers = (
{
anchors = (
{
name = top;
pos = (367,652);
}
);
background = {
shapes = (
{
closed = 1;
nodes = (
(495,6,o),
(652,208,o),
(652,385,cs),
(652,517,o),
(566,652,o),
(442,652,c),
(383,652,o),
(226,645,o),
(128,640,c),
(124,630,o),
(121,618,o),
(117,602,c),
(193,574,l),
(193,546,o),
(190,468,o),
(173,351,cs),
(157,240,o),
(132,130,o),
(116,63,c),
(34,47,l),
(32,0,l),
(109,-5,o),
(235,-12,o),
(312,-12,c)
);
},
{
closed = 1;
nodes = (
(254,50,o),
(229,52,o),
(213,57,c),
(219,125,o),
(232,246,o),
(244,327,cs),
(256,408,o),
(276,499,o),
(297,574,c),
(325,583,o),
(382,591,o),
(431,591,c),
(518,552,o),
(564,467,o),
(564,367,cs),
(564,262,o),
(505,144,o),
(426,71,c),
(392,59,o),
(332,50,o),
(281,50,cs)
);
}
);
};
hints = (
{
place = (151, 91);
place = (151, 91);
type = Stem;
},
{
place = (163, 79);
place = (163, 79);
type = Stem;
},
{
place = (570, 96);
place = (570, 96);
type = Stem;
},
{
horizontal = 1;
place = (591, 61);
place = (591, 61);
type = Stem;
},
{
horizontal = 1;
place = (640, -20);
target = down;
type = TopGhost;
},
{
horizontal = 1;
place = (-12, 21);
target = up;
type = BottomGhost;
},
{
horizontal = 1;
place = (-9, 21);
target = up;
type = BottomGhost;
}
);
layerId = UUID0;
shapes = (
{
closed = 1;
nodes = (
(495,6,o),
(652,208,o),
(652,385,cs),
(652,517,o),
(566,652,o),
(442,652,c),
(383,652,o),
(226,645,o),
(128,640,c),
(124,630,o),
(121,618,o),
(117,602,c),
(193,574,l),
(193,546,o),
(190,468,o),
(173,351,cs),
(157,240,o),
(132,130,o),
(116,63,c),
(34,47,l),
(31,31,o),
(31,16,o),
(32,0,c),
(109,-5,o),
(235,-12,o),
(312,-12,c)
);
},
{
closed = 1;
nodes = (
(254,50,o),
(229,52,o),
(213,57,c),
(219,125,o),
(232,246,o),
(244,327,cs),
(256,408,o),
(276,499,o),
(297,574,c),
(325,583,o),
(382,591,o),
(431,591,c),
(518,552,o),
(564,467,o),
(564,367,cs),
(564,262,o),
(505,144,o),
(426,71,c),
(392,59,o),
(332,50,o),
(281,50,cs)
);
}
);
width = 671;
},
{
anchors = (
{
name = top;
pos = (397,660);
}
);
background = {
shapes = (
{
closed = 1;
nodes = (
(431,-8,o),
(504,12,o),
(578,60,c),
(643,161,o),
(683,266,o),
(694,359,cs),
(715,526,o),
(645,665,o),
(470,665,cs),
(353,665,o),
(221,664,o),
(103,660,c),
(98,647,o),
(95,635,o),
(94,622,c),
(141,602,l),
(137,513,o),
(122,393,o),
(109,290,cs),
(100,216,o),
(87,129,o),
(73,54,c),
(22,38,l),
(20,24,o),
(20,9,o),
(22,-5,c),
(55,-3,o),
(88,0,o),
(121,0,cs),
(146,0,o),
(342,-8,o),
(348,-8,cs)
);
},
{
closed = 1;
nodes = (
(308,66,o),
(299,66,o),
(292,67,c),
(296,132,o),
(302,186,o),
(310,255,cs),
(329,408,o),
(344,512,o),
(357,585,c),
(369,590,o),
(416,593,o),
(433,593,c),
(474,555,o),
(479,454,o),
(466,356,cs),
(454,252,o),
(422,147,o),
(387,74,c),
(371,68,o),
(343,66,o),
(318,66,cs)
);
}
);
};
layerId = "B4F86D1D-EB2F-477C-956E-3DDEB412089F";
shapes = (
{
closed = 1;
nodes = (
(561,12,o),
(698,177,o),
(698,420,cs),
(697,560,o),
(627,665,o),
(470,665,cs),
(353,665,o),
(221,664,o),
(103,660,c),
(98,647,o),
(95,635,o),
(94,622,c),
(141,602,l),
(137,513,o),
(122,393,o),
(109,290,cs),
(100,216,o),
(87,134,o),
(73,59,c),
(22,43,l),
(20,29,o),
(20,14,o),
(22,0,c),
(115,0,o),
(296,-12,o),
(348,-12,c)
);
},
{
closed = 1;
nodes = (
(308,66,o),
(299,66,o),
(292,67,c),
(296,132,o),
(302,186,o),
(310,255,cs),
(329,408,o),
(344,512,o),
(357,585,c),
(369,590,o),
(416,593,o),
(433,593,c),
(461,566,o),
(473,513,o),
(472,448,cs),
(472,327,o),
(432,168,o),
(387,74,c),
(371,68,o),
(343,66,o),
(318,66,cs)
);
}
);
width = 708;
},
{
anchors = (
{
name = top;
pos = (387,652);
}
);
layerId = "2F2E705F-35A9-412F-BB04-95DF071C0E1E";
shapes = (
{
closed = 1;
nodes = (
(482,10,o),
(614,170,o),
(635,348,cs),
(654,508,o),
(548,647,o),
(396,647,cs),
(347,647,o),
(224,640,o),
(118,640,c),
(116,636,o),
(115,631,o),
(115,627,c),
(209,621,l),
(200,533,o),
(183,409,o),
(173,330,cs),
(160,225,o),
(146,122,o),
(134,20,c),
(38,13,l),
(38,7,o),
(38,4,o),
(40,0,c),
(106,0,o),
(243,-6,o),
(321,-6,c)
);
},
{
closed = 1;
nodes = (
(297,12,o),
(193,12,o),
(153,18,c),
(165,117,o),
(179,236,o),
(192,343,cs),
(207,464,o),
(221,573,o),
(230,622,c),
(293,629,o),
(338,629,o),
(395,629,cs),
(535,629,o),
(637,500,o),
(617,346,cs),
(604,246,o),
(557,154,o),
(487,91,cs),
(442,51,o),
(388,23,o),
(327,12,c)
);
}
);
width = 674;
}
);
metricLeft = H;
metricRight = O;
unicode = 68;
},
{
color = 3;
glyphname = Eth;
kernLeft = H;
kernRight = O;
lastChange = "2022-12-16 16:12:24 +0000";
layers = (
{
layerId = UUID0;
shapes = (
{
closed = 1;
nodes = (
(406,332,l),
(393,344,l),
(77,344,l),
(65,301,l),
(71,292,l),
(190,292,o),
(358,291,o),
(394,289,c)
);
},
{
pos = (1,0);
ref = D;
}
);
width = 672;
},
{
layerId = "B4F86D1D-EB2F-477C-956E-3DDEB412089F";
shapes = (
{
closed = 1;
nodes = (
(464,363,l),
(456,372,l),
(66,372,l),
(53,294,l),
(62,281,l),
(192,284,o),
(322,287,o),
(451,289,c)
);
},
{
pos = (32,0);
ref = D;
}
);
width = 740;
},
{
layerId = "2F2E705F-35A9-412F-BB04-95DF071C0E1E";
shapes = (
{
closed = 1;
nodes = (
(415,321,l),
(410,333,l),
(87,333,l),
(83,326,l),
(88,318,l),
(207,318,o),
(375,316,o),
(411,314,c)
);
},
{
ref = D;
}
);
width = 674;
}
);
metricLeft = D;
metricRight = D;
unicode = 208;
},
{
color = 4;
glyphname = E;
kernLeft = H;
kernRight = E;
lastChange = "2022-12-16 16:14:03 +0000";
layers = (
{
anchors = (
{
name = bottom;
pos = (242,0);
},
{
name = ogonek;
pos = (461,12);
},
{
name = top;
pos = (341,634);
},
{
name = topleft;
pos = (69,652);
}
);
background = {
shapes = (
{
closed = 1;
nodes = (
(234,435,o),
(246,514,o),
(256,574,c),
(280,576,o),
(370,586,o),
(439,586,c),
(463,462,l),
(492,462,o),
(508,470,o),
(508,470,c),
(524,649,l),
(524,649,o),
(365,640,o),
(98,640,cs),
(98,640,o),
(90,623,o),
(87,596,c),
(163,574,l),
(146,398,o),
(126,234,o),
(104,54,c),
(21,38,l),
(21,-9,l),
(21,-9,o),
(134,0,o),
(249,0,cs),
(382,0,o),
(471,-6,o),
(471,-6,c),
(500,170,l),
(500,170,o),
(486,178,o),
(456,178,c),
(414,74,l),
(365,64,o),
(267,57,o),
(185,57,c),
(193,122,o),
(204,213,o),
(215,295,c),
(283,294,o),
(339,292,o),
(399,289,c),
(427,310,l),
(433,358,l),
(223,353,l)
);
}
);
};
hints = (
{
place = (147, 86);
place = (147, 86);
type = Stem;
},
{
horizontal = 1;
place = (0, 57);
place = (0, 57);
type = Stem;
},
{
horizontal = 1;
place = (295, 60);
place = (295, 60);
type = Stem;
},
{
horizontal = 1;
place = (586, 54);
place = (586, 54);
type = Stem;
},
{
horizontal = 1;
place = (462, -20);
target = down;
type = TopGhost;
},
{
horizontal = 1;
place = (649, -20);
target = down;
type = TopGhost;
},
{
horizontal = 1;
place = (-9, 21);
target = up;
type = BottomGhost;
}
);
layerId = UUID0;
shapes = (
{
closed = 1;
nodes = (
(50,-6,o),
(145,0,o),
(238,0,cs),
(351,0,o),
(437,-3,o),
(459,-5,c),
(495,170,l),
(484,175,o),
(467,178,o),
(451,178,c),
(405,74,l),
(356,64,o),
(273,57,o),
(191,57,c),
(197,169,o),
(240,482,o),
(272,574,c),
(296,577,o),
(379,586,o),
(448,586,c),
(468,462,l),
(487,462,o),
(502,464,o),
(512,471,c),
(534,645,l),
(530,649,l),
(425,645,o),
(280,640,o),
(115,640,c),
(110,629,o),
(105,614,o),
(104,596,c),
(179,574,l),
(177,539,o),
(172,476,o),
(153,356,cs),
(135,241,o),
(111,121,o),
(95,54,c),
(13,38,l),
(10,22,o),
(10,7,o),
(11,-9,c)
);
},
{
closed = 1;
nodes = (
(427,310,l),
(434,358,l),
(224,353,l),
(214,295,l),
(282,295,o),
(338,293,o),
(398,289,c)
);
}
);
width = 544;
},
{
anchors = (
{
name = bottom;
pos = (253,0);
},
{
name = ogonek;
pos = (498,19);
},
{
name = top;
pos = (348,675);
},
{
name = topleft;
pos = (52,660);
}
);
background = {
shapes = (
{
closed = 1;
nodes = (
(32,-3,o),
(139,0,o),
(265,0,c),
(340,0,o),
(438,-3,o),
(494,-5,c),
(528,189,l),
(497,197,o),
(465,203,o),
(434,205,c),
(385,83,l),
(366,79,o),
(313,69,o),
(268,66,c),
(304,362,o),
(318,477,o),
(338,587,c),
(352,589,o),
(408,596,o),
(433,596,c),
(447,452,l),
(478,452,o),
(516,453,o),
(547,458,c),
(580,656,l),
(573,665,l),
(526,662,o),
(333,660,o),
(83,660,c),
(78,647,o),
(76,635,o),
(74,622,c),
(121,602,l),
(116,513,o),
(102,393,o),
(90,290,cs),
(81,216,o),
(67,124,o),
(53,49,c),
(3,38,l),
(1,24,o),
(1,9,o),
(2,-5,c)
);
},
{
closed = 1;
nodes = (
(484,299,l),
(493,371,l),
(300,366,l),
(291,295,l),
(349,291,o),
(406,287,o),
(464,283,c)
);
}
);
};
layerId = "B4F86D1D-EB2F-477C-956E-3DDEB412089F";
shapes = (
{
closed = 1;
nodes = (
(32,-3,o),
(139,0,o),
(265,0,c),
(340,0,o),
(438,-3,o),
(494,-5,c),
(528,189,l),
(497,197,o),
(465,203,o),
(434,205,c),
(385,83,l),
(366,79,o),
(313,69,o),
(268,66,c),
(304,362,o),
(318,477,o),
(338,587,c),
(352,589,o),
(408,596,o),
(433,596,c),
(447,452,l),
(478,452,o),
(516,453,o),
(547,458,c),
(580,656,l),
(573,665,l),
(526,662,o),
(333,660,o),
(83,660,c),
(78,647,o),
(76,635,o),
(74,622,c),
(121,602,l),
(116,513,o),
(102,393,o),
(90,290,cs),
(81,216,o),
(67,124,o),
(53,49,c),
(3,38,l),
(1,24,o),
(1,9,o),
(2,-5,c)
);
},
{
closed = 1;
nodes = (
(491,356,l),
(477,371,l),
(300,366,l),
(291,295,l),
(349,291,o),
(424,286,o),
(482,282,c)
);
}
);
width = 566;
},
{
anchors = (
{
name = bottom;
pos = (267,0);
},
{
name = ogonek;
pos = (456,12);
},
{
name = top;
pos = (337,646);
},
{
name = topleft;
pos = (64,652);
}
);
background = {
shapes = (
{
closed = 1;
nodes = (
(115,-1,o),
(143,0,o),
(261,0,cs),
(305,0,o),
(383,-2,o),
(459,-3,c),
(490,190,l),
(488,191,o),
(480,193,o),
(477,193,c),
(443,20,l),
(389,14,o),
(174,16,o),
(134,18,c),
(159,233,o),
(185,478,o),
(210,622,c),
(305,629,o),
(395,628,o),
(490,628,c),
(486,455,l),
(490,455,o),
(496,456,o),
(499,457,c),
(511,630,l),
(512,646,l),
(414,645,o),
(207,640,o),
(98,640,c),
(96,636,o),
(95,631,o),
(95,627,c),
(190,621,l),
(186,580,o),
(170,455,o),
(154,328,cs),
(138,201,o),
(122,72,o),
(115,18,c),
(17,9,l),
(17,3,o),
(18,-4,o),
(19,-6,c)
);
},
{
closed = 1;
nodes = (
(388,330,l),
(389,342,l),
(166,339,l),
(164,323,l),
(237,324,o),
(311,324,o),
(384,325,c)
);
}
);
};
layerId = "2F2E705F-35A9-412F-BB04-95DF071C0E1E";
shapes = (
{
closed = 1;
nodes = (
(115,-1,o),
(143,0,o),
(261,0,cs),
(305,0,o),
(383,-2,o),
(459,-3,c),
(490,190,l),
(488,191,o),
(480,193,o),
(477,193,c),
(443,20,l),
(389,14,o),
(174,16,o),
(134,18,c),
(159,233,o),
(185,478,o),
(210,622,c),
(305,629,o),
(395,628,o),
(490,628,c),
(486,455,l),
(490,455,o),
(496,456,o),
(499,457,c),
(512,641,l),
(509,646,l),
(411,645,o),
(207,640,o),
(98,640,c),
(96,636,o),
(95,631,o),
(95,627,c),
(190,621,l),
(186,580,o),
(170,455,o),
(154,328,cs),
(138,201,o),
(122,72,o),
(115,18,c),
(17,9,l),
(17,3,o),
(18,-4,o),
(19,-6,c)
);
},
{
closed = 1;
nodes = (
(388,330,l),
(389,342,l),
(166,339,l),
(164,323,l),
(237,324,o),
(311,324,o),
(384,325,c)
);
}
);
width = 548;
}
);
metricLeft = "=H-20";
metricRight = "=H-10";
unicode = 69;
},
{
color = 4;
glyphname = Schwa;
kernRight = O;
lastChange = "2022-12-16 16:14:13 +0000";
layers = (
{
anchors = (
{
name = bottom;
pos = (244,0);
},
{
name = top;
pos = (324,652);
}
);
background = {
shapes = (
{
closed = 1;
nodes = (
(119,-12,o),
(47,100,o),
(54,261,c),
(95,326,l),
(154,336,o),
(315,346,o),
(425,350,c),
(435,477,o),
(406,526,o),
(352,564,c),
(292,564,o),
(142,533,o),
(93,511,c),
(81,539,l),
(112,569,o),
(152,602,o),
(198,631,c),
(211,635,o),
(307,644,o),
(351,644,cs),
(471,644,o),
(538,529,o),
(514,335,c),
(505,260,o),
(467,133,o),
(433,83,c),
(382,40,o),
(292,2,o),
(179,-12,c)
);
},
{
closed = 1;
nodes = (
(265,60,o),
(319,65,o),
(340,74,c),
(371,108,o),
(407,219,o),
(421,295,c),
(336,289,o),
(207,279,o),
(148,264,c),
(142,212,o),
(147,94,o),
(174,60,c)
);
}
);
};
layerId = UUID0;
shapes = (
{
closed = 1;
nodes = (
(292,2,o),
(382,40,o),
(433,83,c),
(488,184,o),
(518,301,o),
(519,402,cs),
(520,537,o),
(467,644,o),
(351,644,cs),
(307,644,o),
(211,635,o),
(198,631,c),
(152,602,o),
(112,569,o),
(81,539,c),
(93,511,l),
(142,533,o),
(292,564,o),
(352,564,c),
(413,518,o),
(426,475,o),
(426,366,cs),
(426,361,o),
(426,355,o),
(426,350,c),
(316,346,o),
(154,336,o),
(95,326,c),
(54,261,l),
(54,100,o),
(119,-12,o),
(179,-12,c)
);
},
{
closed = 1;
nodes = (
(147,94,o),
(142,212,o),
(148,264,c),
(207,279,o),
(336,289,o),
(421,295,c),
(407,219,o),
(371,108,o),
(340,74,c),
(319,65,o),
(265,60,o),
(174,60,c)
);
}
);
width = 543;
},
{
anchors = (
{
name = bottom;
pos = (277,0);
},
{
name = top;
pos = (358,660);
}
);
background = {
shapes = (
{
closed = 1;
nodes = (
(317,-12,o),
(432,21,o),
(516,63,c),
(558,125,o),
(590,241,o),
(601,336,cs),
(632,582,o),
(554,672,o),
(363,672,cs),
(314,672,o),
(257,662,o),
(196,644,c),
(155,630,o),
(106,604,o),
(69,586,c),
(81,522,l),
(148,543,o),
(297,571,o),
(349,571,c),
(372,548,o),
(393,522,o),
(384,387,c),
(286,387,o),
(163,384,o),
(61,362,c),
(30,303,l),
(11,148,o),
(65,-12,o),
(177,-12,cs)
);
},
{
closed = 1;
nodes = (
(226,78,o),
(224,202,o),
(234,303,c),
(290,310,o),
(343,314,o),
(378,317,c),
(366,222,o),
(341,100,o),
(326,59,c),
(316,54,o),
(310,52,o),
(249,52,c)
);
}
);
};
layerId = "B4F86D1D-EB2F-477C-956E-3DDEB412089F";
shapes = (
{
closed = 1;
nodes = (
(317,-12,o),
(432,21,o),
(516,63,c),
(572,146,o),
(608,320,o),
(608,435,cs),
(607,607,o),
(526,672,o),
(363,672,cs),
(314,672,o),
(257,662,o),
(196,644,c),
(155,630,o),
(106,604,o),
(69,586,c),
(81,522,l),
(148,543,o),
(297,571,o),
(349,571,c),
(384,542,o),
(385,491,o),
(385,395,cs),
(385,393,o),
(385,390,o),
(385,387,c),
(287,387,o),
(163,384,o),
(61,362,c),
(30,303,l),
(30,148,o),
(65,-12,o),
(177,-12,cs)
);
},
{
closed = 1;
nodes = (
(226,78,o),
(224,202,o),
(234,303,c),
(290,310,o),
(343,314,o),
(378,317,c),
(366,222,o),
(341,100,o),
(326,59,c),
(316,54,o),
(310,52,o),
(249,52,c)
);
}
);
width = 611;
},
{
anchors = (
{
name = bottom;
pos = (252,0);
},
{
name = top;
pos = (332,646);
}
);
background = {
anchors = (
{
name = bottom;
pos = (212,0);
},
{
name = center;
pos = (269,323);
},
{
name = ogonek;
pos = (480,10);
},
{
name = top;
pos = (319,646);
},
{
name = topleft;
pos = (17,646);
},
{
name = topright;
pos = (386,630);
}
);
shapes = (
{
closed = 1;
nodes = (
(279,-6,o),
(377,51,o),
(426,96,c),
(488,183,o),
(530,272,o),
(530,383,cs),
(530,527,o),
(439,646,o),
(309,646,c),
(257,646,o),
(162,589,o),
(117,548,c),
(50,461,o),
(6,367,o),
(6,252,cs),
(6,128,o),
(80,-6,o),
(234,-6,c)
);
},
{
closed = 1;
nodes = (
(102,9,o),
(25,126,o),
(25,256,cs),
(25,357,o),
(62,456,o),
(132,539,c),
(183,578,o),
(249,624,o),
(304,630,c),
(424,630,o),
(512,519,o),
(512,382,cs),
(512,289,o),
(473,186,o),
(411,105,c),
(368,66,o),
(283,15,o),
(239,10,c)
);
}
);
};
layerId = "2F2E705F-35A9-412F-BB04-95DF071C0E1E";
shapes = (
{
closed = 1;
nodes = (
(275,-6,o),
(378,41,o),
(409,70,c),
(479,138,o),
(532,283,o),
(532,397,cs),
(532,536,o),
(474,647,o),
(346,647,cs),
(280,647,o),
(200,626,o),
(149,599,cs),
(143,596,o),
(122,582,o),
(114,576,c),
(120,565,l),
(196,610,o),
(297,635,o),
(371,629,c),
(481,609,o),
(513,509,o),
(513,397,cs),
(513,379,o),
(511,355,o),
(509,337,c),
(372,332,o),
(209,319,o),
(69,299,c),
(54,284,l),
(39,145,o),
(70,-6,o),
(235,-6,c)
);
},
{
closed = 1;
nodes = (
(78,15,o),
(58,159,o),
(71,279,c),
(213,300,o),
(363,315,o),
(506,319,c),
(488,214,o),
(440,126,o),
(396,82,c),
(373,61,o),
(285,16,o),
(234,10,c)
);
}
);
width = 561;
}
);
metricLeft = a;
metricRight = o;
unicode = 399;
},
{
color = 4;
glyphname = F;
kernLeft = H;
kernRight = F;
lastChange = "2022-12-16 16:12:24 +0000";
layers = (
{
background = {
shapes = (
{
closed = 1;
nodes = (
(110,-3,o),
(200,0,o),
(294,0,c),
(305,38,l),
(212,67,l),
(216,145,o),
(232,276,o),
(249,369,cs),
(276,517,o),
(284,551,o),
(292,574,c),
(316,577,o),
(399,586,o),
(468,586,c),
(488,462,l),
(507,462,o),
(522,464,o),
(532,471,c),
(555,649,l),
(449,645,o),
(302,640,o),
(135,640,c),
(130,629,o),
(125,614,o),
(124,596,c),
(199,574,l),
(197,539,o),
(192,476,o),
(173,356,cs),
(155,241,o),
(131,121,o),
(115,54,c),
(33,38,l),
(31,-9,l)
);
},
{
closed = 1;
nodes = (
(447,300,l),
(454,348,l),
(244,343,l),
(234,285,l),
(302,285,o),
(358,283,o),
(418,279,c)
);
}
);
};
hints = (
{
place = (148, 83);
place = (148, 83);
type = Stem;
},
{
horizontal = 1;
place = (285, 61);
place = (285, 61);
type = Stem;
},
{
horizontal = 1;
place = (586, 54);
place = (586, 54);
type = Stem;
},
{
horizontal = 1;
place = (462, -20);
target = down;
type = TopGhost;
},
{
horizontal = 1;
place = (649, -20);
target = down;
type = TopGhost;
},
{
horizontal = 1;
place = (-9, 21);
target = up;
type = BottomGhost;
},
{
horizontal = 1;
place = (0, 21);
target = up;
type = BottomGhost;
}
);
layerId = UUID0;
shapes = (
{
closed = 1;
nodes = (
(110,-3,o),
(200,0,o),
(294,0,c),
(300,13,o),
(303,25,o),
(305,38,c),
(212,67,l),
(216,145,o),
(232,276,o),
(249,369,cs),
(276,517,o),
(284,551,o),
(292,574,c),
(316,577,o),
(399,586,o),
(468,586,c),
(488,462,l),
(507,462,o),
(522,464,o),
(532,471,c),
(554,638,l),
(544,649,l),
(439,645,o),
(296,640,o),
(135,640,c),
(130,629,o),
(125,614,o),
(124,596,c),
(199,574,l),
(197,539,o),
(192,476,o),
(173,356,cs),
(155,241,o),
(131,121,o),
(115,54,c),
(33,38,l),
(30,22,o),
(30,7,o),
(31,-9,c)
);
},
{
closed = 1;
nodes = (
(447,300,l),
(454,348,l),
(244,343,l),
(234,285,l),
(302,285,o),
(358,283,o),
(418,279,c)
);
}
);
width = 529;
},
{
background = {
shapes = (
{
closed = 1;
nodes = (
(143,-3,o),
(262,-2,o),
(382,0,c),
(387,13,o),
(390,25,o),
(391,38,c),
(291,76,l),
(301,178,o),
(310,260,o),
(318,328,cs),
(333,445,o),
(345,522,o),
(360,587,c),
(374,591,o),
(402,596,o),
(435,596,c),
(449,454,l),
(481,454,o),
(520,456,o),
(552,460,c),
(586,659,l),
(579,668,l),
(420,665,o),
(262,663,o),
(103,660,c),
(98,647,o),
(96,635,o),
(94,622,c),
(145,594,l),
(137,500,o),
(122,373,o),
(111,290,cs),
(103,218,o),
(89,132,o),
(76,58,c),
(23,42,l),
(21,26,o),
(21,11,o),
(23,-5,c)
);
},
{
closed = 1;
nodes = (
(503,279,l),
(514,353,l),
(317,348,l),
(308,275,l),
(366,271,o),
(425,267,o),
(483,263,c)
);
}
);
};
layerId = "B4F86D1D-EB2F-477C-956E-3DDEB412089F";
shapes = (
{
closed = 1;
nodes = (
(143,-3,o),
(262,-2,o),
(382,0,c),
(387,13,o),
(390,25,o),
(391,38,c),
(291,76,l),
(301,178,o),
(310,260,o),
(318,328,cs),
(333,445,o),
(345,522,o),
(360,587,c),
(374,591,o),
(402,596,o),
(435,596,c),
(449,454,l),
(481,454,o),
(520,456,o),
(552,460,c),
(586,659,l),
(579,668,l),
(420,665,o),
(262,663,o),
(103,660,c),
(98,647,o),
(96,635,o),
(94,622,c),
(145,594,l),
(137,500,o),
(122,373,o),
(111,290,cs),
(103,218,o),
(89,132,o),
(76,58,c),
(23,42,l),
(21,26,o),
(21,11,o),
(23,-5,c)
);
},
{
closed = 1;
nodes = (
(511,335,l),
(496,353,l),
(317,348,l),
(308,275,l),
(366,271,o),
(443,266,o),
(501,262,c)
);
}
);
width = 555;
},
{
background = {
shapes = (
{
closed = 1;
nodes = (
(118,-1,o),
(188,0,o),
(282,0,c),
(284,5,o),
(284,9,o),
(284,14,c),
(154,18,l),
(167,127,o),
(180,244,o),
(193,352,cs),
(205,456,o),
(218,551,o),
(230,622,c),
(325,629,o),
(415,628,o),
(510,628,c),
(506,455,l),
(510,455,o),
(516,456,o),
(519,457,c),
(531,630,l),
(532,646,l),
(434,645,o),
(227,640,o),
(118,640,c),
(116,636,o),
(115,631,o),
(115,627,c),
(210,621,l),
(206,580,o),
(190,455,o),
(174,328,cs),
(158,201,o),
(142,72,o),
(135,18,c),
(37,9,l),
(37,3,o),
(38,-3,o),
(39,-6,c)
);
},
{
closed = 1;
nodes = (
(408,320,l),
(409,332,l),
(186,329,l),
(184,313,l),
(257,314,o),
(331,314,o),
(404,315,c)
);
}
);
};
layerId = "2F2E705F-35A9-412F-BB04-95DF071C0E1E";
shapes = (
{
closed = 1;
nodes = (
(118,-1,o),
(188,0,o),
(282,0,c),
(284,5,o),
(284,9,o),
(284,14,c),
(154,18,l),
(167,127,o),
(180,244,o),
(193,352,cs),
(205,456,o),
(218,551,o),
(230,622,c),
(325,629,o),
(415,628,o),
(510,628,c),
(506,455,l),
(510,455,o),
(516,456,o),
(519,457,c),
(532,641,l),
(529,646,l),
(431,645,o),
(227,640,o),
(118,640,c),
(116,636,o),
(115,631,o),
(115,627,c),
(210,621,l),
(206,580,o),
(190,455,o),
(174,328,cs),
(158,201,o),
(142,72,o),
(135,18,c),
(37,9,l),
(37,3,o),
(38,-3,o),
(39,-6,c)
);
},
{
closed = 1;
nodes = (
(408,320,l),
(409,332,l),
(186,329,l),
(184,313,l),
(257,314,o),
(331,314,o),
(404,315,c)
);
}
);
width = 523;
}
);
metricLeft = H;
metricRight = "=H/2";
unicode = 70;
},
{
color = 4;
glyphname = G;
kernLeft = O;
kernRight = G;
lastChange = "2022-12-16 16:12:24 +0000";
layers = (
{
anchors = (
{
name = bottom;
pos = (279,0);
},
{
name = top;
pos = (380,652);
}
);
background = {
shapes = (
{
closed = 1;
nodes = (
(496,-2,l),
(497,21,o),
(499,50,o),
(505,92,cs),
(511,137,o),
(521,188,o),
(533,240,c),
(589,261,l),
(589,307,l),
(515,302,o),
(460,300,o),
(370,298,c),
(360,261,l),
(446,227,l),
(437,86,l),
(385,68,o),
(327,53,o),
(277,53,c),
(177,94,o),
(139,184,o),
(139,286,cs),
(139,380,o),
(179,489,o),
(245,551,c),
(276,562,o),
(337,574,o),
(387,574,cs),
(436,574,o),
(466,566,o),
(497,551,c),
(497,450,l),
(550,450,l),
(590,609,l),
(587,618,l),
(543,636,o),
(429,652,o),
(375,652,c),
(206,631,o),
(42,433,o),
(42,265,cs),
(42,130,o),
(132,-12,o),
(265,-12,c),
(325,-4,o),
(379,13,o),
(439,37,c),
(449,-13,l)
);
}
);
};
hints = (
{
place = (42, 96);
place = (42, 96);
type = Stem;
},
{
place = (487, 84);
place = (487, 84);
type = Stem;
},
{
horizontal = 1;
place = (-11, 74);
place = (-11, 74);
type = Stem;
},
{
horizontal = 1;
place = (587, 64);
place = (587, 64);
type = Stem;
},
{
horizontal = 1;
place = (-13, 21);
target = up;
type = BottomGhost;
}
);
layerId = UUID0;
shapes = (
{
closed = 1;
nodes = (
(496,-2,l),
(497,21,o),
(499,50,o),
(505,92,cs),
(511,137,o),
(521,188,o),
(533,240,c),
(589,261,l),
(589,307,l),
(515,302,o),
(460,300,o),
(370,298,c),
(360,261,l),
(446,227,l),
(437,86,l),
(385,68,o),
(327,53,o),
(277,53,c),
(177,94,o),
(139,184,o),
(139,286,cs),
(139,380,o),
(179,489,o),
(245,551,c),
(276,562,o),
(337,574,o),
(387,574,cs),
(436,574,o),
(466,566,o),
(497,551,c),
(497,450,l),
(550,450,l),
(590,609,l),
(587,618,l),
(543,636,o),
(429,652,o),
(375,652,c),
(319,645,o),
(263,618,o),
(214,580,cs),
(115,503,o),
(42,377,o),
(42,265,cs),
(42,130,o),
(132,-12,o),
(265,-12,c),
(325,-4,o),
(379,13,o),
(439,37,c),
(449,-13,l)
);
}
);
width = 627;
},
{
anchors = (
{
name = bottom;
pos = (323,0);
},
{
name = top;
pos = (386,660);
}
);
background = {
shapes = (
{
closed = 1;
nodes = (
(546,-2,l),
(547,22,o),
(550,52,o),
(558,95,cs),
(566,142,o),
(579,204,o),
(592,258,c),
(647,279,l),
(650,327,l),
(556,324,o),
(462,320,o),
(367,317,c),
(356,279,l),
(405,254,l),
(382,85,l),
(362,79,o),
(342,77,o),
(295,77,c),
(265,105,o),
(257,166,o),
(261,237,cs),
(267,357,o),
(308,504,o),
(344,579,c),
(360,583,o),
(377,586,o),
(394,587,cs),
(412,588,o),
(430,590,o),
(447,590,c),
(452,404,l),
(577,412,l),
(634,625,l),
(627,643,l),
(577,662,o),
(515,672,o),
(456,672,cs),
(356,672,o),
(234,636,o),
(144,586,c),
(77,486,o),
(36,366,o),
(29,261,cs),
(20,111,o),
(79,-12,o),
(232,-12,cs),
(272,-12,o),
(343,-8,o),
(415,4,c),
(422,-13,l)
);
}
);
};
layerId = "B4F86D1D-EB2F-477C-956E-3DDEB412089F";
shapes = (
{
closed = 1;
nodes = (
(546,-2,l),
(547,22,o),
(550,52,o),
(558,95,cs),
(566,142,o),
(579,204,o),
(592,258,c),
(647,279,l),
(650,327,l),
(556,324,o),
(462,320,o),
(367,317,c),
(356,279,l),
(405,254,l),
(382,85,l),
(362,79,o),
(342,77,o),
(295,77,c),
(269,101,o),
(260,149,o),
(260,207,cs),
(260,312,o),
(299,484,o),
(344,579,c),
(368,585,o),
(412,589,o),
(442,590,cs),
(444,590,o),
(445,590,o),
(447,590,c),
(452,404,l),
(577,412,l),
(634,625,l),
(627,643,l),
(577,662,o),
(515,672,o),
(456,672,cs),
(356,672,o),
(234,636,o),
(144,586,c),
(76,484,o),
(28,347,o),
(28,230,cs),
(28,94,o),
(90,-12,o),
(232,-12,cs),
(272,-12,o),
(343,-8,o),
(415,4,c),
(422,-13,l)
);
}
);
width = 674;
},
{
anchors = (
{
name = bottom;
pos = (264,0);
},
{
name = top;
pos = (366,652);
}
);
background = {
shapes = (
{
closed = 1;
nodes = (
(469,-9,l),
(470,2,o),
(472,45,o),
(481,106,cs),
(488,154,o),
(494,201,o),
(501,249,c),
(566,254,l),
(566,270,l),
(503,266,o),
(450,265,o),
(389,265,c),
(386,251,l),
(480,249,l),
(458,61,l),
(409,38,o),
(327,11,o),
(255,11,c),
(138,29,o),
(78,118,o),
(78,243,cs),
(78,336,o),
(123,463,o),
(192,545,c),
(245,586,o),
(311,624,o),
(366,629,c),
(398,629,o),
(485,613,o),
(524,600,c),
(513,445,l),
(527,445,l),
(547,609,l),
(548,615,l),
(485,634,o),
(412,646,o),
(372,646,cs),
(315,646,o),
(224,594,o),
(178,556,c),
(108,472,o),
(59,350,o),
(59,242,cs),
(58,99,o),
(136,-6,o),
(276,-6,cs),
(323,-6,o),
(412,20,o),
(457,42,c),
(454,-12,l)
);
}
);
};
layerId = "2F2E705F-35A9-412F-BB04-95DF071C0E1E";
shapes = (
{
closed = 1;
nodes = (
(469,-9,l),
(470,2,o),
(472,45,o),
(481,106,cs),
(488,154,o),
(494,201,o),
(501,249,c),
(566,254,l),
(566,270,l),
(503,266,o),
(450,265,o),
(389,265,c),
(386,251,l),
(480,249,l),
(458,61,l),
(409,38,o),
(327,11,o),
(255,11,c),
(138,29,o),
(78,118,o),
(78,243,cs),
(78,336,o),
(123,463,o),
(192,545,c),
(245,586,o),
(311,624,o),
(366,629,c),
(398,629,o),
(485,613,o),
(524,600,c),
(513,445,l),
(527,445,l),
(547,611,l),
(544,616,l),
(481,635,o),
(412,646,o),
(372,646,cs),
(315,646,o),
(224,594,o),
(178,556,c),
(108,472,o),
(59,350,o),
(59,242,cs),
(58,99,o),
(136,-6,o),
(276,-6,cs),
(323,-6,o),
(412,20,o),
(457,42,c),
(454,-12,l)
);
}
);
width = 616;
}
);
metricLeft = O;
metricRight = "=H-10";
unicode = 71;
},
{
color = 4;
glyphname = H;
kernLeft = H;
kernRight = H;
lastChange = "2022-12-16 16:12:24 +0000";
layers = (
{
background = {
shapes = (
{
closed = 1;
nodes = (
(496,-2,o),
(586,1,o),
(680,1,c),
(686,14,o),
(689,26,o),
(691,39,c),
(597,67,l),
(612,236,o),
(640,423,o),
(678,584,c),
(699,592,o),
(734,603,o),
(762,609,c),
(761,623,o),
(761,636,o),
(760,650,c),
(680,644,o),
(601,641,o),
(521,641,c),
(516,630,o),
(511,615,o),
(510,597,c),
(585,575,l),
(583,540,o),
(578,477,o),
(559,357,cs),
(541,242,o),
(517,121,o),
(501,54,c),
(419,39,l),
(416,23,o),
(416,8,o),
(417,-8,c)
);
},
{
closed = 1;
nodes = (
(110,-2,o),
(200,1,o),
(294,1,c),
(300,14,o),
(303,26,o),
(305,39,c),
(211,67,l),
(226,236,o),
(254,423,o),
(292,584,c),
(313,592,o),
(348,603,o),
(376,609,c),
(375,623,o),
(375,636,o),
(374,650,c),
(294,644,o),
(215,641,o),
(135,641,c),
(130,630,o),
(125,615,o),
(124,597,c),
(199,575,l),
(197,540,o),
(192,477,o),
(173,357,cs),
(155,242,o),
(131,121,o),
(115,54,c),
(33,39,l),
(32,23,o),
(32,8,o),
(31,-8,c)
);
},
{
closed = 1;
nodes = (
(593,306,l),
(598,360,l),
(226,360,l),
(214,287,l)
);
}
);
};
hints = (
{
place = (147, 85);
place = (147, 85);
type = Stem;
},
{
place = (556, 86);
place = (556, 86);
type = Stem;
},
{
horizontal = 1;
place = (296, 63);
place = (296, 63);
type = Stem;
},
{
horizontal = 1;
place = (-9, 21);
target = up;
type = BottomGhost;
},
{
horizontal = 1;
place = (0, 21);
target = up;
type = BottomGhost;
},
{
horizontal = 1;
place = (649, -20);
target = down;
type = TopGhost;
},
{
horizontal = 1;
place = (640, -20);
target = down;
type = TopGhost;
}
);
layerId = UUID0;
shapes = (
{
closed = 1;
nodes = (
(110,-2,o),
(200,1,o),
(294,1,c),
(300,14,o),
(303,26,o),
(305,39,c),
(211,67,l),
(226,236,o),
(254,423,o),
(292,584,c),
(376,609,l),
(375,623,o),
(375,636,o),
(374,650,c),
(294,644,o),
(215,641,o),
(135,641,c),
(130,630,o),
(125,615,o),
(124,597,c),
(199,575,l),
(192,445,o),
(146,182,o),
(115,54,c),
(33,39,l),
(32,23,o),
(32,8,o),
(31,-8,c)
);
},
{
closed = 1;
nodes = (
(496,-2,o),
(586,1,o),
(680,1,c),
(686,14,o),
(689,26,o),
(691,39,c),
(597,67,l),
(612,236,o),
(640,423,o),
(678,584,c),
(762,609,l),
(761,623,o),
(761,636,o),
(760,650,c),
(680,644,o),
(601,641,o),
(521,641,c),
(516,630,o),
(511,615,o),
(510,597,c),
(585,575,l),
(578,445,o),
(532,182,o),
(501,54,c),
(419,39,l),
(416,23,o),
(416,8,o),
(417,-8,c)
);
},
{
closed = 1;
nodes = (
(593,306,l),
(598,360,l),
(226,360,l),
(214,287,l)
);
}
);
width = 767;
},
{
background = {
shapes = (
{
closed = 1;
nodes = (
(482,-3,o),
(582,-2,o),
(682,0,c),
(687,13,o),
(690,25,o),
(692,38,c),
(643,57,l),
(647,120,o),
(654,182,o),
(672,333,cs),
(681,402,o),
(699,538,o),
(713,613,c),
(763,622,l),
(765,636,o),
(765,651,o),
(763,665,c),
(664,663,o),
(564,662,o),
(464,660,c),
(459,647,o),
(457,635,o),
(455,622,c),
(494,602,l),
(487,472,o),
(450,185,o),
(425,49,c),
(384,38,l),
(382,24,o),
(381,9,o),
(383,-5,c)
);
},
{
closed = 1;
nodes = (
(121,-3,o),
(220,-2,o),
(320,0,c),
(325,13,o),
(328,25,o),
(330,38,c),
(291,57,l),
(300,189,o),
(337,464,o),
(361,613,c),
(402,622,l),
(403,636,o),
(403,651,o),
(401,665,c),
(302,663,o),
(203,662,o),
(104,660,c),
(98,647,o),
(96,635,o),
(94,622,c),
(141,602,l),
(136,513,o),
(123,393,o),
(110,290,cs),
(101,216,o),
(87,124,o),
(73,49,c),
(23,38,l),
(21,24,o),
(20,9,o),
(22,-5,c)
);
},
{
closed = 1;
nodes = (
(464,288,l),
(474,367,l),
(318,367,l),
(308,282,l)
);
}
);
};
layerId = "B4F86D1D-EB2F-477C-956E-3DDEB412089F";
shapes = (
{
closed = 1;
nodes = (
(121,-3,o),
(220,-2,o),
(320,0,c),
(325,13,o),
(328,25,o),
(330,38,c),
(291,57,l),
(300,189,o),
(337,464,o),
(361,613,c),
(402,622,l),
(403,636,o),
(403,651,o),
(401,665,c),
(302,663,o),
(203,662,o),
(104,660,c),
(98,647,o),
(96,635,o),
(94,622,c),
(141,602,l),
(133,457,o),
(100,196,o),
(73,49,c),
(23,38,l),
(21,24,o),
(20,9,o),
(22,-5,c)
);
},
{
closed = 1;
nodes = (
(482,-3,o),
(582,-2,o),
(682,0,c),
(687,13,o),
(690,25,o),
(692,38,c),
(643,57,l),
(650,171,o),
(692,499,o),
(713,613,c),
(763,622,l),
(765,636,o),
(765,651,o),
(763,665,c),
(664,663,o),
(564,662,o),
(464,660,c),
(459,647,o),
(457,635,o),
(455,622,c),
(494,602,l),
(487,472,o),
(450,185,o),
(425,49,c),
(384,38,l),
(382,24,o),
(381,9,o),
(383,-5,c)
);
},
{
closed = 1;
nodes = (
(464,288,l),
(474,367,l),
(318,367,l),
(308,282,l)
);
}
);
width = 758;
},
{
background = {
shapes = (
{
closed = 1;
nodes = (
(119,-1,o),
(187,2,o),
(266,0,c),
(267,4,o),
(269,10,o),
(270,14,c),
(157,18,l),
(165,86,o),
(181,237,o),
(193,321,c),
(565,326,l),
(552,226,o),
(539,113,o),
(525,18,c),
(407,8,l),
(406,4,o),
(407,-2,o),
(407,-6,c),
(487,-1,o),
(555,2,o),
(631,0,c),
(632,2,o),
(633,9,o),
(634,13,c),
(545,20,l),
(554,106,o),
(571,242,o),
(582,328,cs),
(591,411,o),
(606,532,o),
(618,621,c),
(713,633,l),
(714,639,o),
(713,644,o),
(713,646,c),
(636,641,o),
(568,638,o),
(489,640,c),
(488,636,o),
(486,630,o),
(486,626,c),
(600,621,l),
(592,548,o),
(580,422,o),
(567,342,c),
(195,342,l),
(206,433,o),
(222,547,o),
(234,622,c),
(346,632,l),
(347,636,o),
(347,642,o),
(346,646,c),
(266,641,o),
(198,638,o),
(123,640,c),
(122,638,o),
(120,633,o),
(119,627,c),
(213,621,l),
(204,534,o),
(186,409,o),
(177,330,cs),
(166,241,o),
(150,112,o),
(138,19,c),
(42,7,l),
(42,2,o),
(42,-4,o),
(43,-6,c)
);
}
);
};
layerId = "2F2E705F-35A9-412F-BB04-95DF071C0E1E";
shapes = (
{
closed = 1;
nodes = (
(115,-1,o),
(168,0,o),
(262,0,c),
(264,5,o),
(264,9,o),
(264,14,c),
(152,18,l),
(171,187,o),
(202,458,o),
(228,622,c),
(340,632,l),
(341,638,o),
(341,642,o),
(340,646,c),
(260,640,o),
(197,640,o),
(117,640,c),
(114,635,o),
(114,631,o),
(114,627,c),
(208,621,l),
(182,412,o),
(151,160,o),
(133,19,c),
(37,7,l),
(36,2,o),
(36,-1,o),
(36,-6,c)
);
},
{
closed = 1;
nodes = (
(494,-1,o),
(547,0,o),
(641,0,c),
(643,5,o),
(643,9,o),
(643,14,c),
(550,18,l),
(569,187,o),
(601,458,o),
(627,622,c),
(720,632,l),
(720,638,o),
(719,642,o),
(718,646,c),
(638,640,o),
(576,640,o),
(496,640,c),
(493,635,o),
(493,631,o),
(493,627,c),
(607,621,l),
(581,412,o),
(549,160,o),
(531,19,c),
(416,7,l),
(415,2,o),
(415,-1,o),
(415,-6,c)
);
},
{
closed = 1;
nodes = (
(574,327,l),
(576,341,l),
(186,341,l),
(183,322,l)
);
}
);
width = 734;
}
);
unicode = 72;
},
{
color = 3;
glyphname = Hbar;
kernLeft = H;
kernRight = H;
lastChange = "2022-12-16 16:12:24 +0000";
layers = (
{
layerId = UUID0;
shapes = (
{
closed = 1;
nodes = (
(265,447,o),
(573,447,o),
(719,447,c),
(729,499,l),
(718,510,l),
(617,502,o),
(272,496,o),
(123,496,c),
(113,445,l),
(117,436,l)
);
},
{
ref = H;
}
);
width = 767;
},
{
layerId = "B4F86D1D-EB2F-477C-956E-3DDEB412089F";
shapes = (
{
closed = 1;
nodes = (
(275,452,o),
(671,453,o),
(742,453,c),
(759,520,l),
(743,536,l),
(647,531,o),
(214,523,o),
(86,523,c),
(69,458,l),
(81,443,l)
);
},
{
ref = H;
}
);
width = 758;
},
{
layerId = "2F2E705F-35A9-412F-BB04-95DF071C0E1E";
shapes = (
{
closed = 1;
nodes = (
(236,468,o),
(663,466,o),
(699,464,c),
(703,471,l),
(698,483,l),
(504,482,o),
(310,482,o),
(116,483,c),
(112,476,l),
(117,468,l)
);
},
{
ref = H;
}
);
width = 734;
}
);
unicode = 294;
},
{
color = 4;
glyphname = I;
kernLeft = H;
kernRight = H;
lastChange = "2022-12-16 16:12:24 +0000";
layers = (
{
anchors = (
{
name = bottom;
pos = (174,0);
},
{
name = ogonek;
pos = (292,13);
},
{
name = top;
pos = (255,630);
},
{
name = topleft;
pos = (89,652);
}
);
background = {
shapes = (
{
closed = 1;
nodes = (
(226,235,o),
(254,422,o),
(292,583,c),
(313,591,o),
(348,602,o),
(376,608,c),
(374,649,l),
(294,643,o),
(215,640,o),
(135,640,c),
(130,629,o),
(125,614,o),
(124,596,c),
(199,574,l),
(197,539,o),
(192,476,o),
(173,356,cs),
(155,241,o),
(131,120,o),
(115,53,c),
(33,38,l),
(31,-9,l),
(110,-3,o),
(200,0,o),
(294,0,c),
(305,38,l),
(211,66,l)
);
}
);
};
hints = (
{
place = (146, 83);
place = (146, 83);
type = Stem;
},
{
horizontal = 1;
place = (-9, 21);
target = up;
type = BottomGhost;
},
{
horizontal = 1;
place = (0, 21);
target = up;
type = BottomGhost;
},
{
horizontal = 1;
place = (649, -20);
target = down;
type = TopGhost;
},
{
horizontal = 1;
place = (640, -20);
target = down;
type = TopGhost;
}
);
layerId = UUID0;
shapes = (
{
closed = 1;
nodes = (
(113,-3,o),
(200,0,o),
(294,0,c),
(300,13,o),
(303,25,o),
(305,38,c),
(211,66,l),
(226,235,o),
(254,422,o),
(292,583,c),
(376,608,l),
(376,622,o),
(376,635,o),
(374,649,c),
(294,643,o),
(215,640,o),
(135,640,c),
(130,629,o),
(125,614,o),
(124,596,c),
(199,574,l),
(192,444,o),
(146,181,o),
(115,53,c),
(33,38,l),
(33,22,o),
(33,7,o),
(34,-9,c)
);
}
);
width = 381;
},
{
anchors = (
{
name = bottom;
pos = (180,0);
},
{
name = ogonek;
pos = (311,0);
},
{
name = top;
pos = (253,660);
},
{
name = topleft;
pos = (72,660);
}
);
layerId = "B4F86D1D-EB2F-477C-956E-3DDEB412089F";
shapes = (
{
closed = 1;
nodes = (
(124,-3,o),
(227,-2,o),
(330,0,c),
(335,13,o),
(339,25,o),
(340,38,c),
(291,57,l),
(298,179,o),
(332,425,o),
(361,613,c),
(412,622,l),
(414,636,o),
(414,651,o),
(412,665,c),
(309,663,o),
(206,662,o),
(103,660,c),
(98,647,o),
(95,635,o),
(94,622,c),
(140,602,l),
(134,471,o),
(99,193,o),
(72,49,c),
(22,38,l),
(20,24,o),
(19,9,o),
(21,-5,c)
);
}
);
width = 407;
},
{
anchors = (
{
name = bottom;
pos = (130,0);
},
{
name = ogonek;
pos = (263,10);
},
{
name = top;
pos = (230,646);
},
{
name = topleft;
pos = (72,646);
}
);
layerId = "2F2E705F-35A9-412F-BB04-95DF071C0E1E";
shapes = (
{
closed = 1;
nodes = (
(115,-1,o),
(168,0,o),
(262,0,c),
(264,5,o),
(264,9,o),
(264,14,c),
(152,18,l),
(171,187,o),
(202,458,o),
(228,622,c),
(340,632,l),
(341,638,o),
(341,642,o),
(340,646,c),
(260,640,o),
(197,640,o),
(117,640,c),
(114,635,o),
(114,631,o),
(114,627,c),
(208,621,l),
(182,412,o),
(151,160,o),
(133,19,c),
(37,7,l),
(36,2,o),
(36,-1,o),
(36,-6,c)
);
}
);
width = 355;
}
);
metricLeft = H;
metricRight = H;
unicode = 73;
},
{
color = 4;
glyphname = J;
kernLeft = J;
kernRight = J;
lastChange = "2022-12-16 16:12:24 +0000";
layers = (
{
anchors = (
{
name = bottom;
pos = (148,0);
},
{
name = top;
pos = (228,652);
}
);
background = {
shapes = (
{
closed = 1;
nodes = (
(288,584,l),
(309,592,o),
(344,603,o),
(372,609,c),
(370,650,l),
(290,644,o),
(211,641,o),
(131,641,c),
(126,630,o),
(121,615,o),
(120,597,c),
(195,575,l)
);
},
{
closed = 1;
nodes = (
(-15,-107,l),
(8,-149,l),
(107,-98,o),
(171,-18,o),
(196,60,c),
(230,265,ls),
(252,398,o),
(274,516,o),
(290,592,c),
(195,575,l),
(192,508,o),
(175,382,o),
(161,292,cs),
(139,148,o),
(120,25,o),
(88,-26,c),
(66,-45,o),
(21,-78,o),
(-12,-96,c)
);
}
);
};
hints = (
{
place = (147, 93);
place = (147, 93);
type = Stem;
},
{
horizontal = 1;
place = (649, -20);
target = down;
type = TopGhost;
},
{
horizontal = 1;
place = (640, -20);
target = down;
type = TopGhost;
},
{
horizontal = 1;
place = (-212, 21);
target = up;
type = BottomGhost;
}
);
layerId = UUID0;
shapes = (
{
closed = 1;
nodes = (
(107,-98,o),
(171,-18,o),
(196,60,c),
(236,304,o),
(264,462,o),
(288,584,c),
(372,609,l),
(372,623,o),
(372,636,o),
(370,650,c),
(290,644,o),
(211,641,o),
(131,641,c),
(126,630,o),
(121,615,o),
(120,597,c),
(195,575,l),
(192,508,o),
(175,382,o),
(161,292,cs),
(139,148,o),
(120,25,o),
(88,-26,c),
(66,-45,o),
(21,-78,o),
(-12,-96,c),
(-13,-100,o),
(-14,-103,o),
(-15,-107,c),
(8,-149,l)
);
}
);
width = 352;
},
{
anchors = (
{
name = bottom;
pos = (154,0);
},
{
name = top;
pos = (235,660);
}
);
background = {
shapes = (
{
closed = 1;
nodes = (
(38,-141,o),
(100,-103,o),
(153,-63,cs),
(216,-15,o),
(267,35,o),
(269,57,cs),
(288,206,o),
(324,485,o),
(346,613,c),
(396,622,l),
(398,636,o),
(398,651,o),
(396,665,c),
(294,663,o),
(191,662,o),
(89,660,c),
(84,647,o),
(81,635,o),
(80,622,c),
(126,602,l),
(121,483,o),
(113,358,o),
(99,249,cs),
(92,189,o),
(83,134,o),
(72,90,cs),
(58,34,o),
(7,-52,o),
(-37,-110,c),
(-38,-115,o),
(-39,-119,o),
(-39,-124,c),
(-30,-135,o),
(-21,-147,o),
(-12,-158,c)
);
}
);
};
layerId = "B4F86D1D-EB2F-477C-956E-3DDEB412089F";
shapes = (
{
closed = 1;
nodes = (
(63,-133,o),
(264,4,o),
(269,57,cs),
(288,206,o),
(324,485,o),
(346,613,c),
(396,622,l),
(398,636,o),
(398,651,o),
(396,665,c),
(294,663,o),
(191,662,o),
(89,660,c),
(84,647,o),
(81,635,o),
(80,622,c),
(126,602,l),
(121,483,o),
(113,358,o),
(99,249,cs),
(92,189,o),
(83,134,o),
(72,90,cs),
(58,34,o),
(7,-52,o),
(-37,-110,c),
(-38,-115,o),
(-39,-119,o),
(-39,-124,c),
(-12,-158,l)
);
}
);
width = 366;
},
{
anchors = (
{
name = bottom;
pos = (128,0);
},
{
name = top;
pos = (208,646);
}
);
background = {
shapes = (
{
closed = 1;
nodes = (
(24,-178,o),
(57,-168,o),
(85,-128,cs),
(98,-110,o),
(122,-65,o),
(128,-40,c),
(151,150,o),
(195,498,o),
(214,619,c),
(318,631,l),
(319,637,o),
(318,644,o),
(318,646,c),
(234,641,o),
(159,638,o),
(72,640,c),
(70,636,o),
(68,629,o),
(67,625,c),
(191,617,l),
(183,531,o),
(165,409,o),
(156,330,cs),
(141,204,o),
(121,46,o),
(112,-22,cs),
(103,-81,o),
(63,-134,o),
(49,-145,c),
(5,-164,o),
(-27,-163,o),
(-43,-163,c),
(-44,-164,o),
(-46,-168,o),
(-47,-170,c),
(-46,-174,o),
(-45,-176,o),
(-43,-180,c)
);
}
);
};
layerId = "2F2E705F-35A9-412F-BB04-95DF071C0E1E";
shapes = (
{
closed = 1;
nodes = (
(80,-106,o),
(124,-48,o),
(134,9,c),
(157,199,o),
(195,498,o),
(214,619,c),
(318,631,l),
(319,637,o),
(318,644,o),
(318,646,c),
(234,641,o),
(159,638,o),
(72,640,c),
(70,636,o),
(68,629,o),
(67,625,c),
(191,617,l),
(183,531,o),
(165,409,o),
(156,330,cs),
(141,204,o),
(123,69,o),
(113,0,cs),
(108,-33,o),
(63,-100,o),
(18,-141,c),
(18,-142,o),
(17,-144,o),
(17,-145,c),
(28,-156,l)
);
}
);
width = 307;
}
);
metricRight = "=H-25";
unicode = 74;
},
{
color = 4;
glyphname = K;
kernLeft = H;
kernRight = K;
lastChange = "2022-12-16 16:12:24 +0000";
layers = (
{
anchors = (
{
name = bottom;
pos = (309,0);
},
{
name = top;
pos = (429,652);
}
);
background = {
shapes = (
{
closed = 1;
nodes = (
(294,644,o),
(215,641,o),
(135,641,c),
(130,630,o),
(125,615,o),
(124,597,c),
(199,575,l),
(197,540,o),
(192,477,o),
(173,357,cs),
(155,242,o),
(131,121,o),
(115,54,c),
(33,39,l),
(31,-8,l),
(110,-2,o),
(200,1,o),
(294,1,c),
(305,39,l),
(211,67,l),
(216,125,o),
(225,214,o),
(237,295,c),
(258,294,o),
(289,294,o),
(312,294,c),
(363,307,l),
(568,584,l),
(597,595,o),
(627,603,o),
(656,609,c),
(656,649,l),
(599,645,o),
(552,642,o),
(515,640,c),
(437,517,o),
(359,400,o),
(321,349,c),
(296,346,o),
(270,346,o),
(245,346,c),
(260,433,o),
(278,524,o),
(292,584,c),
(313,592,o),
(348,603,o),
(376,609,c),
(374,650,l)
);
},
{
closed = 1;
nodes = (
(384,96,o),
(454,-11,o),
(558,-45,c),
(587,-8,l),
(518,52,l),
(463,133,o),
(403,256,o),
(374,322,c),
(300,295,l)
);
}
);
};
hints = (
{
place = (151, 85);
place = (151, 85);
type = Stem;
},
{
horizontal = 1;
place = (0, 21);
target = up;
type = BottomGhost;
},
{
horizontal = 1;
place = (-12, 21);
target = up;
type = BottomGhost;
},
{
horizontal = 1;
place = (649, -20);
target = down;
type = TopGhost;
},
{
horizontal = 1;
place = (640, -20);
target = down;
type = TopGhost;
}
);
layerId = UUID0;
shapes = (
{
closed = 1;
nodes = (
(579,-18,l),
(579,-10,l),
(524,34,o),
(478,84,o),
(374,322,c),
(439,409,o),
(503,497,o),
(568,584,c),
(597,595,o),
(627,603,o),
(656,609,c),
(656,622,o),
(656,636,o),
(656,649,c),
(599,645,o),
(552,642,o),
(515,640,c),
(437,517,o),
(359,400,o),
(321,349,c),
(296,346,o),
(270,346,o),
(245,346,c),
(260,433,o),
(278,524,o),
(292,584,c),
(313,592,o),
(348,603,o),
(376,609,c),
(375,623,o),
(375,636,o),
(374,650,c),
(294,644,o),
(215,641,o),
(135,641,c),
(130,630,o),
(125,615,o),
(124,597,c),
(199,575,l),
(192,445,o),
(146,182,o),
(115,54,c),
(33,39,l),
(32,23,o),
(32,8,o),
(31,-8,c),
(110,-2,o),
(200,1,o),
(294,1,c),
(298,14,o),
(301,26,o),
(305,39,c),
(211,67,l),
(216,125,o),
(225,214,o),
(237,295,c),
(255,294,o),
(279,294,o),
(300,294,c),
(339,201,o),
(376,128,o),
(414,74,cs),
(457,12,o),
(503,-34,o),
(558,-45,c)
);
}
);
width = 556;
},
{
anchors = (
{
name = bottom;
pos = (364,0);
},
{
name = top;
pos = (423,660);
}
);
background = {
shapes = (
{
closed = 1;
nodes = (
(675,-25,l),
(675,-16,l),
(625,61,o),
(526,266,o),
(479,394,c),
(527,462,o),
(594,547,o),
(652,614,c),
(668,618,o),
(685,622,o),
(701,625,c),
(703,640,o),
(702,655,o),
(700,670,c),
(637,667,o),
(574,663,o),
(510,660,c),
(479,567,o),
(414,423,o),
(373,349,c),
(357,344,o),
(340,342,o),
(321,341,c),
(330,412,o),
(349,540,o),
(361,613,c),
(374,616,o),
(388,619,o),
(401,622,c),
(403,636,o),
(403,651,o),
(401,665,c),
(302,663,o),
(203,662,o),
(103,660,c),
(98,647,o),
(96,635,o),
(94,622,c),
(141,602,l),
(132,449,o),
(103,224,o),
(73,49,c),
(22,38,l),
(21,24,o),
(20,9,o),
(22,-5,c),
(121,-3,o),
(220,-2,o),
(319,0,c),
(325,13,o),
(328,25,o),
(330,38,c),
(291,57,l),
(295,116,o),
(301,176,o),
(311,259,c),
(331,265,o),
(350,273,o),
(369,282,c),
(378,226,o),
(387,123,o),
(396,55,cs),
(403,1,o),
(575,-38,o),
(650,-56,c)
);
}
);
};
layerId = "B4F86D1D-EB2F-477C-956E-3DDEB412089F";
shapes = (
{
closed = 1;
nodes = (
(675,-25,l),
(675,-16,l),
(641,33,o),
(565,226,o),
(449,359,c),
(497,427,o),
(594,547,o),
(652,614,c),
(668,618,o),
(685,622,o),
(701,625,c),
(703,640,o),
(702,655,o),
(700,670,c),
(637,667,o),
(574,663,o),
(510,660,c),
(479,567,o),
(432,448,o),
(391,374,c),
(375,369,o),
(343,367,o),
(324,366,c),
(333,437,o),
(349,540,o),
(361,613,c),
(374,616,o),
(388,619,o),
(401,622,c),
(403,636,o),
(403,651,o),
(401,665,c),
(302,663,o),
(203,662,o),
(103,660,c),
(98,647,o),
(96,635,o),
(94,622,c),
(141,602,l),
(132,449,o),
(103,224,o),
(73,49,c),
(22,38,l),
(21,24,o),
(20,9,o),
(22,-5,c),
(121,-3,o),
(220,-2,o),
(319,0,c),
(325,13,o),
(328,25,o),
(330,38,c),
(291,57,l),
(295,116,o),
(304,204,o),
(314,287,c),
(334,293,o),
(347,297,o),
(366,303,c),
(375,247,o),
(389,102,o),
(398,34,cs),
(405,-20,o),
(575,-44,o),
(650,-56,c)
);
}
);
width = 601;
},
{
anchors = (
{
name = bottom;
pos = (296,0);
},
{
name = top;
pos = (376,646);
}
);
background = {
shapes = (
{
closed = 1;
nodes = (
(302,345,l),
(375,437,o),
(447,530,o),
(527,622,c),
(621,632,l),
(622,637,o),
(622,645,o),
(621,647,c),
(587,645,o),
(553,643,o),
(518,641,c),
(486,600,o),
(345,421,o),
(286,353,c),
(265,353,o),
(212,353,o),
(191,353,c),
(203,449,o),
(216,554,o),
(228,622,c),
(340,632,l),
(341,638,o),
(341,642,o),
(340,646,c),
(260,640,o),
(197,640,o),
(117,640,c),
(114,635,o),
(114,631,o),
(114,627,c),
(208,621,l),
(182,412,o),
(152,158,o),
(133,19,c),
(37,7,l),
(36,2,o),
(36,-1,o),
(36,-6,c),
(120,-1,o),
(175,2,o),
(262,0,c),
(264,5,o),
(264,9,o),
(264,14,c),
(152,18,l),
(158,80,o),
(181,273,o),
(189,335,c),
(210,335,o),
(263,335,o),
(284,335,c)
);
},
{
closed = 1;
nodes = (
(520,-18,l),
(520,-9,l),
(440,42,o),
(385,157,o),
(298,348,c),
(281,345,l),
(326,253,o),
(383,117,o),
(420,66,cs),
(464,6,o),
(497,-19,o),
(516,-23,c)
);
}
);
};
layerId = "2F2E705F-35A9-412F-BB04-95DF071C0E1E";
shapes = (
{
closed = 1;
nodes = (
(520,-18,l),
(521,-9,l),
(441,44,o),
(379,155,o),
(300,343,c),
(373,434,o),
(448,531,o),
(527,622,c),
(558,625,o),
(590,629,o),
(621,632,c),
(622,637,o),
(622,645,o),
(621,647,c),
(587,645,o),
(552,643,o),
(518,641,c),
(486,600,o),
(345,421,o),
(286,353,c),
(254,352,o),
(223,352,o),
(191,353,c),
(203,449,o),
(216,554,o),
(228,622,c),
(265,625,o),
(303,629,o),
(340,632,c),
(341,638,o),
(341,642,o),
(340,646,c),
(260,640,o),
(197,640,o),
(117,640,c),
(114,635,o),
(114,631,o),
(114,627,c),
(208,621,l),
(182,412,o),
(152,158,o),
(133,19,c),
(37,7,l),
(36,2,o),
(36,-1,o),
(36,-6,c),
(120,-1,o),
(175,2,o),
(262,0,c),
(264,5,o),
(264,9,o),
(264,14,c),
(152,18,l),
(158,80,o),
(181,273,o),
(189,335,c),
(221,336,o),
(254,336,o),
(286,335,c),
(304,293,o),
(339,210,o),
(381,134,cs),
(421,61,o),
(466,1,o),
(515,-23,c)
);
}
);
width = 561;
}
);
metricLeft = H;
unicode = 75;
},
{
color = 4;
glyphname = L;
kernLeft = H;
kernRight = L;
lastChange = "2022-12-16 16:12:24 +0000";
layers = (
{
anchors = (
{
name = bottom;
pos = (258,0);
},
{
name = center;
pos = (273,326);
},
{
name = top;
pos = (312,652);
},
{
name = topright;
pos = (422,450);
}
);
background = {
shapes = (
{
closed = 1;
nodes = (
(70,-6,o),
(165,0,o),
(258,0,cs),
(371,0,o),
(457,-3,o),
(479,-5,c),
(515,170,l),
(504,175,o),
(487,178,o),
(471,178,c),
(425,74,l),
(376,64,o),
(293,57,o),
(211,57,c),
(215,134,o),
(231,272,o),
(249,369,cs),
(271,489,o),
(284,546,o),
(295,585,c),
(316,591,o),
(360,602,o),
(383,606,c),
(381,650,l),
(301,644,o),
(212,641,o),
(132,641,c),
(127,630,o),
(122,615,o),
(121,597,c),
(124,596,l),
(199,574,l),
(197,539,o),
(192,476,o),
(173,356,cs),
(155,241,o),
(131,121,o),
(115,54,c),
(33,38,l),
(31,-9,l)
);
}
);
};
hints = (
{
place = (158, 83);
place = (158, 83);
type = Stem;
},
{
horizontal = 1;
place = (0, 57);
place = (0, 57);
type = Stem;
},
{
horizontal = 1;
place = (649, -20);
target = down;
type = TopGhost;
},
{
horizontal = 1;
place = (640, -20);
target = down;
type = TopGhost;
},
{
horizontal = 1;
place = (-9, 21);
target = up;
type = BottomGhost;
}
);
layerId = UUID0;
shapes = (
{
closed = 1;
nodes = (
(70,-6,o),
(165,0,o),
(258,0,cs),
(371,0,o),
(457,-3,o),
(479,-5,c),
(515,170,l),
(504,175,o),
(487,178,o),
(471,178,c),
(425,74,l),
(376,64,o),
(293,57,o),
(211,57,c),
(218,196,o),
(258,452,o),
(295,585,c),
(316,591,o),
(360,602,o),
(383,606,c),
(382,621,o),
(382,635,o),
(381,650,c),
(301,644,o),
(212,641,o),
(132,641,c),
(127,630,o),
(122,615,o),
(121,597,c),
(199,574,l),
(192,443,o),
(146,183,o),
(115,54,c),
(33,38,l),
(32,22,o),
(32,7,o),
(31,-9,c)
);
}
);
width = 522;
},
{
anchors = (
{
name = bottom;
pos = (289,0);
},
{
name = center;
pos = (316,330);
},
{
name = top;
pos = (258,660);
},
{
name = topright;
pos = (464,470);
}
);
layerId = "B4F86D1D-EB2F-477C-956E-3DDEB412089F";
shapes = (
{
closed = 1;
nodes = (
(118,-3,o),
(216,-2,o),
(312,0,cs),
(380,-1,o),
(460,-2,o),
(513,-5,c),
(558,256,l),
(522,264,o),
(486,270,o),
(450,272,c),
(391,75,l),
(369,69,o),
(319,66,o),
(291,66,c),
(305,223,o),
(336,452,o),
(361,613,c),
(378,616,o),
(395,619,o),
(412,622,c),
(413,636,o),
(413,651,o),
(411,665,c),
(308,663,o),
(206,662,o),
(104,660,c),
(98,647,o),
(96,635,o),
(94,622,c),
(141,602,l),
(133,457,o),
(100,196,o),
(73,49,c),
(23,38,l),
(21,24,o),
(20,9,o),
(22,-5,c)
);
}
);
width = 608;
},
{
anchors = (
{
name = bottom;
pos = (252,0);
},
{
name = center;
pos = (292,323);
},
{
name = top;
pos = (302,652);
},
{
name = topright;
pos = (422,450);
}
);
layerId = "2F2E705F-35A9-412F-BB04-95DF071C0E1E";
shapes = (
{
closed = 1;
nodes = (
(136,1,o),
(166,0,o),
(284,0,cs),
(338,0,o),
(416,-2,o),
(492,-3,c),
(523,190,l),
(521,191,o),
(513,193,o),
(510,193,c),
(476,20,l),
(422,14,o),
(194,16,o),
(154,18,c),
(172,189,o),
(205,463,o),
(231,622,c),
(268,625,o),
(305,629,o),
(342,632,c),
(343,638,o),
(343,644,o),
(342,646,c),
(258,641,o),
(206,638,o),
(119,640,c),
(118,636,o),
(116,631,o),
(116,627,c),
(210,621,l),
(202,538,o),
(148,126,o),
(135,18,c),
(37,9,l),
(36,3,o),
(38,-4,o),
(39,-6,c)
);
}
);
width = 559;
}
);
metricLeft = H;
unicode = 76;
},
{
color = 3;
glyphname = Lslash;
kernLeft = H;
kernRight = L;
lastChange = "2022-12-16 16:12:24 +0000";
layers = (
{
layerId = UUID0;
shapes = (
{
closed = 1;
nodes = (
(102,252,o),
(148,273,o),
(194,294,c),
(203,298,l),
(287,335,o),
(375,372,o),
(432,396,c),
(432,451,l),
(415,456,l),
(389,443,o),
(289,398,o),
(198,359,c),
(192,356,l),
(133,330,o),
(78,306,o),
(50,294,c),
(54,240,l),
(63,234,l)
);
},
{
ref = L;
}
);
width = 522;
},
{
layerId = "B4F86D1D-EB2F-477C-956E-3DDEB412089F";
shapes = (
{
closed = 1;
nodes = (
(114,269,o),
(171,296,o),
(229,322,c),
(227,302,l),
(308,339,o),
(389,375,o),
(470,412,c),
(452,490,l),
(437,497,l),
(371,468,o),
(305,439,o),
(240,410,c),
(242,430,l),
(168,397,o),
(94,364,o),
(20,331,c),
(42,248,l),
(55,243,l)
);
},
{
ref = L;
}
);
width = 608;
},
{
background = {
shapes = (
{
closed = 1;
nodes = (
(102,276,o),
(148,297,o),
(194,318,c),
(203,322,l),
(287,359,o),
(375,396,o),
(432,420,c),
(432,451,l),
(415,456,l),
(389,443,o),
(289,398,o),
(198,359,c),
(192,356,l),
(133,330,o),
(78,306,o),
(50,294,c),
(54,264,l),
(63,258,l)
);
}
);
};
layerId = "2F2E705F-35A9-412F-BB04-95DF071C0E1E";
shapes = (
{
closed = 1;
nodes = (
(102,263,o),
(142,281,o),
(181,298,c),
(187,301,l),
(271,339,o),
(350,374,o),
(424,407,c),
(425,415,l),
(416,422,l),
(325,379,o),
(270,355,o),
(187,318,c),
(183,316,l),
(147,300,o),
(106,281,o),
(54,258,c),
(53,250,l),
(61,244,l)
);
},
{
ref = L;
}
);
width = 559;
}
);
unicode = 321;
},
{
color = 4;
glyphname = M;
kernLeft = H;
kernRight = H;
lastChange = "2022-12-16 16:14:38 +0000";
layers = (
{
background = {
shapes = (
{
closed = 1;
nodes = (
(674,551,l),
(673,523,o),
(661,415,o),
(648,305,cs),
(618,49,l),
(555,34,l),
(553,-7,l),
(601,-4,o),
(719,0,o),
(787,0,c),
(790,8,o),
(794,22,o),
(796,38,c),
(711,68,l),
(711,245,o),
(733,406,o),
(763,583,c),
(834,605,l),
(836,649,l),
(808,645,o),
(722,640,o),
(656,640,c),
(637,589,o),
(501,304,o),
(411,129,c),
(390,283,o),
(373,457,o),
(355,649,c),
(320,646,o),
(224,642,o),
(151,640,c),
(148,633,o),
(145,615,o),
(143,599,c),
(220,582,l),
(185,419,o),
(141,253,o),
(85,54,c),
(3,39,l),
(1,-8,l),
(35,-6,o),
(166,0,o),
(236,0,c),
(240,10,o),
(243,25,o),
(245,38,c),
(165,67,l),
(196,236,o),
(245,422,o),
(286,577,c),
(355,0,l),
(368,0,o),
(409,7,o),
(424,17,c),
(420,43,l)
);
}
);
};
hints = (
{
place = (135, 64);
place = (135, 64);
type = Stem;
},
{
place = (678, 84);
place = (678, 84);
type = Stem;
},
{
horizontal = 1;
place = (0, 21);
target = up;
type = BottomGhost;
},
{
horizontal = 1;
place = (652, -20);
target = down;
type = TopGhost;
},
{
horizontal = 1;
place = (640, -20);
target = down;
type = TopGhost;
},
{
horizontal = 1;
place = (-12, 21);
target = up;
type = BottomGhost;
}
);
layerId = UUID0;
shapes = (
{
closed = 1;
nodes = (
(35,-6,o),
(166,0,o),
(236,0,c),
(240,10,o),
(243,25,o),
(245,38,c),
(165,67,l),
(196,236,o),
(245,422,o),
(286,577,c),
(355,0,l),
(368,0,o),
(409,7,o),
(424,17,c),
(420,43,l),
(674,551,l),
(673,523,o),
(661,411,o),
(618,49,c),
(555,34,l),
(554,20,o),
(554,7,o),
(553,-7,c),
(601,-4,o),
(719,0,o),
(787,0,c),
(790,8,o),
(794,22,o),
(796,38,c),
(711,68,l),
(711,245,o),
(733,406,o),
(763,583,c),
(834,605,l),
(835,620,o),
(835,634,o),
(836,649,c),
(808,645,o),
(722,640,o),
(656,640,c),
(637,589,o),
(501,304,o),
(411,129,c),
(390,283,o),
(373,457,o),
(355,649,c),
(320,646,o),
(224,642,o),
(151,640,c),
(148,633,o),
(145,615,o),
(143,599,c),
(220,582,l),
(185,419,o),
(141,253,o),
(85,54,c),
(3,39,l),
(2,23,o),
(2,8,o),
(1,-8,c)
);
}
);
width = 851;
},
{
layerId = "B4F86D1D-EB2F-477C-956E-3DDEB412089F";
shapes = (
{
closed = 1;
nodes = (
(52,-6,o),
(113,-3,o),
(173,0,c),
(178,13,o),
(181,25,o),
(182,38,c),
(134,57,l),
(140,155,o),
(146,217,o),
(180,509,c),
(248,-4,l),
(299,1,o),
(355,9,o),
(403,22,c),
(407,54,l),
(579,509,l),
(566,382,o),
(541,181,o),
(524,49,c),
(469,38,l),
(467,22,o),
(467,7,o),
(469,-9,c),
(569,-6,o),
(667,-3,o),
(767,0,c),
(772,13,o),
(774,27,o),
(776,40,c),
(727,49,l),
(731,99,o),
(767,538,o),
(771,605,c),
(824,627,l),
(827,642,o),
(827,657,o),
(826,672,c),
(737,668,o),
(648,664,o),
(559,660,c),
(491,472,o),
(455,371,o),
(414,255,c),
(395,409,o),
(378,542,o),
(362,669,c),
(272,666,o),
(181,663,o),
(90,660,c),
(85,647,o),
(83,635,o),
(81,622,c),
(127,600,l),
(102,395,o),
(77,206,o),
(42,49,c),
(-8,38,l),
(-10,22,o),
(-10,7,o),
(-8,-9,c)
);
}
);
width = 822;
},
{
layerId = "2F2E705F-35A9-412F-BB04-95DF071C0E1E";
shapes = (
{
closed = 1;
nodes = (
(90,-1,o),
(145,0,o),
(232,0,c),
(234,5,o),
(234,9,o),
(234,14,c),
(123,18,l),
(149,191,o),
(199,449,o),
(235,622,c),
(380,-4,l),
(385,-4,o),
(390,-3,o),
(393,-2,c),
(396,9,l),
(710,621,l),
(704,535,o),
(662,112,o),
(652,19,c),
(537,9,l),
(537,3,o),
(538,-4,o),
(539,-6,c),
(623,-1,o),
(675,0,o),
(762,0,c),
(763,4,o),
(764,11,o),
(764,15,c),
(673,18,l),
(685,176,o),
(712,483,o),
(730,622,c),
(823,632,l),
(823,638,o),
(822,644,o),
(821,646,c),
(737,641,o),
(729,641,o),
(700,640,c),
(607,452,o),
(439,127,o),
(390,34,c),
(365,140,o),
(279,512,o),
(249,641,c),
(233,640,o),
(199,640,o),
(122,640,c),
(120,636,o),
(119,629,o),
(119,625,c),
(213,621,l),
(201,538,o),
(134,187,o),
(103,19,c),
(7,7,l),
(6,1,o),
(6,-2,o),
(6,-6,c)
);
}
);
width = 834;
}
);
metricLeft = "=H-30";
metricRight = "=H-20";
unicode = 77;
},
{
color = 4;
glyphname = N;
kernLeft = H;
kernRight = N;
lastChange = "2022-12-16 16:15:27 +0000";
layers = (
{
anchors = (
{
name = bottom;
pos = (356,0);
},
{
name = top;
pos = (447,630);
}
);
background = {
shapes = (
{
closed = 1;
nodes = (
(681,580,l),
(753,602,l),
(753,648,l),
(677,642,o),
(600,640,o),
(524,640,c),
(519,627,o),
(516,615,o),
(515,602,c),
(604,568,l)
);
},
{
closed = 1;
nodes = (
(119,59,l),
(33,38,l),
(33,-9,l),
(113,-3,o),
(192,0,o),
(272,0,c),
(278,13,o),
(281,25,o),
(281,38,c),
(264,45,l),
(194,72,l)
);
},
{
closed = 1;
nodes = (
(187,36,l),
(209,127,o),
(227,287,o),
(252,525,cs),
(252,526,l),
(356,326,o),
(485,77,o),
(519,-19,c),
(527,-19,o),
(566,1,o),
(585,15,c),
(580,64,l),
(585,117,o),
(599,208,o),
(610,277,cs),
(632,412,o),
(660,537,o),
(697,615,c),
(614,608,l),
(576,483,o),
(541,225,o),
(533,159,c),
(445,321,o),
(374,454,o),
(297,648,c),
(243,643,o),
(183,640,o),
(126,640,c),
(121,629,o),
(116,614,o),
(115,596,c),
(190,575,l),
(177,344,o),
(160,151,o),
(96,26,c)
);
}
);
};
hints = (
{
place = (137, 63);
place = (137, 63);
type = Stem;
},
{
place = (561, 63);
place = (561, 63);
type = Stem;
},
{
horizontal = 1;
place = (-19, 21);
target = up;
type = BottomGhost;
},
{
horizontal = 1;
place = (649, -20);
target = down;
type = TopGhost;
},
{
horizontal = 1;
place = (640, -20);
target = down;
type = TopGhost;
},
{
horizontal = 1;
place = (0, 21);
target = up;
type = BottomGhost;
}
);
layerId = UUID0;
shapes = (
{
closed = 1;
nodes = (
(527,-19,o),
(566,1,o),
(585,15,c),
(580,64,l),
(594,207,o),
(638,468,o),
(682,580,c),
(753,602,l),
(753,617,o),
(753,633,o),
(753,648,c),
(677,642,o),
(600,640,o),
(524,640,c),
(519,627,o),
(516,615,o),
(515,602,c),
(603,568,l),
(569,435,o),
(540,219,o),
(533,159,c),
(445,321,o),
(374,454,o),
(297,648,c),
(243,643,o),
(183,640,o),
(126,640,c),
(121,629,o),
(116,614,o),
(115,596,c),
(190,575,l),
(178,362,o),
(163,182,o),
(110,57,c),
(33,38,l),
(33,22,o),
(33,7,o),
(34,-9,c),
(114,-3,o),
(192,0,o),
(272,0,c),
(278,13,o),
(281,25,o),
(281,38,c),
(195,72,l),
(213,166,o),
(230,316,o),
(252,526,c),
(346,344,o),
(440,163,o),
(519,-19,c)
);
}
);
width = 739;
},
{
associatedMasterId = UUID0;
background = {
shapes = (
{
closed = 1;
nodes = (
(537,-19,o),
(579,1,o),
(597,15,c),
(592,64,l),
(596,121,o),
(606,208,o),
(615,277,cs),
(628,382,o),
(646,492,o),
(667,580,c),
(737,602,l),
(737,649,l),
(737,649,o),
(645,640,o),
(508,640,cs),
(508,640,o),
(502,625,o),
(499,602,c),
(585,568,l),
(579,488,o),
(571,409,o),
(561,329,cs),
(555,276,o),
(545,210,o),
(538,156,c),
(450,323,o),
(376,455,o),
(292,649,c),
(292,649,o),
(186,640,o),
(111,640,cs),
(111,640,o),
(106,625,o),
(103,602,c),
(179,582,l),
(177,551,o),
(164,379,o),
(154,295,cs),
(140,177,o),
(126,101,o),
(118,59,c),
(32,38,l),
(32,-9,l),
(32,-9,o),
(133,0,o),
(271,0,cs),
(271,0,o),
(278,15,o),
(280,38,c),
(193,72,l),
(205,183,o),
(226,390,o),
(242,526,c),
(343,326,o),
(490,77,o),
(528,-19,c),
(528,-19,l)
);
}
);
};
hints = (
{
place = (137, 63);
place = (137, 63);
type = Stem;
},
{
place = (561, 63);
place = (561, 63);
type = Stem;
},
{
horizontal = 1;
place = (-19, 21);
target = up;
type = BottomGhost;
},
{
horizontal = 1;
place = (649, -20);
target = down;
type = TopGhost;
},
{
horizontal = 1;
place = (640, -20);
target = down;
type = TopGhost;
},
{
horizontal = 1;
place = (0, 21);
target = up;
type = BottomGhost;
}
);
layerId = "59A9DC50-F721-4C23-947D-4C89D04487C4";
name = "Oct 27 19, 20:27";
shapes = (
{
closed = 1;
nodes = (
(290,646,l),
(271,645,o),
(252,644,o),
(233,643,cs),
(197,641,o),
(160,641,o),
(124,641,c),
(119,630,o),
(114,615,o),
(113,597,c),
(188,575,l),
(186,540,o),
(181,477,o),
(162,357,cs),
(144,242,o),
(120,121,o),
(104,54,c),
(22,39,l),
(20,-8,l),
(58,-5,o),
(98,-3,o),
(139,-1,cs),
(183,1,o),
(227,1,o),
(272,1,c),
(283,39,l),
(189,67,l),
(204,236,o),
(227,390,o),
(249,526,c),
(259,530,o),
(293,592,o),
(307,597,c)
);
},
{
closed = 1;
nodes = (
(583,62,l),
(598,231,o),
(633,423,o),
(671,584,c),
(692,592,o),
(727,603,o),
(755,609,c),
(753,650,l),
(710,647,o),
(668,644,o),
(626,643,cs),
(593,642,o),
(560,641,o),
(528,641,c),
(523,630,o),
(518,615,o),
(517,597,c),
(592,575,l),
(590,540,o),
(585,477,o),
(566,357,cs),
(554,283,o),
(544,220,o),
(532,157,c),
(545,-2,l)
);
},
{
closed = 1;
nodes = (
(562,333,l),
(561,332,o),
(561,330,o),
(561,329,cs),
(554,276,o),
(541,210,o),
(532,156,c),
(450,323,o),
(381,455,o),
(304,649,c),
(304,649,o),
(274,646,o),
(234,644,c),
(249,525,l),
(249,526,o),
(249,526,o),
(249,526,c),
(343,326,o),
(482,77,o),
(516,-19,c),
(516,-19,l),
(525,-19,o),
(568,1,o),
(587,15,c),
(583,64,l),
(589,121,o),
(602,208,o),
(614,277,cs),
(614,278,o),
(614,278,o),
(614,279,c)
);
},
{
closed = 1;
nodes = (
(139,241,o),
(125,112,o),
(89,0,c),
(64,-3,o),
(29,4,o),
(13,7,c),
(10,2,o),
(7,-7,o),
(4,-13,c),
(22,-38,o),
(59,-81,o),
(74,-95,c),
(98,-88,o),
(130,-66,o),
(150,-44,c),
(178,57,o),
(207,226,o),
(185,388,c),
(147,337,l)
);
}
);
width = 745;
},
{
anchors = (
{
name = bottom;
pos = (369,0);
},
{
name = top;
pos = (452,660);
}
);
background = {
shapes = (
{
closed = 1;
nodes = (
(457,-22,o),
(606,8,o),
(613,15,c),
(618,65,l),
(622,118,o),
(630,187,o),
(634,222,cs),
(650,350,o),
(675,474,o),
(707,606,c),
(760,618,l),
(762,634,o),
(762,649,o),
(760,665,c),
(695,663,o),
(628,662,o),
(562,660,c),
(557,648,o),
(554,636,o),
(553,624,c),
(601,605,l),
(597,525,o),
(590,444,o),
(581,364,cs),
(575,318,o),
(569,272,o),
(564,226,c),
(514,328,o),
(405,547,o),
(369,665,c),
(281,663,o),
(195,662,o),
(107,660,c),
(102,647,o),
(99,635,o),
(98,622,c),
(146,603,l),
(142,536,o),
(129,413,o),
(113,296,cs),
(100,197,o),
(87,103,o),
(77,54,c),
(22,42,l),
(20,26,o),
(20,11,o),
(22,-5,c),
(89,-3,o),
(156,-2,o),
(223,0,c),
(228,13,o),
(231,25,o),
(232,38,c),
(180,57,l),
(183,121,o),
(189,292,o),
(210,465,c),
(282,303,o),
(353,140,o),
(425,-22,c)
);
}
);
};
layerId = "B4F86D1D-EB2F-477C-956E-3DDEB412089F";
shapes = (
{
closed = 1;
nodes = (
(457,-22,o),
(606,8,o),
(613,15,c),
(618,65,l),
(631,242,o),
(662,419,o),
(707,606,c),
(760,618,l),
(762,634,o),
(762,649,o),
(760,665,c),
(695,663,o),
(628,662,o),
(562,660,c),
(557,648,o),
(554,636,o),
(553,624,c),
(601,605,l),
(599,527,o),
(585,394,o),
(564,226,c),
(514,328,o),
(405,547,o),
(369,665,c),
(281,663,o),
(195,662,o),
(107,660,c),
(102,647,o),
(99,635,o),
(98,622,c),
(146,603,l),
(140,495,o),
(97,153,o),
(77,54,c),
(22,42,l),
(20,26,o),
(20,11,o),
(22,-5,c),
(89,-3,o),
(156,-2,o),
(223,0,c),
(228,13,o),
(231,25,o),
(232,38,c),
(180,57,l),
(183,121,o),
(189,292,o),
(210,465,c),
(282,303,o),
(353,140,o),
(425,-22,c)
);
}
);
width = 735;
},
{
anchors = (
{
name = bottom;
pos = (328,0);
},
{
name = top;
pos = (408,646);
}
);
layerId = "2F2E705F-35A9-412F-BB04-95DF071C0E1E";
shapes = (
{
closed = 1;
nodes = (
(536,-5,o),
(541,-4,o),
(546,-1,c),
(546,5,l),
(568,197,o),
(596,429,o),
(627,622,c),
(718,633,l),
(718,637,o),
(718,642,o),
(716,646,c),
(632,641,o),
(584,640,o),
(497,640,c),
(495,636,o),
(494,631,o),
(494,627,c),
(606,620,l),
(600,561,o),
(543,111,o),
(532,23,c),
(477,139,o),
(272,563,o),
(231,644,c),
(200,641,o),
(155,640,o),
(117,640,c),
(115,637,o),
(114,631,o),
(114,627,c),
(209,622,l),
(201,539,o),
(146,114,o),
(134,18,c),
(38,8,l),
(38,2,o),
(39,-4,o),
(40,-6,c),
(124,-1,o),
(176,0,o),
(263,0,c),
(264,4,o),
(265,10,o),
(265,14,c),
(153,20,l),
(188,319,o),
(203,469,o),
(227,614,c),
(333,409,o),
(429,194,o),
(530,-6,c)
);
}
);
width = 712;
}
);
metricLeft = H;
metricRight = "=H-20";
unicode = 78;
},
{
color = 4;
glyphname = Nhookleft;
kernLeft = H;
kernRight = N;
lastChange = "2022-12-16 16:15:27 +0000";
layers = (
{
background = {
shapes = (
{
closed = 1;
nodes = (
(531,-19,o),
(570,1,o),
(589,15,c),
(584,64,l),
(598,207,o),
(642,468,o),
(686,580,c),
(757,602,l),
(757,617,o),
(757,633,o),
(757,648,c),
(681,642,o),
(604,640,o),
(528,640,c),
(523,627,o),
(520,615,o),
(519,602,c),
(607,568,l),
(573,435,o),
(544,219,o),
(537,159,c),
(449,321,o),
(378,454,o),
(301,648,c),
(247,643,o),
(187,640,o),
(130,640,c),
(125,629,o),
(120,614,o),
(119,596,c),
(194,575,l),
(182,362,o),
(167,182,o),
(114,57,c),
(37,38,l),
(37,22,o),
(37,7,o),
(38,-9,c),
(118,-3,o),
(196,0,o),
(276,0,c),
(282,13,o),
(285,25,o),
(285,38,c),
(199,72,l),
(217,166,o),
(234,316,o),
(256,526,c),
(350,344,o),
(444,163,o),
(523,-19,c)
);
},
{
closed = 1;
nodes = (
(120,60,l),
(110,23,o),
(100,-7,o),
(88,-26,c),
(66,-45,o),
(21,-78,o),
(-12,-96,c),
(-13,-100,o),
(-14,-103,o),
(-15,-107,c),
(8,-149,l),
(116,-93,o),
(193,-30,o),
(196,60,c)
);
}
);
};
layerId = UUID0;
shapes = (
{
closed = 1;
nodes = (
(116,-93,o),
(177,-44,o),
(195,46,cs),
(214,142,o),
(234,316,o),
(256,526,c),
(350,344,o),
(444,163,o),
(523,-19,c),
(531,-19,o),
(570,1,o),
(589,15,c),
(584,64,l),
(598,207,o),
(642,468,o),
(686,580,c),
(757,602,l),
(757,617,o),
(757,633,o),
(757,648,c),
(681,642,o),
(604,640,o),
(528,640,c),
(523,627,o),
(520,615,o),
(519,602,c),
(607,568,l),
(573,435,o),
(544,219,o),
(537,159,c),
(449,321,o),
(378,454,o),
(301,648,c),
(247,643,o),
(187,640,o),
(130,640,c),
(125,629,o),
(120,614,o),
(119,596,c),
(194,575,l),
(181,352,o),
(158,83,o),
(107,-9,c),
(85,-28,o),
(21,-78,o),
(-12,-96,c),
(-15,-107,l),
(8,-149,l)
);
}
);
width = 743;
},
{
background = {
shapes = (
{
closed = 1;
nodes = (
(443,-22,o),
(592,8,o),
(599,15,c),
(604,65,l),
(617,242,o),
(648,419,o),
(693,606,c),
(746,618,l),
(748,634,o),
(748,649,o),
(746,665,c),
(681,663,o),
(614,662,o),
(548,660,c),
(543,648,o),
(540,636,o),
(539,624,c),
(587,605,l),
(585,527,o),
(571,394,o),
(550,226,c),
(500,328,o),
(391,547,o),
(355,665,c),
(267,663,o),
(181,662,o),
(93,660,c),
(88,647,o),
(85,635,o),
(84,622,c),
(132,603,l),
(126,495,o),
(83,153,o),
(63,54,c),
(8,42,l),
(6,26,o),
(6,11,o),
(8,-5,c),
(75,-3,o),
(142,-2,o),
(209,0,c),
(214,13,o),
(217,25,o),
(218,38,c),
(166,57,l),
(169,121,o),
(175,292,o),
(196,465,c),
(268,303,o),
(339,140,o),
(411,-22,c)
);
},
{
closed = 1;
nodes = (
(60,37,l),
(49,-16,o),
(-11,-93,o),
(-40,-130,c),
(-40,-135,o),
(-41,-139,o),
(-41,-144,c),
(-21,-172,l),
(53,-141,o),
(160,-84,o),
(167,37,c)
);
}
);
};
layerId = "B4F86D1D-EB2F-477C-956E-3DDEB412089F";
shapes = (
{
closed = 1;
nodes = (
(53,-141,o),
(160,-84,o),
(167,37,cs),
(169,103,o),
(175,294,o),
(196,465,c),
(268,303,o),
(339,140,o),
(411,-22,c),
(443,-22,o),
(592,8,o),
(599,15,c),
(604,65,ls),
(617,242,o),
(648,419,o),
(693,606,c),
(746,618,l),
(748,634,o),
(748,649,o),
(746,665,c),
(681,663,o),
(614,662,o),
(548,660,c),
(543,648,o),
(540,636,o),
(539,624,c),
(587,605,l),
(585,527,o),
(571,394,o),
(550,226,c),
(500,328,o),
(391,547,o),
(355,665,c),
(267,663,o),
(181,662,o),
(93,660,c),
(88,647,o),
(85,635,o),
(84,622,c),
(132,603,l),
(126,495,o),
(79,132,o),
(59,33,c),
(46,-20,o),
(-12,-94,o),
(-40,-130,c),
(-41,-144,l),
(-21,-172,l)
);
}
);
width = 721;
},
{
layerId = "2F2E705F-35A9-412F-BB04-95DF071C0E1E";
shapes = (
{
closed = 1;
nodes = (
(50,-106,o),
(94,-48,o),
(104,9,c),
(127,199,o),
(162,493,o),
(181,614,c),
(287,409,o),
(383,194,o),
(484,-6,c),
(490,-5,o),
(495,-4,o),
(500,-1,c),
(500,5,l),
(522,197,o),
(550,429,o),
(581,622,c),
(672,633,l),
(672,637,o),
(672,642,o),
(670,646,c),
(586,641,o),
(538,640,o),
(451,640,c),
(449,636,o),
(448,631,o),
(448,627,c),
(560,620,l),
(554,561,o),
(497,111,o),
(486,23,c),
(431,139,o),
(226,563,o),
(185,644,c),
(154,641,o),
(109,640,o),
(71,640,c),
(69,637,o),
(68,631,o),
(68,627,c),
(163,622,l),
(154,520,o),
(106,160,o),
(83,0,cs),
(78,-33,o),
(33,-100,o),
(-12,-141,c),
(-13,-145,l),
(-2,-156,l)
);
}
);
width = 666;
}
);
metricLeft = J;
metricRight = N;
unicode = 413;
},
{
color = 4;
glyphname = Eng;
kernLeft = H;
kernRight = N;
lastChange = "2022-12-16 16:15:27 +0000";
layers = (
{
background = {
shapes = (
{
closed = 1;
nodes = (
(527,-19,o),
(566,1,o),
(585,15,c),
(580,64,l),
(594,207,o),
(638,468,o),
(682,580,c),
(753,602,l),
(753,617,o),
(753,633,o),
(753,648,c),
(677,642,o),
(600,640,o),
(524,640,c),
(519,627,o),
(516,615,o),
(515,602,c),
(603,568,l),
(569,435,o),
(540,219,o),
(533,159,c),
(445,321,o),
(374,454,o),
(297,648,c),
(243,643,o),
(183,640,o),
(126,640,c),
(121,629,o),
(116,614,o),
(115,596,c),
(190,575,l),
(178,362,o),
(163,182,o),
(110,57,c),
(33,38,l),
(33,22,o),
(33,7,o),
(34,-9,c),
(114,-3,o),
(192,0,o),
(272,0,c),
(278,13,o),
(281,25,o),
(281,38,c),
(195,72,l),
(213,166,o),
(230,316,o),
(252,526,c),
(346,344,o),
(440,163,o),
(519,-19,c)
);
},
{
closed = 1;
nodes = (
(524,61,l),
(514,23,o),
(504,-7,o),
(492,-26,c),
(470,-45,o),
(425,-78,o),
(392,-96,c),
(391,-100,o),
(390,-103,o),
(389,-107,c),
(412,-149,l),
(511,-98,o),
(575,-18,o),
(600,60,c),
(600,60,o),
(600,61,o),
(600,61,cs)
);
}
);
};
layerId = UUID0;
shapes = (
{
closed = 1;
nodes = (
(527,-19,o),
(551,1,o),
(570,15,c),
(580,64,l),
(594,207,o),
(638,468,o),
(682,580,c),
(753,602,l),
(753,617,o),
(753,633,o),
(753,648,c),
(677,642,o),
(600,640,o),
(524,640,c),
(519,627,o),
(516,615,o),
(515,602,c),
(603,568,l),
(569,435,o),
(540,219,o),
(533,159,c),
(445,321,o),
(374,454,o),
(297,648,c),
(243,643,o),
(183,640,o),
(126,640,c),
(121,629,o),
(116,614,o),
(115,596,c),
(190,575,l),
(178,362,o),
(163,182,o),
(110,57,c),
(33,38,l),
(33,22,o),
(33,7,o),
(34,-9,c),
(114,-3,o),
(192,0,o),
(272,0,c),
(278,13,o),
(281,25,o),
(281,38,c),
(195,72,l),
(213,166,o),
(230,316,o),
(252,526,c),
(346,344,o),
(440,163,o),
(519,-19,c)
);
},
{
closed = 1;
nodes = (
(524,61,l),
(514,23,o),
(504,-7,o),
(492,-26,c),
(470,-45,o),
(425,-78,o),
(392,-96,c),
(391,-100,o),
(390,-103,o),
(389,-107,c),
(412,-149,l),
(521,-93,o),
(569,-37,o),
(580,64,c)
);
}
);
width = 739;
},
{
layerId = "B4F86D1D-EB2F-477C-956E-3DDEB412089F";
shapes = (
{
closed = 1;
nodes = (
(457,-22,o),
(566,8,o),
(573,15,c),
(618,65,l),
(631,242,o),
(662,419,o),
(707,606,c),
(760,618,l),
(762,634,o),
(762,649,o),
(760,665,c),
(695,663,o),
(628,662,o),
(562,660,c),
(557,648,o),
(554,636,o),
(553,624,c),
(601,605,l),
(599,527,o),
(585,394,o),
(564,226,c),
(514,328,o),
(405,547,o),
(369,665,c),
(281,663,o),
(195,662,o),
(107,660,c),
(102,647,o),
(99,635,o),
(98,622,c),
(146,603,l),
(140,495,o),
(97,153,o),
(77,54,c),
(22,42,l),
(20,26,o),
(20,11,o),
(22,-5,c),
(89,-3,o),
(156,-2,o),
(223,0,c),
(228,13,o),
(231,25,o),
(232,38,c),
(180,57,l),
(183,121,o),
(189,292,o),
(210,465,c),
(282,303,o),
(353,140,o),
(425,-22,c)
);
},
{
closed = 1;
nodes = (
(411,60,l),
(401,35,o),
(387,6,o),
(370,-23,cs),
(352,-54,o),
(331,-85,o),
(312,-110,c),
(311,-115,o),
(310,-119,o),
(310,-124,c),
(337,-158,l),
(403,-136,o),
(618,-12,o),
(618,65,c)
);
}
);
width = 735;
},
{
layerId = "2F2E705F-35A9-412F-BB04-95DF071C0E1E";
shapes = (
{
closed = 1;
nodes = (
(536,-5,o),
(537,-4,o),
(542,-1,c),
(546,9,l),
(568,201,o),
(596,429,o),
(627,622,c),
(718,633,l),
(718,637,o),
(718,642,o),
(716,646,c),
(632,641,o),
(584,640,o),
(497,640,c),
(495,636,o),
(494,631,o),
(494,627,c),
(606,620,l),
(600,561,o),
(543,111,o),
(532,23,c),
(477,139,o),
(272,563,o),
(231,644,c),
(200,641,o),
(155,640,o),
(117,640,c),
(115,637,o),
(114,631,o),
(114,627,c),
(209,622,l),
(201,539,o),
(146,114,o),
(134,18,c),
(38,8,l),
(38,2,o),
(39,-4,o),
(40,-6,c),
(124,-1,o),
(176,0,o),
(263,0,c),
(264,4,o),
(265,10,o),
(265,14,c),
(153,20,l),
(188,319,o),
(203,469,o),
(227,614,c),
(333,409,o),
(429,194,o),
(530,-6,c)
);
},
{
closed = 1;
nodes = (
(528,21,l),
(526,11,o),
(526,8,o),
(525,0,cs),
(520,-33,o),
(475,-100,o),
(430,-141,c),
(430,-142,o),
(429,-144,o),
(429,-145,c),
(440,-156,l),
(492,-106,o),
(536,-48,o),
(546,9,c)
);
}
);
width = 712;
}
);
metricLeft = N;
metricRight = N;
unicode = 330;
},
{
color = 4;
glyphname = O;
kernLeft = O;
kernRight = O;
lastChange = "2022-12-17 15:01:38 +0000";
layers = (
{
anchors = (
{
name = bottom;
pos = (295,0);
},
{
name = center;
pos = (335,326);
},
{
name = ogonek;
pos = (399,10);
},
{
name = top;
pos = (375,652);
},
{
name = topleft;
pos = (82,652);
},
{
name = topright;
pos = (428,644);
}
);
background = {
shapes = (
{
closed = 1;
nodes = (
(365,1,o),
(466,74,o),
(528,167,cs),
(567,226,o),
(598,302,o),
(598,374,cs),
(598,509,o),
(507,652,o),
(375,652,c),
(206,631,o),
(42,433,o),
(42,265,cs),
(42,130,o),
(132,-12,o),
(265,-12,c)
);
},
{
closed = 1;
nodes = (
(176,94,o),
(138,184,o),
(138,286,cs),
(138,380,o),
(178,489,o),
(244,551,c),
(272,565,o),
(323,584,o),
(369,584,c),
(465,542,o),
(502,452,o),
(502,352,cs),
(502,257,o),
(463,149,o),
(396,86,c),
(368,71,o),
(322,55,o),
(276,53,c)
);
}
);
};
hints = (
{
place = (42, 96);
place = (42, 96);
type = Stem;
},
{
place = (514, 96);
place = (514, 96);
type = Stem;
},
{
horizontal = 1;
place = (-12, 74);
place = (-12, 74);
type = Stem;
},
{
horizontal = 1;
place = (578, 74);
place = (578, 74);
type = Stem;
}
);
layerId = UUID0;
shapes = (
{
closed = 1;
nodes = (
(365,1,o),
(466,74,o),
(528,167,cs),
(567,226,o),
(598,302,o),
(598,374,cs),
(598,509,o),
(507,652,o),
(375,652,c),
(320,645,o),
(265,619,o),
(217,582,cs),
(116,505,o),
(42,378,o),
(42,265,cs),
(42,130,o),
(132,-12,o),
(265,-12,c)
);
},
{
closed = 1;
nodes = (
(176,94,o),
(138,184,o),
(138,286,cs),
(138,380,o),
(178,489,o),
(244,551,c),
(272,565,o),
(323,584,o),
(369,584,c),
(465,542,o),
(502,452,o),
(502,352,cs),
(502,257,o),
(463,149,o),
(396,86,c),
(368,71,o),
(322,55,o),
(276,53,c)
);
}
);
width = 618;
},
{
anchors = (
{
name = bottom;
pos = (300,0);
},
{
name = center;
pos = (350,319);
},
{
name = ogonek;
pos = (421,0);
},
{
name = top;
pos = (396,660);
},
{
name = topleft;
pos = (119,660);
},
{
name = topright;
pos = (529,664);
}
);
background = {
shapes = (
{
closed = 1;
nodes = (
(336,-12,o),
(464,19,o),
(538,70,c),
(613,178,o),
(660,311,o),
(665,424,cs),
(671,562,o),
(614,671,o),
(471,671,cs),
(371,671,o),
(235,634,o),
(144,584,c),
(78,486,o),
(38,371,o),
(30,268,cs),
(18,114,o),
(77,-12,o),
(232,-12,cs)
);
},
{
closed = 1;
nodes = (
(264,95,o),
(256,158,o),
(261,232,cs),
(267,354,o),
(309,506,o),
(345,582,c),
(358,588,o),
(388,590,o),
(402,590,c),
(428,564,o),
(436,506,o),
(433,435,cs),
(426,310,o),
(384,149,o),
(348,74,c),
(343,71,o),
(305,67,o),
(293,67,c)
);
}
);
};
layerId = "B4F86D1D-EB2F-477C-956E-3DDEB412089F";
shapes = (
{
closed = 1;
nodes = (
(336,-12,o),
(464,19,o),
(538,70,c),
(611,175,o),
(665,320,o),
(665,441,cs),
(665,571,o),
(608,672,o),
(471,672,cs),
(371,672,o),
(235,635,o),
(144,585,c),
(75,483,o),
(28,347,o),
(28,230,cs),
(28,94,o),
(90,-12,o),
(232,-12,cs)
);
},
{
closed = 1;
nodes = (
(267,92,o),
(260,144,o),
(260,207,cs),
(260,310,o),
(301,490,o),
(345,583,c),
(358,589,o),
(388,591,o),
(402,591,c),
(425,568,o),
(434,521,o),
(434,462,cs),
(434,360,o),
(392,165,o),
(348,74,c),
(343,71,o),
(305,67,o),
(293,67,c)
);
}
);
width = 671;
},
{
anchors = (
{
name = bottom;
pos = (267,0);
},
{
name = center;
pos = (324,323);
},
{
name = ogonek;
pos = (403,10);
},
{
name = top;
pos = (374,646);
},
{
name = topleft;
pos = (72,646);
},
{
name = topright;
pos = (441,630);
}
);
background = {
shapes = (
{
closed = 1;
nodes = (
(534,167,o),
(569,230,o),
(583,348,cs),
(602,509,o),
(504,651,o),
(364,651,c),
(312,651,o),
(217,593,o),
(172,552,c),
(115,476,o),
(80,413,o),
(64,297,cs),
(45,161,o),
(116,-11,o),
(289,-11,c),
(334,-11,o),
(432,47,o),
(481,92,c)
);
},
{
closed = 1;
nodes = (
(141,7,o),
(63,152,o),
(83,301,cs),
(98,413,o),
(136,481,o),
(187,543,c),
(238,583,o),
(304,627,o),
(359,633,c),
(490,633,o),
(584,500,o),
(565,346,cs),
(552,243,o),
(514,166,o),
(466,102,c),
(423,62,o),
(338,13,o),
(294,8,c)
);
}
);
};
layerId = "2F2E705F-35A9-412F-BB04-95DF071C0E1E";
shapes = (
{
closed = 1;
nodes = (
(334,-6,o),
(432,51,o),
(481,96,c),
(543,183,o),
(585,272,o),
(585,383,cs),
(585,527,o),
(494,646,o),
(364,646,c),
(312,646,o),
(217,589,o),
(172,548,c),
(105,461,o),
(61,367,o),
(61,252,cs),
(61,128,o),
(135,-6,o),
(289,-6,c)
);
},
{
closed = 1;
nodes = (
(157,9,o),
(80,126,o),
(80,256,cs),
(80,357,o),
(117,456,o),
(187,539,c),
(238,578,o),
(304,624,o),
(359,630,c),
(479,630,o),
(567,519,o),
(567,382,cs),
(567,289,o),
(528,186,o),
(466,105,c),
(423,66,o),
(338,15,o),
(294,10,c)
);
}
);
width = 623;
}
);
unicode = 79;
},
{
color = 4;
glyphname = Oogonek;
kernLeft = O;
kernRight = O;
lastChange = "2022-12-16 16:15:50 +0000";
layers = (
{
background = {
shapes = (
{
ref = O;
},
{
pos = (263,0);
ref = ogonekcomb;
}
);
};
layerId = "2F2E705F-35A9-412F-BB04-95DF071C0E1E";
shapes = (
{
closed = 1;
nodes = (
(319,-217,o),
(351,-199,o),
(382,-175,c),
(375,-164,l),
(338,-188,o),
(322,-195,o),
(295,-200,c),
(266,-194,o),
(243,-173,o),
(244,-137,cs),
(245,-97,o),
(308,-17,o),
(372,21,cs),
(412,45,o),
(454,71,o),
(481,96,c),
(543,183,o),
(585,272,o),
(585,383,cs),
(585,527,o),
(494,646,o),
(364,646,cs),
(312,646,o),
(217,589,o),
(172,548,c),
(105,461,o),
(61,367,o),
(61,252,cs),
(61,128,o),
(135,-6,o),
(289,-6,cs),
(299,-6,o),
(320,-1,o),
(335,5,c),
(334,12,l),
(276,-35,o),
(225,-99,o),
(225,-138,cs),
(225,-156,o),
(231,-177,o),
(236,-188,c),
(252,-206,o),
(276,-217,o),
(298,-217,cs)
);
},
{
closed = 1;
nodes = (
(157,9,o),
(80,126,o),
(80,256,cs),
(80,357,o),
(117,456,o),
(187,539,c),
(238,578,o),
(304,624,o),
(359,630,c),
(479,630,o),
(567,519,o),
(567,382,cs),
(567,289,o),
(528,186,o),
(466,105,c),
(423,66,o),
(338,15,o),
(294,10,c)
);
}
);
width = 623;
},
{
background = {
shapes = (
{
ref = O;
},
{
pos = (243,0);
ref = ogonekcomb;
}
);
};
hints = (
{
place = (42, 96);
place = (42, 96);
type = Stem;
},
{
place = (514, 96);
place = (514, 96);
type = Stem;
},
{
horizontal = 1;
place = (-12, 74);
place = (-12, 74);
type = Stem;
},
{
horizontal = 1;
place = (578, 74);
place = (578, 74);
type = Stem;
}
);
layerId = UUID0;
shapes = (
{
closed = 1;
nodes = (
(326,-212,o),
(359,-181,o),
(378,-160,c),
(366,-138,l),
(337,-151,o),
(307,-164,o),
(280,-166,cs),
(276,-166,o),
(264,-147,o),
(264,-93,cs),
(264,-81,o),
(312,-19,o),
(382,28,cs),
(439,66,o),
(490,111,o),
(528,167,cs),
(567,226,o),
(598,302,o),
(598,374,cs),
(598,509,o),
(507,652,o),
(375,652,c),
(320,645,o),
(265,619,o),
(217,582,cs),
(116,505,o),
(42,378,o),
(42,265,cs),
(42,130,o),
(132,-12,o),
(265,-12,c),
(276,-11,o),
(291,-7,o),
(305,-3,c),
(302,9,l),
(260,-23,o),
(203,-71,o),
(203,-117,cs),
(203,-155,o),
(206,-177,o),
(209,-180,cs),
(232,-203,o),
(263,-212,o),
(294,-212,cs)
);
},
{
closed = 1;
nodes = (
(176,94,o),
(138,184,o),
(138,286,cs),
(138,380,o),
(178,489,o),
(244,551,c),
(272,565,o),
(323,584,o),
(369,584,c),
(465,542,o),
(502,452,o),
(502,352,cs),
(502,257,o),
(463,149,o),
(396,86,c),
(368,71,o),
(322,55,o),
(276,53,c)
);
}
);
width = 618;
},
{
background = {
shapes = (
{
ref = O;
},
{
pos = (253,-10);
ref = ogonekcomb;
}
);
};
layerId = "B4F86D1D-EB2F-477C-956E-3DDEB412089F";
shapes = (
{
closed = 1;
nodes = (
(341,-230,o),
(382,-191,o),
(400,-169,c),
(381,-133,l),
(366,-143,o),
(347,-154,o),
(326,-163,c),
(322,-163,o),
(303,-141,o),
(303,-83,cs),
(303,-71,o),
(332,-13,o),
(395,8,cs),
(449,26,o),
(501,44,o),
(538,70,c),
(611,175,o),
(665,320,o),
(665,441,cs),
(665,571,o),
(608,672,o),
(471,672,cs),
(371,672,o),
(235,635,o),
(144,585,c),
(75,483,o),
(28,347,o),
(28,230,cs),
(28,94,o),
(90,-12,o),
(232,-12,cs),
(273,-12,o),
(311,-8,o),
(353,0,c),
(325,5,l),
(275,-23,o),
(211,-64,o),
(211,-118,cs),
(211,-159,o),
(214,-193,o),
(217,-196,cs),
(241,-218,o),
(275,-230,o),
(307,-230,cs)
);
},
{
closed = 1;
nodes = (
(267,92,o),
(260,144,o),
(260,207,cs),
(260,310,o),
(301,490,o),
(345,583,c),
(358,589,o),
(388,591,o),
(402,591,c),
(425,568,o),
(434,521,o),
(434,462,cs),
(434,360,o),
(392,165,o),
(348,74,c),
(343,71,o),
(305,67,o),
(293,67,c)
);
}
);
width = 671;
}
);
unicode = 490;
},
{
color = 3;
glyphname = Oslash;
kernLeft = O;
kernRight = O;
lastChange = "2022-12-16 16:12:24 +0000";
layers = (
{
anchors = (
{
name = bottom;
pos = (281,0);
},
{
name = top;
pos = (361,652);
}
);
layerId = UUID0;
shapes = (
{
closed = 1;
nodes = (
(89,-90,l),
(124,-28,o),
(230,140,o),
(337,307,cs),
(442,471,o),
(547,633,o),
(589,692,c),
(588,704,l),
(553,712,l),
(426,506,o),
(367,410,o),
(312,323,cs),
(250,226,o),
(193,140,o),
(51,-74,c),
(75,-90,l)
);
},
{
ref = O;
}
);
width = 618;
},
{
anchors = (
{
name = bottom;
pos = (307,0);
},
{
name = top;
pos = (388,660);
}
);
layerId = "B4F86D1D-EB2F-477C-956E-3DDEB412089F";
shapes = (
{
closed = 1;
nodes = (
(133,-105,l),
(173,-33,o),
(282,144,o),
(395,324,cs),
(505,499,o),
(619,676,o),
(674,759,c),
(662,771,l),
(578,771,l),
(521,669,o),
(445,544,o),
(333,369,cs),
(254,245,o),
(157,96,o),
(37,-87,c),
(50,-105,l)
);
},
{
ref = O;
}
);
width = 671;
},
{
anchors = (
{
name = bottom;
pos = (284,0);
},
{
name = top;
pos = (364,646);
}
);
layerId = "2F2E705F-35A9-412F-BB04-95DF071C0E1E";
shapes = (
{
closed = 1;
nodes = (
(69,-85,l),
(109,-22,o),
(220,153,o),
(328,324,cs),
(430,484,o),
(529,640,o),
(567,697,c),
(566,709,l),
(553,712,l),
(454,555,o),
(384,444,o),
(315,335,cs),
(239,215,o),
(164,98,o),
(53,-74,c),
(57,-85,l)
);
},
{
ref = O;
}
);
width = 623;
},
{
anchors = (
{
name = bottom;
pos = (284,0);
},
{
name = top;
pos = (364,646);
}
);
associatedMasterId = "2F2E705F-35A9-412F-BB04-95DF071C0E1E";
attr = {
axisRules = (
{
min = 127;
}
);
};
layerId = "1041988C-3A44-4F45-87DA-18B1BE6FDFF3";
name = "[115]";
shapes = (
{
closed = 1;
nodes = (
(495,586,l),
(526,635,o),
(552,674,o),
(567,697,c),
(566,709,l),
(553,712,l),
(527,671,o),
(503,633,o),
(481,597,c)
);
},
{
closed = 1;
nodes = (
(142,65,l),
(115,22,o),
(86,-23,o),
(53,-74,c),
(57,-85,l),
(69,-85,l),
(86,-58,o),
(117,-9,o),
(155,51,c)
);
},
{
ref = O;
}
);
width = 623;
},
{
anchors = (
{
name = bottom;
pos = (281,0);
},
{
name = top;
pos = (361,652);
}
);
associatedMasterId = UUID0;
attr = {
axisRules = (
{
min = 127;
}
);
};
layerId = "4A62F6DB-A831-4933-8F0B-4416386CF954";
name = "[115]";
shapes = (
{
closed = 1;
nodes = (
(498,556,l),
(537,616,o),
(570,665,o),
(589,692,c),
(588,704,l),
(553,712,l),
(521,660,o),
(493,614,o),
(468,575,c)
);
},
{
closed = 1;
nodes = (
(156,84,l),
(127,40,o),
(92,-12,o),
(51,-74,c),
(75,-90,l),
(89,-90,l),
(106,-60,o),
(140,-5,o),
(183,64,c)
);
},
{
ref = O;
}
);
width = 618;
},
{
anchors = (
{
name = bottom;
pos = (307,0);
},
{
name = top;
pos = (388,660);
}
);
associatedMasterId = "B4F86D1D-EB2F-477C-956E-3DDEB412089F";
attr = {
axisRules = (
{
min = 127;
}
);
};
layerId = "A4CB0181-7F94-418E-B4DB-2EDD3EAA9FE3";
name = "[115]";
shapes = (
{
closed = 1;
nodes = (
(559,582,l),
(606,656,o),
(647,719,o),
(674,759,c),
(662,771,l),
(578,771,l),
(553,726,o),
(524,677,o),
(490,620,c)
);
},
{
closed = 1;
nodes = (
(156,96,l),
(119,39,o),
(80,-22,o),
(37,-87,c),
(50,-105,l),
(133,-105,l),
(152,-71,o),
(187,-13,o),
(230,57,c)
);
},
{
ref = O;
}
);
width = 671;
}
);
metricLeft = O;
metricRight = O;
unicode = 216;
},
{
color = 4;
glyphname = OE;
kernLeft = O;
kernRight = E;
lastChange = "2022-12-16 16:12:24 +0000";
layers = (
{
anchors = (
{
name = bottom;
pos = (405,0);
},
{
name = top;
pos = (485,652);
}
);
background = {
shapes = (
{
closed = 1;
nodes = (
(280,-12,o),
(315,-11,o),
(356,-8,cs),
(421,-3,o),
(503,0,o),
(559,0,cs),
(672,0,o),
(758,-3,o),
(780,-5,c),
(816,170,l),
(805,175,o),
(788,178,o),
(772,178,c),
(726,74,l),
(677,64,o),
(594,57,o),
(512,57,c),
(516,134,o),
(532,272,o),
(550,369,cs),
(577,517,o),
(585,551,o),
(593,574,c),
(617,577,o),
(700,586,o),
(769,586,c),
(789,462,l),
(808,462,o),
(823,464,o),
(833,471,c),
(856,649,l),
(836,649,o),
(764,649,o),
(680,649,cs),
(604,649,o),
(437,650,o),
(375,652,c),
(206,631,o),
(42,433,o),
(42,265,cs),
(42,130,o),
(132,-12,o),
(265,-12,cs)
);
},
{
closed = 1;
nodes = (
(318,50,o),
(297,51,o),
(276,53,c),
(176,94,o),
(138,184,o),
(138,286,cs),
(138,380,o),
(178,489,o),
(244,551,c),
(272,565,o),
(323,584,o),
(369,584,cs),
(413,584,o),
(456,580,o),
(500,574,c),
(498,539,o),
(493,476,o),
(474,356,cs),
(456,241,o),
(432,121,o),
(416,54,c),
(390,51,o),
(364,50,o),
(339,50,cs)
);
},
{
closed = 1;
nodes = (
(748,310,l),
(755,358,l),
(545,353,l),
(535,295,l),
(603,295,o),
(659,293,o),
(719,289,c)
);
}
);
};
layerId = UUID0;
shapes = (
{
closed = 1;
nodes = (
(280,-12,o),
(315,-11,o),
(356,-8,cs),
(421,-3,o),
(503,0,o),
(559,0,cs),
(672,0,o),
(758,-3,o),
(780,-5,c),
(781,0,l),
(815,165,l),
(816,170,l),
(805,175,o),
(788,178,o),
(772,178,c),
(726,74,l),
(677,64,o),
(594,57,o),
(512,57,c),
(515,116,o),
(525,210,o),
(538,295,c),
(605,295,o),
(660,293,o),
(719,289,c),
(748,310,l),
(755,358,l),
(547,353,l),
(573,496,o),
(583,546,o),
(593,574,c),
(617,577,o),
(700,586,o),
(769,586,c),
(788,469,l),
(789,462,l),
(808,462,o),
(823,464,o),
(833,471,c),
(855,640,l),
(856,649,l),
(603,649,o),
(440,650,o),
(375,652,c),
(320,645,o),
(265,619,o),
(216,581,cs),
(116,504,o),
(42,378,o),
(42,265,cs),
(42,130,o),
(132,-12,o),
(265,-12,cs)
);
},
{
closed = 1;
nodes = (
(176,94,o),
(138,184,o),
(138,286,cs),
(138,380,o),
(178,489,o),
(244,551,c),
(272,565,o),
(323,584,o),
(369,584,cs),
(413,584,o),
(456,580,o),
(500,574,c),
(498,539,o),
(493,476,o),
(474,356,cs),
(456,241,o),
(432,121,o),
(416,54,c),
(390,51,o),
(364,50,o),
(339,50,cs),
(318,50,o),
(297,51,o),
(276,53,c)
);
}
);
width = 865;
},
{
anchors = (
{
name = bottom;
pos = (401,0);
},
{
name = top;
pos = (482,660);
}
);
background = {
shapes = (
{
closed = 1;
nodes = (
(327,-3,o),
(434,0,o),
(560,0,c),
(635,0,o),
(733,-3,o),
(789,-5,c),
(823,189,l),
(792,197,o),
(760,203,o),
(729,205,c),
(680,83,l),
(661,79,o),
(608,69,o),
(563,66,c),
(599,362,o),
(613,477,o),
(633,587,c),
(647,589,o),
(703,596,o),
(728,596,c),
(742,452,l),
(773,452,o),
(811,453,o),
(842,458,c),
(875,656,l),
(868,665,l),
(821,662,o),
(616,668,o),
(366,668,c),
(361,655,o),
(371,635,o),
(369,622,c),
(416,602,l),
(411,513,o),
(397,393,o),
(385,290,cs),
(376,216,o),
(362,124,o),
(348,49,c),
(298,38,l),
(296,24,o),
(296,9,o),
(297,-5,c)
);
},
{
closed = 1;
nodes = (
(779,299,l),
(788,371,l),
(595,366,l),
(586,295,l),
(644,291,o),
(701,287,o),
(759,283,c)
);
},
{
closed = 1;
nodes = (
(356,64,l),
(333,61,o),
(288,58,o),
(276,58,c),
(245,86,o),
(234,158,o),
(235,232,cs),
(237,354,o),
(267,502,o),
(299,578,c),
(331,584,o),
(404,587,o),
(436,587,c),
(366,668,l),
(276,657,o),
(172,625,o),
(100,584,c),
(39,486,o),
(5,371,o),
(2,268,cs),
(-2,114,o),
(64,-12,o),
(219,-12,cs),
(251,-12,o),
(301,-7,o),
(335,-1,c)
);
}
);
};
layerId = "B4F86D1D-EB2F-477C-956E-3DDEB412089F";
shapes = (
{
closed = 1;
nodes = (
(266,-5,o),
(279,-5,o),
(292,-4,c),
(353,-2,o),
(468,0,o),
(567,0,cs),
(641,0,o),
(726,-3,o),
(783,-5,c),
(790,5,l),
(820,179,l),
(817,188,l),
(789,190,o),
(762,193,o),
(734,195,c),
(687,83,l),
(667,79,o),
(613,69,o),
(568,66,c),
(577,140,o),
(586,215,o),
(595,289,c),
(656,286,o),
(718,283,o),
(779,280,c),
(793,358,l),
(777,374,l),
(605,358,l),
(613,424,o),
(631,540,o),
(640,587,c),
(654,589,o),
(710,596,o),
(735,596,c),
(747,469,l),
(756,462,l),
(785,464,o),
(812,466,o),
(841,468,c),
(873,656,l),
(866,665,l),
(822,663,o),
(562,661,o),
(436,661,cs),
(345,661,o),
(216,634,o),
(129,584,c),
(65,479,o),
(30,358,o),
(31,253,cs),
(31,109,o),
(99,-5,o),
(253,-5,cs)
);
},
{
closed = 1;
nodes = (
(280,94,o),
(268,154,o),
(268,225,cs),
(267,348,o),
(301,505,o),
(334,582,c),
(340,585,o),
(347,587,o),
(353,588,cs),
(360,590,o),
(366,590,o),
(372,590,c),
(399,566,o),
(410,507,o),
(410,437,cs),
(411,312,o),
(378,150,o),
(345,74,c),
(343,72,o),
(337,71,o),
(330,69,cs),
(323,68,o),
(315,67,o),
(310,67,c)
);
}
);
width = 859;
},
{
anchors = (
{
name = bottom;
pos = (413,0);
},
{
name = top;
pos = (493,646);
}
);
layerId = "2F2E705F-35A9-412F-BB04-95DF071C0E1E";
shapes = (
{
closed = 1;
nodes = (
(333,-6,o),
(404,-1,o),
(448,-1,cs),
(458,-1,o),
(499,0,o),
(594,0,cs),
(638,0,o),
(716,-2,o),
(792,-3,c),
(793,3,l),
(822,185,l),
(823,190,l),
(821,191,o),
(813,193,o),
(810,193,c),
(776,20,l),
(722,14,o),
(507,16,o),
(467,18,c),
(479,118,o),
(490,224,o),
(502,323,c),
(574,324,o),
(646,324,o),
(717,325,c),
(721,330,l),
(722,342,l),
(504,339,l),
(517,448,o),
(530,548,o),
(543,622,c),
(638,629,o),
(728,628,o),
(823,628,c),
(819,463,l),
(819,455,l),
(823,455,o),
(829,456,o),
(832,457,c),
(844,630,l),
(845,646,l),
(528,637,o),
(498,646,o),
(364,646,cs),
(312,646,o),
(217,589,o),
(172,548,c),
(105,461,o),
(61,367,o),
(61,252,cs),
(61,128,o),
(135,-6,o),
(289,-6,cs)
);
},
{
closed = 1;
nodes = (
(157,9,o),
(80,126,o),
(80,256,cs),
(80,357,o),
(117,456,o),
(187,539,c),
(238,578,o),
(304,624,o),
(359,630,c),
(428,630,o),
(457,626,o),
(523,622,c),
(519,581,o),
(503,455,o),
(487,328,cs),
(471,201,o),
(455,71,o),
(448,17,c),
(425,15,o),
(400,13,o),
(370,12,cs),
(349,11,o),
(325,10,o),
(294,10,c)
);
}
);
width = 881;
}
);
metricLeft = O;
metricRight = E;
unicode = 338;
},
{
color = 4;
glyphname = P;
kernLeft = H;
kernRight = P;
lastChange = "2022-12-16 16:12:24 +0000";
layers = (
{
anchors = (
{
name = bottom;
pos = (250,0);
},
{
name = top;
pos = (330,652);
}
);
background = {
shapes = (
{
closed = 1;
nodes = (
(33,38,l),
(31,-9,l),
(110,-3,o),
(200,0,o),
(294,0,c),
(305,38,l),
(211,67,l),
(218,144,o),
(231,272,o),
(249,369,cs),
(277,517,o),
(284,548,o),
(292,571,c),
(310,575,o),
(370,585,o),
(448,585,cs),
(453,585,o),
(483,522,o),
(483,469,cs),
(483,409,o),
(460,350,o),
(447,333,c),
(399,302,o),
(353,295,o),
(281,293,c),
(277,281,o),
(275,266,o),
(273,249,c),
(290,246,o),
(327,241,o),
(386,241,c),
(447,279,o),
(484,310,o),
(514,337,c),
(539,373,o),
(566,433,o),
(566,491,cs),
(566,553,o),
(551,597,o),
(510,629,c),
(477,643,o),
(441,646,o),
(394,646,cs),
(338,646,o),
(198,642,o),
(135,640,c),
(130,629,o),
(125,614,o),
(124,596,c),
(199,574,l),
(197,539,o),
(192,476,o),
(173,356,cs),
(155,241,o),
(131,121,o),
(115,54,c)
);
}
);
};
hints = (
{
place = (153, 79);
place = (153, 79);
type = Stem;
},
{
place = (463, 91);
place = (463, 91);
type = Stem;
},
{
place = (153, 94);
place = (153, 94);
type = Stem;
},
{
horizontal = 1;
place = (262, 51);
place = (262, 51);
type = Stem;
},
{
horizontal = 1;
place = (597, 43);
place = (597, 43);
type = Stem;
},
{
horizontal = 1;
place = (597, 55);
place = (597, 55);
type = Stem;
},
{
horizontal = 1;
place = (-9, 21);
target = up;
type = BottomGhost;
},
{
horizontal = 1;
place = (0, 21);
target = up;
type = BottomGhost;
}
);
layerId = UUID0;
shapes = (
{
closed = 1;
nodes = (
(112,-3,o),
(200,0,o),
(294,0,c),
(300,13,o),
(303,25,o),
(305,38,c),
(211,67,l),
(222,188,o),
(258,472,o),
(292,571,c),
(303,573,o),
(330,578,o),
(368,581,cs),
(391,584,o),
(418,585,o),
(448,585,cs),
(453,585,o),
(483,522,o),
(483,469,cs),
(483,409,o),
(460,350,o),
(447,333,c),
(399,302,o),
(353,295,o),
(281,293,c),
(277,281,o),
(275,266,o),
(273,249,c),
(290,246,o),
(327,241,o),
(386,241,c),
(447,279,o),
(484,310,o),
(514,337,c),
(539,373,o),
(566,433,o),
(566,491,cs),
(566,553,o),
(551,597,o),
(510,629,c),
(477,643,o),
(441,646,o),
(394,646,cs),
(338,646,o),
(198,642,o),
(135,640,c),
(130,629,o),
(125,614,o),
(124,596,c),
(199,574,l),
(192,443,o),
(146,183,o),
(115,54,c),
(33,38,l),
(32,22,o),
(32,7,o),
(33,-9,c)
);
}
);
width = 556;
},
{
anchors = (
{
name = bottom;
pos = (292,0);
},
{
name = top;
pos = (373,660);
}
);
background = {
shapes = (
{
closed = 1;
nodes = (
(136,-3,o),
(250,-2,o),
(365,0,c),
(370,16,o),
(373,32,o),
(375,48,c),
(292,77,l),
(299,190,o),
(334,474,o),
(355,589,c),
(363,593,o),
(405,599,o),
(435,602,c),
(454,560,o),
(452,484,o),
(445,421,cs),
(439,377,o),
(431,335,o),
(425,310,c),
(403,303,o),
(380,297,o),
(359,290,c),
(355,271,o),
(352,252,o),
(352,233,c),
(396,229,o),
(440,229,o),
(485,229,c),
(525,249,o),
(575,289,o),
(604,319,c),
(631,358,o),
(649,407,o),
(656,465,cs),
(666,539,o),
(647,613,o),
(594,656,c),
(580,661,o),
(544,666,o),
(486,666,cs),
(387,666,o),
(215,664,o),
(103,660,c),
(98,647,o),
(95,635,o),
(94,622,c),
(141,602,l),
(133,468,o),
(99,201,o),
(73,49,c),
(22,38,l),
(20,24,o),
(20,9,o),
(21,-5,c)
);
}
);
};
layerId = "B4F86D1D-EB2F-477C-956E-3DDEB412089F";
shapes = (
{
closed = 1;
nodes = (
(136,-3,o),
(250,-2,o),
(365,0,c),
(370,16,o),
(373,32,o),
(375,48,c),
(292,77,l),
(299,190,o),
(334,474,o),
(355,589,c),
(359,591,o),
(374,594,o),
(392,597,cs),
(406,599,o),
(422,601,o),
(435,602,c),
(446,578,o),
(450,542,o),
(450,502,cs),
(450,439,o),
(438,366,o),
(425,310,c),
(403,303,o),
(380,297,o),
(359,290,c),
(355,271,o),
(352,252,o),
(352,233,c),
(396,229,o),
(440,229,o),
(485,229,c),
(525,249,o),
(575,289,o),
(604,319,c),
(637,367,o),
(658,433,o),
(658,496,cs),
(659,559,o),
(640,619,o),
(594,656,c),
(580,661,o),
(544,666,o),
(486,666,cs),
(387,666,o),
(215,664,o),
(103,660,c),
(98,647,o),
(95,635,o),
(94,622,c),
(141,602,l),
(133,468,o),
(99,201,o),
(73,49,c),
(22,38,l),
(20,24,o),
(20,9,o),
(21,-5,c)
);
}
);
width = 641;
},
{
anchors = (
{
name = bottom;
pos = (235,0);
},
{
name = top;
pos = (315,646);
}
);
background = {
shapes = (
{
closed = 1;
nodes = (
(115,-1,o),
(168,0,o),
(262,0,c),
(264,5,o),
(264,9,o),
(264,14,c),
(152,18,l),
(171,187,o),
(202,458,o),
(228,622,c),
(340,632,l),
(341,638,o),
(341,642,o),
(340,646,c),
(260,640,o),
(197,640,o),
(117,640,c),
(114,635,o),
(114,631,o),
(114,627,c),
(208,621,l),
(182,412,o),
(151,160,o),
(133,19,c),
(37,7,l),
(36,2,o),
(36,-1,o),
(36,-6,c)
);
},
{
closed = 1;
nodes = (
(494,-1,o),
(547,0,o),
(641,0,c),
(643,5,o),
(643,9,o),
(643,14,c),
(550,18,l),
(569,187,o),
(601,458,o),
(627,622,c),
(720,632,l),
(720,638,o),
(719,642,o),
(718,646,c),
(638,640,o),
(576,640,o),
(496,640,c),
(493,635,o),
(493,631,o),
(493,627,c),
(607,621,l),
(581,412,o),
(549,160,o),
(531,19,c),
(416,7,l),
(415,2,o),
(415,-1,o),
(415,-6,c)
);
},
{
closed = 1;
nodes = (
(574,327,l),
(576,341,l),
(186,341,l),
(183,322,l)
);
}
);
};
layerId = "2F2E705F-35A9-412F-BB04-95DF071C0E1E";
shapes = (
{
closed = 1;
nodes = (
(115,-1,o),
(168,0,o),
(262,0,c),
(264,5,o),
(264,9,o),
(264,14,c),
(152,18,l),
(171,187,o),
(202,458,o),
(228,622,c),
(249,625,o),
(305,630,o),
(344,630,cs),
(389,630,o),
(426,625,o),
(449,614,c),
(484,591,o),
(503,543,o),
(503,493,cs),
(503,422,o),
(470,374,o),
(447,347,c),
(394,308,o),
(342,304,o),
(260,306,c),
(257,301,o),
(256,297,o),
(256,292,c),
(279,290,o),
(340,291,o),
(366,294,c),
(404,304,o),
(439,321,o),
(466,344,c),
(501,386,o),
(521,442,o),
(521,498,cs),
(521,553,o),
(496,602,o),
(461,628,c),
(438,641,o),
(396,646,o),
(352,646,cs),
(277,646,o),
(189,640,o),
(117,640,c),
(114,635,o),
(114,631,o),
(114,627,c),
(208,621,l),
(182,412,o),
(151,160,o),
(133,19,c),
(37,7,l),
(36,2,o),
(36,-1,o),
(36,-6,c)
);
}
);
width = 528;
}
);
metricLeft = H;
metricRight = "=O-15";
unicode = 80;
},
{
color = 4;
glyphname = Thorn;
kernLeft = H;
kernRight = Thorn;
lastChange = "2022-12-16 16:12:24 +0000";
layers = (
{
layerId = UUID0;
shapes = (
{
closed = 1;
nodes = (
(113,-3,o),
(200,0,o),
(294,0,c),
(300,13,o),
(303,25,o),
(305,38,c),
(211,66,l),
(226,235,o),
(254,422,o),
(292,583,c),
(376,608,l),
(376,622,o),
(376,635,o),
(374,649,c),
(294,643,o),
(215,640,o),
(135,640,c),
(130,629,o),
(125,614,o),
(124,596,c),
(199,574,l),
(192,444,o),
(146,181,o),
(115,53,c),
(33,38,l),
(33,22,o),
(33,7,o),
(34,-9,c)
);
},
{
closed = 1;
nodes = (
(423,179,o),
(460,210,o),
(490,237,c),
(515,273,o),
(542,323,o),
(542,381,cs),
(542,443,o),
(523,477,o),
(482,509,c),
(449,523,o),
(413,526,o),
(366,526,cs),
(339,526,o),
(293,526,o),
(245,524,c),
(264,451,l),
(275,453,o),
(302,458,o),
(340,461,cs),
(363,464,o),
(390,465,o),
(420,465,cs),
(425,465,o),
(459,412,o),
(459,359,cs),
(459,299,o),
(436,250,o),
(423,233,c),
(375,202,o),
(329,195,o),
(267,193,c),
(263,181,o),
(261,166,o),
(259,149,c),
(276,145,o),
(303,141,o),
(362,141,c)
);
}
);
width = 560;
},
{
layerId = "B4F86D1D-EB2F-477C-956E-3DDEB412089F";
shapes = (
{
closed = 1;
nodes = (
(124,-3,o),
(227,-2,o),
(330,0,c),
(335,13,o),
(339,25,o),
(340,38,c),
(291,57,l),
(298,179,o),
(332,425,o),
(361,613,c),
(412,622,l),
(414,636,o),
(414,651,o),
(412,665,c),
(309,663,o),
(206,662,o),
(103,660,c),
(98,647,o),
(95,635,o),
(94,622,c),
(140,602,l),
(134,471,o),
(99,193,o),
(72,49,c),
(22,38,l),
(20,24,o),
(19,9,o),
(21,-5,c)
);
},
{
closed = 1;
nodes = (
(511,142,o),
(561,182,o),
(590,212,c),
(623,260,o),
(644,326,o),
(644,389,cs),
(644,452,o),
(626,512,o),
(580,549,c),
(566,554,o),
(530,559,o),
(472,559,cs),
(427,559,o),
(367,559,o),
(305,558,c),
(341,482,l),
(345,484,o),
(360,487,o),
(377,490,cs),
(391,492,o),
(407,494,o),
(421,495,c),
(432,471,o),
(436,435,o),
(436,395,cs),
(436,332,o),
(424,259,o),
(411,203,c),
(389,196,o),
(366,190,o),
(345,183,c),
(341,164,o),
(338,145,o),
(338,126,c),
(382,122,o),
(426,122,o),
(471,122,c)
);
}
);
width = 655;
},
{
layerId = "2F2E705F-35A9-412F-BB04-95DF071C0E1E";
shapes = (
{
closed = 1;
nodes = (
(115,-1,o),
(168,0,o),
(262,0,c),
(264,5,o),
(264,9,o),
(264,14,c),
(152,18,l),
(171,187,o),
(202,458,o),
(228,622,c),
(340,632,l),
(341,638,o),
(341,642,o),
(340,646,c),
(260,640,o),
(197,640,o),
(117,640,c),
(114,635,o),
(114,631,o),
(114,627,c),
(208,621,l),
(182,412,o),
(151,160,o),
(133,19,c),
(37,7,l),
(36,2,o),
(36,-1,o),
(36,-6,c)
);
},
{
closed = 1;
nodes = (
(382,174,o),
(417,191,o),
(444,214,c),
(478,256,o),
(491,306,o),
(491,358,cs),
(491,413,o),
(472,452,o),
(437,478,c),
(414,491,o),
(374,496,o),
(330,496,cs),
(290,496,o),
(247,494,o),
(204,493,c),
(206,472,l),
(227,475,o),
(283,480,o),
(322,480,cs),
(367,480,o),
(402,475,o),
(425,464,c),
(460,441,o),
(473,403,o),
(473,353,cs),
(473,286,o),
(449,246,o),
(425,218,c),
(373,180,o),
(320,174,o),
(238,176,c),
(235,171,o),
(234,167,o),
(234,162,c),
(257,160,o),
(318,161,o),
(344,164,c)
);
}
);
width = 531;
}
);
metricLeft = I;
metricRight = D;
unicode = 222;
},
{
color = 4;
glyphname = Q;
kernLeft = O;
kernRight = O;
lastChange = "2022-12-16 16:12:24 +0000";
layers = (
{
anchors = (
{
name = bottom;
pos = (281,0);
},
{
name = top;
pos = (361,652);
}
);
background = {
shapes = (
{
closed = 1;
nodes = (
(365,1,o),
(466,74,o),
(528,167,cs),
(567,226,o),
(598,302,o),
(598,374,cs),
(598,509,o),
(507,652,o),
(375,652,c),
(206,631,o),
(42,433,o),
(42,265,cs),
(42,130,o),
(132,-12,o),
(265,-12,c)
);
},
{
closed = 1;
nodes = (
(138,380,o),
(178,489,o),
(244,551,c),
(272,565,o),
(323,584,o),
(369,584,c),
(465,542,o),
(502,452,o),
(502,352,cs),
(502,257,o),
(463,149,o),
(396,86,c),
(368,71,o),
(322,55,o),
(276,53,c),
(176,94,o),
(138,184,o),
(138,286,cs)
);
},
{
closed = 1;
nodes = (
(231,-9,l),
(306,-72,o),
(385,-138,o),
(447,-163,c),
(493,-159,o),
(567,-129,o),
(595,-107,c),
(579,-73,l),
(561,-78,o),
(546,-82,o),
(522,-88,c),
(478,-86,o),
(383,-62,o),
(303,-4,c)
);
}
);
};
hints = (
{
place = (42, 96);
place = (42, 96);
type = Stem;
},
{
place = (514, 96);
place = (514, 96);
type = Stem;
},
{
horizontal = 1;
place = (578, 74);
place = (578, 74);
type = Stem;
},
{
horizontal = 1;
place = (-151, 21);
target = up;
type = BottomGhost;
}
);
layerId = UUID0;
shapes = (
{
closed = 1;
nodes = (
(493,-159,o),
(567,-129,o),
(595,-107,c),
(579,-73,l),
(561,-78,o),
(546,-82,o),
(522,-88,c),
(478,-86,o),
(383,-62,o),
(303,-4,c),
(390,20,o),
(474,86,o),
(528,167,cs),
(567,226,o),
(598,302,o),
(598,374,cs),
(598,509,o),
(507,652,o),
(375,652,c),
(322,645,o),
(269,621,o),
(221,586,cs),
(119,509,o),
(42,380,o),
(42,265,cs),
(42,142,o),
(117,12,o),
(232,-9,c),
(306,-72,o),
(385,-138,o),
(447,-163,c)
);
},
{
closed = 1;
nodes = (
(176,94,o),
(138,184,o),
(138,286,cs),
(138,380,o),
(178,489,o),
(244,551,c),
(272,565,o),
(323,584,o),
(369,584,c),
(465,542,o),
(502,452,o),
(502,352,cs),
(502,257,o),
(463,149,o),
(396,86,c),
(368,71,o),
(322,55,o),
(276,53,c)
);
}
);
width = 618;
},
{
anchors = (
{
name = bottom;
pos = (298,0);
},
{
name = top;
pos = (379,660);
}
);
background = {
shapes = (
{
closed = 1;
nodes = (
(490,-169,o),
(572,-144,o),
(635,-121,c),
(626,-63,l),
(604,-65,o),
(578,-66,o),
(548,-67,c),
(492,-56,o),
(432,-21,o),
(370,3,c),
(434,17,o),
(496,40,o),
(540,70,c),
(613,177,o),
(660,308,o),
(665,421,cs),
(672,560,o),
(616,671,o),
(472,671,cs),
(372,671,o),
(235,634,o),
(145,584,c),
(75,478,o),
(33,355,o),
(28,249,cs),
(22,103,o),
(86,-12,o),
(244,-12,c),
(306,-79,o),
(369,-142,o),
(432,-171,c)
);
},
{
closed = 1;
nodes = (
(265,95,o),
(256,160,o),
(261,236,cs),
(270,356,o),
(309,505,o),
(345,582,c),
(359,588,o),
(389,590,o),
(403,590,c),
(430,565,o),
(436,506,o),
(433,435,cs),
(425,311,o),
(384,152,o),
(349,74,c),
(345,71,o),
(306,67,o),
(294,67,c)
);
}
);
};
layerId = "B4F86D1D-EB2F-477C-956E-3DDEB412089F";
shapes = (
{
closed = 1;
nodes = (
(490,-169,o),
(572,-144,o),
(635,-121,c),
(626,-63,l),
(604,-65,o),
(578,-66,o),
(548,-67,c),
(492,-56,o),
(432,-21,o),
(370,3,c),
(434,17,o),
(496,40,o),
(540,70,c),
(614,178,o),
(666,322,o),
(666,442,cs),
(666,572,o),
(609,672,o),
(472,672,cs),
(372,672,o),
(235,635,o),
(145,585,c),
(76,481,o),
(28,347,o),
(28,230,cs),
(28,93,o),
(93,-12,o),
(244,-12,c),
(306,-79,o),
(369,-142,o),
(432,-171,c)
);
},
{
closed = 1;
nodes = (
(269,91,o),
(259,144,o),
(260,207,cs),
(260,305,o),
(303,493,o),
(345,583,c),
(359,589,o),
(389,591,o),
(403,591,c),
(426,569,o),
(434,522,o),
(434,463,cs),
(434,362,o),
(391,167,o),
(349,74,c),
(345,71,o),
(306,67,o),
(294,67,c)
);
}
);
width = 653;
},
{
anchors = (
{
name = bottom;
pos = (284,0);
},
{
name = top;
pos = (364,646);
}
);
background = {
shapes = (
{
ref = O;
}
);
};
layerId = "2F2E705F-35A9-412F-BB04-95DF071C0E1E";
shapes = (
{
closed = 1;
nodes = (
(509,-145,o),
(539,-139,o),
(557,-136,c),
(556,-122,l),
(527,-124,o),
(498,-126,o),
(475,-120,cs),
(450,-113,o),
(328,-67,o),
(270,-5,c),
(333,-10,o),
(418,43,o),
(481,96,c),
(543,183,o),
(585,272,o),
(585,383,cs),
(585,527,o),
(494,646,o),
(364,646,c),
(312,646,o),
(217,589,o),
(172,548,c),
(105,461,o),
(61,367,o),
(61,252,cs),
(61,128,o),
(131,19,o),
(243,-1,c),
(316,-83,o),
(437,-128,o),
(491,-145,c)
);
},
{
closed = 1;
nodes = (
(157,9,o),
(80,126,o),
(80,256,cs),
(80,357,o),
(117,456,o),
(187,539,c),
(238,578,o),
(304,624,o),
(359,630,c),
(479,630,o),
(567,519,o),
(567,382,cs),
(567,289,o),
(528,186,o),
(466,105,c),
(423,66,o),
(338,15,o),
(294,10,c)
);
}
);
width = 601;
}
);
metricLeft = O;
metricRight = "=O-54";
unicode = 81;
},
{
color = 4;
glyphname = R;
kernLeft = H;
kernRight = R;
lastChange = "2022-12-16 16:12:24 +0000";
layers = (
{
associatedMasterId = UUID0;
background = {
shapes = (
{
closed = 1;
nodes = (
(30,38,l),
(30,-9,l),
(109,-3,o),
(203,0,o),
(297,0,c),
(306,38,l),
(210,67,l),
(213,144,o),
(221,272,o),
(233,369,cs),
(251,517,o),
(262,583,o),
(262,583,c),
(262,583,o),
(343,597,o),
(422,597,cs),
(426,597,o),
(464,544,o),
(464,479,cs),
(464,419,o),
(437,353,o),
(439,353,c),
(398,327,o),
(334,313,o),
(271,313,cs),
(271,313,o),
(266,296,o),
(263,269,c),
(263,269,o),
(317,262,o),
(376,262,c),
(441,302,o),
(504,358,o),
(504,358,c),
(506,358,o),
(553,433,o),
(553,501,cs),
(553,595,o),
(483,640,o),
(483,640,c),
(483,640,o),
(449,652,o),
(391,652,cs),
(316,652,o),
(211,646,o),
(107,640,cs),
(107,640,o),
(99,623,o),
(96,596,c),
(172,574,l),
(172,539,o),
(170,476,o),
(157,356,cs),
(145,241,o),
(124,121,o),
(111,54,c)
);
},
{
closed = 1;
nodes = (
(400,64,o),
(438,-3,o),
(553,-50,c),
(581,-15,l),
(495,72,l),
(450,153,o),
(409,246,o),
(390,292,c),
(301,265,l)
);
}
);
};
hints = (
{
place = (153, 79);
place = (153, 79);
type = Stem;
},
{
place = (463, 91);
place = (463, 91);
type = Stem;
},
{
horizontal = 1;
place = (271, 55);
place = (271, 55);
type = Stem;
},
{
horizontal = 1;
place = (597, 43);
place = (597, 43);
type = Stem;
},
{
horizontal = 1;
place = (597, 55);
place = (597, 55);
type = Stem;
},
{
horizontal = 1;
place = (0, 21);
target = up;
type = BottomGhost;
},
{
horizontal = 1;
place = (-12, 21);
target = up;
type = BottomGhost;
}
);
layerId = "5B5D8098-D68B-4143-B33E-6462C004A356";
name = "STENCIL no";
shapes = (
{
closed = 1;
nodes = (
(400,64,o),
(438,-3,o),
(553,-50,c),
(581,-15,l),
(495,72,l),
(450,153,o),
(409,246,o),
(390,292,c),
(301,265,l)
);
},
{
closed = 1;
nodes = (
(20,38,l),
(18,-9,l),
(97,-3,o),
(187,0,o),
(281,0,c),
(292,38,l),
(198,67,l),
(205,144,o),
(218,272,o),
(236,369,cs),
(263,517,o),
(271,548,o),
(279,571,c),
(297,575,o),
(357,585,o),
(435,585,cs),
(440,585,o),
(474,532,o),
(474,479,cs),
(474,419,o),
(451,370,o),
(438,353,c),
(390,322,o),
(344,315,o),
(272,313,c),
(268,301,o),
(266,286,o),
(264,269,c),
(281,266,o),
(315,261,o),
(374,261,c),
(437,299,o),
(476,330,o),
(507,357,c),
(532,393,o),
(563,443,o),
(563,501,cs),
(563,563,o),
(543,597,o),
(502,629,c),
(468,643,o),
(430,646,o),
(381,646,cs),
(325,646,o),
(185,642,o),
(122,640,c),
(117,629,o),
(112,614,o),
(111,596,c),
(186,574,l),
(184,539,o),
(179,476,o),
(160,356,cs),
(142,241,o),
(118,121,o),
(102,54,c)
);
}
);
width = 660;
},
{
associatedMasterId = UUID0;
background = {
shapes = (
{
closed = 1;
nodes = (
(46,38,l),
(46,-9,l),
(125,-3,o),
(219,0,o),
(313,0,c),
(322,38,l),
(226,67,l),
(229,144,o),
(237,272,o),
(249,369,cs),
(267,517,o),
(278,583,o),
(278,583,c),
(278,583,o),
(359,597,o),
(438,597,cs),
(442,597,o),
(480,544,o),
(480,479,cs),
(480,419,o),
(453,353,o),
(455,353,c),
(414,327,o),
(350,313,o),
(287,313,cs),
(287,313,o),
(282,296,o),
(279,269,c),
(279,269,o),
(333,262,o),
(392,262,c),
(457,302,o),
(520,358,o),
(520,358,c),
(522,358,o),
(569,433,o),
(569,501,cs),
(569,595,o),
(499,640,o),
(499,640,c),
(499,640,o),
(465,652,o),
(407,652,cs),
(332,652,o),
(227,646,o),
(123,640,cs),
(123,640,o),
(115,623,o),
(112,596,c),
(188,574,l),
(188,539,o),
(186,476,o),
(173,356,cs),
(161,241,o),
(140,121,o),
(127,54,c)
);
},
{
closed = 1;
nodes = (
(416,64,o),
(454,-3,o),
(569,-50,c),
(597,-15,l),
(511,72,l),
(466,153,o),
(425,246,o),
(406,292,c),
(317,265,l)
);
}
);
};
hints = (
{
place = (153, 79);
place = (153, 79);
type = Stem;
},
{
place = (463, 91);
place = (463, 91);
type = Stem;
},
{
horizontal = 1;
place = (271, 55);
place = (271, 55);
type = Stem;
},
{
horizontal = 1;
place = (597, 43);
place = (597, 43);
type = Stem;
},
{
horizontal = 1;
place = (597, 55);
place = (597, 55);
type = Stem;
},
{
horizontal = 1;
place = (0, 21);
target = up;
type = BottomGhost;
},
{
horizontal = 1;
place = (-12, 21);
target = up;
type = BottomGhost;
}
);
layerId = "9AE8AF1D-6787-440C-8D4C-CA0DFB389650";
name = "Oct 27 19, 16:21";
shapes = (
{
closed = 1;
nodes = (
(270,517,o),
(285,583,o),
(285,583,c),
(285,583,o),
(367,597,o),
(446,597,cs),
(450,597,o),
(494,538,o),
(480,464,cs),
(470,410,o),
(450,363,o),
(450,363,c),
(416,340,o),
(374,326,o),
(374,326,c),
(234,326,l),
(242,369,l)
);
},
{
closed = 1;
nodes = (
(407,286,l),
(407,286,o),
(407,287,o),
(407,287,c),
(465,325,o),
(501,355,o),
(515,368,c),
(529,386,o),
(560,430,o),
(569,481,cs),
(586,577,o),
(529,628,o),
(509,640,c),
(498,644,o),
(467,652,o),
(418,652,cs),
(343,652,o),
(236,640,o),
(133,640,c),
(130,633,o),
(123,619,o),
(119,596,c),
(195,574,l),
(195,574,o),
(197,527,o),
(165,356,cs),
(144,244,o),
(118,127,o),
(102,59,c),
(19,38,l),
(16,19,o),
(17,-9,o),
(17,-9,c),
(17,-9,o),
(143,0,o),
(266,0,cs),
(266,0,o),
(273,15,o),
(277,38,c),
(203,71,l),
(208,124,o),
(217,198,o),
(227,271,c),
(288,270,o),
(315,260,o),
(315,260,c),
(315,260,o),
(315,259,o),
(315,259,c)
);
},
{
closed = 1;
nodes = (
(412,64,o),
(450,-3,o),
(565,-50,c),
(593,-15,l),
(507,72,l),
(462,153,o),
(421,246,o),
(402,292,c),
(313,265,l)
);
}
);
width = 587;
},
{
associatedMasterId = UUID0;
background = {
shapes = (
{
closed = 1;
nodes = (
(46,38,l),
(46,-9,l),
(125,-3,o),
(219,0,o),
(313,0,c),
(322,38,l),
(226,67,l),
(229,144,o),
(237,272,o),
(249,369,cs),
(267,517,o),
(278,583,o),
(278,583,c),
(278,583,o),
(359,597,o),
(438,597,cs),
(442,597,o),
(480,544,o),
(480,479,cs),
(480,419,o),
(453,353,o),
(455,353,c),
(414,327,o),
(350,313,o),
(287,313,cs),
(287,313,o),
(282,296,o),
(279,269,c),
(279,269,o),
(333,262,o),
(392,262,c),
(457,302,o),
(520,358,o),
(520,358,c),
(522,358,o),
(569,433,o),
(569,501,cs),
(569,595,o),
(499,640,o),
(499,640,c),
(499,640,o),
(465,652,o),
(407,652,cs),
(332,652,o),
(227,646,o),
(123,640,cs),
(123,640,o),
(115,623,o),
(112,596,c),
(188,574,l),
(188,539,o),
(186,476,o),
(173,356,cs),
(161,241,o),
(140,121,o),
(127,54,c)
);
},
{
closed = 1;
nodes = (
(416,64,o),
(454,-3,o),
(569,-50,c),
(597,-15,l),
(511,72,l),
(466,153,o),
(425,246,o),
(406,292,c),
(317,265,l)
);
}
);
};
hints = (
{
place = (153, 79);
place = (153, 79);
type = Stem;
},
{
place = (463, 91);
place = (463, 91);
type = Stem;
},
{
horizontal = 1;
place = (271, 55);
place = (271, 55);
type = Stem;
},
{
horizontal = 1;
place = (597, 43);
place = (597, 43);
type = Stem;
},
{
horizontal = 1;
place = (597, 55);
place = (597, 55);
type = Stem;
},
{
horizontal = 1;
place = (0, 21);
target = up;
type = BottomGhost;
},
{
horizontal = 1;
place = (-12, 21);
target = up;
type = BottomGhost;
}
);
layerId = "BD03D50C-26F9-4880-BF81-6CACADD9E584";
name = "Oct 27 19, 16:21";
shapes = (
{
closed = 1;
nodes = (
(270,517,o),
(285,583,o),
(285,583,c),
(285,583,o),
(367,597,o),
(446,597,cs),
(450,597,o),
(494,538,o),
(480,464,cs),
(470,410,o),
(450,363,o),
(450,363,c),
(416,340,o),
(374,326,o),
(374,326,c),
(234,326,l),
(242,369,l)
);
},
{
closed = 1;
nodes = (
(407,286,l),
(407,286,o),
(407,287,o),
(407,287,c),
(465,325,o),
(501,355,o),
(515,368,c),
(529,386,o),
(560,430,o),
(569,481,cs),
(586,577,o),
(529,628,o),
(509,640,c),
(498,644,o),
(467,652,o),
(418,652,cs),
(343,652,o),
(236,640,o),
(133,640,c),
(130,633,o),
(123,619,o),
(119,596,c),
(195,574,l),
(195,574,o),
(197,527,o),
(165,356,cs),
(144,244,o),
(118,127,o),
(102,59,c),
(19,38,l),
(16,19,o),
(17,-9,o),
(17,-9,c),
(17,-9,o),
(143,0,o),
(266,0,cs),
(266,0,o),
(273,15,o),
(277,38,c),
(203,71,l),
(208,124,o),
(217,198,o),
(227,271,c),
(288,270,o),
(315,260,o),
(315,260,c),
(315,260,o),
(315,259,o),
(315,259,c)
);
},
{
closed = 1;
nodes = (
(412,64,o),
(450,-3,o),
(565,-50,c),
(593,-15,l),
(507,72,l),
(462,153,o),
(421,246,o),
(402,292,c),
(313,265,l)
);
}
);
width = 587;
},
{
anchors = (
{
name = bottom;
pos = (319,0);
},
{
name = top;
pos = (379,652);
}
);
background = {
shapes = (
{
closed = 1;
nodes = (
(291,305,o),
(289,299,o),
(289,277,c),
(307,271,o),
(331,266,o),
(362,266,c),
(425,292,o),
(478,332,o),
(510,359,c),
(537,396,o),
(570,452,o),
(570,501,cs),
(570,563,o),
(551,597,o),
(510,629,c),
(476,643,o),
(443,646,o),
(394,646,cs),
(338,646,o),
(198,642,o),
(135,640,c),
(130,629,o),
(125,614,o),
(124,596,c),
(199,574,l),
(197,539,o),
(192,476,o),
(173,356,cs),
(155,241,o),
(131,121,o),
(115,54,c),
(33,38,l),
(31,-9,l),
(110,-3,o),
(200,0,o),
(294,0,c),
(305,38,l),
(211,67,l),
(218,144,o),
(231,272,o),
(249,369,cs),
(276,517,o),
(284,548,o),
(292,571,c),
(310,575,o),
(370,585,o),
(448,585,cs),
(453,585,o),
(487,531,o),
(487,479,cs),
(487,423,o),
(454,372,o),
(441,355,c),
(387,330,o),
(348,320,o),
(296,317,c)
);
},
{
closed = 1;
nodes = (
(550,-6,l),
(488,52,l),
(429,127,o),
(389,248,o),
(373,294,c),
(289,277,l),
(373,75,o),
(425,-27,o),
(534,-35,c),
(550,-15,l)
);
}
);
};
hints = (
{
place = (153, 79);
place = (153, 79);
type = Stem;
},
{
place = (463, 91);
place = (463, 91);
type = Stem;
},
{
horizontal = 1;
place = (271, 55);
place = (271, 55);
type = Stem;
},
{
horizontal = 1;
place = (597, 43);
place = (597, 43);
type = Stem;
},
{
horizontal = 1;
place = (597, 55);
place = (597, 55);
type = Stem;
},
{
horizontal = 1;
place = (0, 21);
target = up;
type = BottomGhost;
},
{
horizontal = 1;
place = (-12, 21);
target = up;
type = BottomGhost;
}
);
layerId = UUID0;
shapes = (
{
closed = 1;
nodes = (
(110,-3,o),
(200,0,o),
(294,0,c),
(298,13,o),
(301,25,o),
(305,38,c),
(211,67,l),
(222,189,o),
(257,470,o),
(292,571,c),
(309,575,o),
(364,584,o),
(436,585,cs),
(440,585,o),
(444,585,o),
(448,585,cs),
(453,585,o),
(487,531,o),
(487,479,cs),
(487,423,o),
(454,372,o),
(441,355,c),
(387,330,o),
(348,320,o),
(296,317,c),
(291,305,o),
(289,299,o),
(289,277,c),
(307,271,o),
(331,266,o),
(362,266,c),
(425,292,o),
(478,332,o),
(510,359,c),
(537,396,o),
(570,452,o),
(570,501,cs),
(570,563,o),
(551,597,o),
(510,629,c),
(476,643,o),
(443,646,o),
(394,646,cs),
(338,646,o),
(198,642,o),
(135,640,c),
(130,629,o),
(125,614,o),
(124,596,c),
(199,574,l),
(192,443,o),
(146,183,o),
(115,54,c),
(33,38,l),
(32,22,o),
(32,7,o),
(31,-9,c)
);
},
{
closed = 1;
nodes = (
(550,-15,l),
(550,-6,l),
(474,55,o),
(436,113,o),
(373,294,c),
(289,277,l),
(327,185,o),
(359,113,o),
(393,62,cs),
(432,1,o),
(475,-31,o),
(534,-35,c)
);
}
);
width = 582;
},
{
anchors = (
{
name = bottom;
pos = (363,0);
},
{
name = top;
pos = (399,660);
}
);
layerId = "B4F86D1D-EB2F-477C-956E-3DDEB412089F";
shapes = (
{
closed = 1;
nodes = (
(136,-3,o),
(204,-2,o),
(319,0,c),
(325,13,o),
(328,25,o),
(330,38,c),
(291,57,l),
(298,170,o),
(334,474,o),
(355,589,c),
(360,591,o),
(378,595,o),
(398,598,cs),
(411,600,o),
(424,601,o),
(435,602,c),
(446,578,o),
(450,542,o),
(450,502,cs),
(450,439,o),
(438,383,o),
(425,327,c),
(403,318,o),
(380,312,o),
(359,307,c),
(355,293,o),
(352,274,o),
(352,260,c),
(396,256,o),
(440,256,o),
(485,256,c),
(525,276,o),
(575,316,o),
(604,346,c),
(637,394,o),
(658,433,o),
(658,496,cs),
(659,559,o),
(640,619,o),
(594,656,c),
(580,661,o),
(544,666,o),
(486,666,cs),
(387,666,o),
(215,664,o),
(103,660,c),
(98,647,o),
(95,635,o),
(94,622,c),
(141,602,l),
(133,468,o),
(99,201,o),
(73,49,c),
(22,38,l),
(20,24,o),
(20,9,o),
(21,-5,c)
);
},
{
closed = 1;
nodes = (
(675,-25,l),
(675,-16,l),
(635,45,o),
(511,187,o),
(460,307,c),
(352,260,l),
(360,202,o),
(381,115,o),
(396,55,cs),
(409,3,o),
(575,-38,o),
(650,-56,c)
);
}
);
width = 646;
},
{
anchors = (
{
name = bottom;
pos = (310,0);
},
{
name = top;
pos = (370,652);
}
);
background = {
shapes = (
{
closed = 1;
nodes = (
(367,629,o),
(409,626,o),
(446,617,c),
(483,586,o),
(499,547,o),
(499,505,cs),
(499,457,o),
(478,407,o),
(442,364,c),
(386,320,o),
(351,307,o),
(241,311,c),
(239,309,o),
(238,304,o),
(238,301,c),
(256,296,o),
(288,296,o),
(319,296,c),
(381,302,o),
(423,326,o),
(457,356,c),
(494,404,o),
(516,455,o),
(517,505,cs),
(517,550,o),
(499,592,o),
(457,629,c),
(423,643,o),
(390,646,o),
(341,646,cs),
(301,646,o),
(198,640,o),
(118,640,c),
(115,635,o),
(115,631,o),
(115,627,c),
(209,621,l),
(183,412,o),
(152,160,o),
(134,19,c),
(38,7,l),
(37,2,o),
(37,-1,o),
(37,-6,c),
(116,-1,o),
(169,0,o),
(263,0,c),
(265,5,o),
(265,9,o),
(265,14,c),
(153,18,l),
(172,187,o),
(203,458,o),
(229,622,c),
(266,626,o),
(304,629,o),
(341,629,cs)
);
},
{
closed = 1;
nodes = (
(514,-18,l),
(514,-9,l),
(438,42,o),
(410,109,o),
(336,300,c),
(319,297,l),
(357,205,o),
(385,117,o),
(419,66,cs),
(459,6,o),
(490,-19,o),
(509,-23,c)
);
}
);
};
layerId = "2F2E705F-35A9-412F-BB04-95DF071C0E1E";
shapes = (
{
closed = 1;
nodes = (
(116,-1,o),
(169,0,o),
(263,0,c),
(265,5,o),
(265,9,o),
(265,14,c),
(153,18,l),
(172,187,o),
(203,459,o),
(229,623,c),
(260,626,o),
(328,630,o),
(364,630,cs),
(400,630,o),
(441,621,o),
(452,616,c),
(482,593,o),
(499,547,o),
(499,505,cs),
(499,457,o),
(478,407,o),
(442,364,c),
(386,320,o),
(351,307,o),
(241,311,c),
(239,309,o),
(238,304,o),
(238,301,c),
(256,296,o),
(288,296,o),
(319,296,c),
(381,302,o),
(423,326,o),
(457,356,c),
(494,404,o),
(516,455,o),
(517,505,cs),
(517,550,o),
(497,603,o),
(466,628,c),
(448,640,o),
(406,646,o),
(368,646,cs),
(302,646,o),
(180,640,o),
(117,640,c),
(115,636,o),
(114,632,o),
(114,627,c),
(208,622,l),
(182,413,o),
(152,160,o),
(134,19,c),
(38,7,l),
(37,2,o),
(37,-1,o),
(37,-6,c)
);
},
{
closed = 1;
nodes = (
(514,-18,l),
(514,-9,l),
(438,42,o),
(410,109,o),
(336,300,c),
(319,297,l),
(357,205,o),
(385,117,o),
(419,66,cs),
(459,6,o),
(490,-19,o),
(509,-23,c)
);
}
);
width = 562;
}
);
metricLeft = H;
unicode = 82;
},
{
color = 4;
glyphname = S;
kernLeft = S;
kernRight = S;
lastChange = "2022-12-20 13:38:38 +0000";
layers = (
{
anchors = (
{
name = bottom;
pos = (215,0);
},
{
name = top;
pos = (325,652);
}
);
background = {
shapes = (
{
closed = 1;
nodes = (
(32,31,l),
(83,0,o),
(139,-12,o),
(203,-12,c),
(313,5,o),
(447,101,o),
(447,195,cs),
(447,323,o),
(200,342,o),
(200,476,cs),
(200,496,o),
(206,532,o),
(220,557,c),
(245,570,o),
(284,580,o),
(324,580,cs),
(363,580,o),
(384,572,o),
(407,557,c),
(407,454,l),
(458,454,l),
(499,609,l),
(496,618,l),
(465,636,o),
(394,652,o),
(355,652,c),
(285,644,o),
(218,612,o),
(165,558,cs),
(131,523,o),
(114,476,o),
(114,428,cs),
(114,326,o),
(273,274,o),
(363,190,c),
(357,148,o),
(326,88,o),
(316,76,c),
(224,54,o),
(142,73,o),
(67,113,c),
(51,104,l)
);
}
);
};
hints = (
{
place = (62, 83);
place = (62, 83);
type = Stem;
},
{
horizontal = 1;
place = (-12, 65);
place = (-12, 65);
type = Stem;
},
{
horizontal = 1;
place = (591, 61);
place = (591, 61);
type = Stem;
},
{
horizontal = 1;
place = (462, -20);
target = down;
type = TopGhost;
}
);
layerId = UUID0;
shapes = (
{
closed = 1;
nodes = (
(313,5,o),
(447,101,o),
(447,195,cs),
(447,323,o),
(200,342,o),
(200,476,cs),
(200,496,o),
(206,532,o),
(220,557,c),
(245,570,o),
(284,580,o),
(324,580,cs),
(363,580,o),
(384,572,o),
(407,557,c),
(407,454,l),
(458,454,l),
(499,609,l),
(496,618,l),
(465,636,o),
(394,652,o),
(355,652,c),
(285,644,o),
(218,612,o),
(165,558,cs),
(131,523,o),
(114,476,o),
(114,428,cs),
(114,326,o),
(273,274,o),
(363,190,c),
(357,148,o),
(326,88,o),
(316,76,c),
(289,70,o),
(263,67,o),
(237,67,cs),
(176,67,o),
(120,85,o),
(67,113,c),
(51,104,l),
(32,31,l),
(83,0,o),
(139,-12,o),
(203,-12,c)
);
}
);
width = 514;
},
{
anchors = (
{
name = bottom;
pos = (243,0);
},
{
name = top;
pos = (356,660);
}
);
background = {
shapes = (
{
closed = 1;
nodes = (
(433,-12,o),
(512,139,o),
(523,235,cs),
(531,293,o),
(458,351,o),
(383,397,cs),
(326,433,o),
(261,476,o),
(237,526,cs),
(229,542,o),
(226,559,o),
(228,577,c),
(260,577,o),
(289,575,o),
(315,568,cs),
(342,560,o),
(368,548,o),
(396,528,c),
(424,423,l),
(428,418,l),
(503,424,l),
(539,640,l),
(535,648,l),
(486,664,o),
(413,672,o),
(355,672,cs),
(305,672,o),
(230,656,o),
(187,630,c),
(143,598,o),
(77,486,o),
(68,415,cs),
(60,349,o),
(130,285,o),
(201,242,cs),
(252,211,o),
(316,168,o),
(342,123,cs),
(351,109,o),
(356,94,o),
(354,79,c),
(269,79,o),
(139,111,o),
(37,175,c),
(22,167,l),
(5,11,l),
(32,2,o),
(199,-12,o),
(259,-12,cs)
);
}
);
};
layerId = "B4F86D1D-EB2F-477C-956E-3DDEB412089F";
shapes = (
{
closed = 1;
nodes = (
(384,-13,o),
(503,61,o),
(523,235,cs),
(538,346,o),
(288,419,o),
(237,526,cs),
(229,542,o),
(226,559,o),
(228,577,c),
(266,577,o),
(297,575,o),
(327,567,cs),
(353,560,o),
(398,548,o),
(426,528,c),
(436,424,l),
(513,424,l),
(559,640,l),
(555,648,l),
(506,664,o),
(433,672,o),
(355,672,cs),
(305,672,o),
(230,656,o),
(187,630,c),
(143,598,o),
(77,486,o),
(68,415,cs),
(52,286,o),
(283,226,o),
(342,123,cs),
(351,109,o),
(356,94,o),
(354,79,c),
(319,79,o),
(279,88,o),
(238,103,cs),
(178,124,o),
(115,157,o),
(55,195,c),
(40,187,l),
(5,41,l),
(83,7,o),
(164,-12,o),
(237,-12,cs)
);
}
);
width = 553;
},
{
anchors = (
{
name = bottom;
pos = (214,0);
},
{
name = top;
pos = (309,652);
}
);
layerId = "2F2E705F-35A9-412F-BB04-95DF071C0E1E";
shapes = (
{
closed = 1;
nodes = (
(305,-6,o),
(420,74,o),
(421,197,cs),
(422,306,o),
(127,345,o),
(127,465,cs),
(127,509,o),
(152,551,o),
(186,583,cs),
(217,611,o),
(267,630,o),
(293,630,cs),
(337,630,o),
(395,624,o),
(425,613,c),
(411,474,l),
(424,474,l),
(447,621,l),
(445,627,l),
(392,644,o),
(316,646,o),
(291,646,c),
(248,641,o),
(204,621,o),
(170,590,cs),
(134,558,o),
(109,513,o),
(109,463,cs),
(109,335,o),
(372,300,o),
(403,202,c),
(402,144,o),
(380,99,o),
(345,68,cs),
(303,31,o),
(243,12,o),
(177,12,cs),
(137,12,o),
(78,36,o),
(52,44,c),
(45,42,l),
(40,28,l),
(86,9,o),
(142,-6,o),
(187,-6,c)
);
}
);
width = 489;
}
);
unicode = 83;
},
{
color = 4;
glyphname = Saltillo;
lastChange = "2022-12-16 16:16:03 +0000";
layers = (
{
layerId = UUID0;
shapes = (
{
closed = 1;
nodes = (
(121,316,l),
(157,431,o),
(185,585,o),
(194,639,c),
(180,652,l),
(157,652,o),
(120,650,o),
(102,647,c),
(101,620,o),
(99,566,o),
(99,510,c),
(91,434,o),
(82,366,o),
(75,319,c),
(81,311,l)
);
}
);
width = 213;
},
{
layerId = "B4F86D1D-EB2F-477C-956E-3DDEB412089F";
shapes = (
{
closed = 1;
nodes = (
(115,304,l),
(152,419,o),
(202,605,o),
(211,659,c),
(196,672,l),
(175,672,o),
(96,670,o),
(78,667,c),
(77,621,o),
(76,576,o),
(75,530,c),
(66,456,o),
(56,381,o),
(47,307,c),
(53,299,l)
);
}
);
width = 209;
},
{
layerId = "2F2E705F-35A9-412F-BB04-95DF071C0E1E";
shapes = (
{
closed = 1;
nodes = (
(139,391,l),
(155,469,o),
(176,602,o),
(181,640,c),
(174,646,l),
(165,646,o),
(158,645,o),
(151,643,c),
(150,624,o),
(147,567,o),
(144,529,c),
(139,477,o),
(131,425,o),
(127,394,c),
(131,388,l)
);
}
);
width = 220;
}
);
unicode = 42891;
},
{
color = 4;
glyphname = T;
kernLeft = T;
kernRight = T;
lastChange = "2022-12-17 14:55:24 +0000";
layers = (
{
anchors = (
{
name = bottom;
pos = (230,0);
},
{
name = center;
pos = (272,286);
},
{
name = top;
pos = (320,640);
}
);
background = {
shapes = (
{
closed = 1;
nodes = (
(370,582,o),
(500,582,c),
(514,456,l),
(559,461,l),
(592,634,l),
(579,647,l),
(499,644,o),
(384,640,o),
(320,640,cs),
(48,640,l),
(17,465,l),
(60,457,l),
(117,571,l),
(219,579,o)
);
},
{
closed = 1;
nodes = (
(265,582,l),
(263,547,o),
(258,477,o),
(239,357,cs),
(221,242,o),
(197,121,o),
(181,54,c),
(99,39,l),
(97,-8,l),
(176,-2,o),
(266,1,o),
(360,1,c),
(371,39,l),
(277,67,l),
(292,236,o),
(320,424,o),
(358,584,c)
);
}
);
};
hints = (
{
place = (238, 94);
place = (238, 94);
type = Stem;
},
{
place = (250, 82);
place = (250, 82);
type = Stem;
},
{
horizontal = 1;
place = (571, 69);
place = (571, 69);
type = Stem;
},
{
horizontal = 1;
place = (-9, 21);
target = up;
type = BottomGhost;
},
{
horizontal = 1;
place = (0, 21);
target = up;
type = BottomGhost;
},
{
horizontal = 1;
place = (647, -20);
target = down;
type = TopGhost;
}
);
layerId = UUID0;
shapes = (
{
closed = 1;
nodes = (
(178,-2,o),
(266,1,o),
(360,1,c),
(366,14,o),
(369,26,o),
(371,39,c),
(277,67,l),
(292,235,o),
(320,421,o),
(357,581,c),
(405,582,o),
(454,582,o),
(500,582,c),
(514,456,l),
(529,458,o),
(544,459,o),
(559,461,c),
(592,634,l),
(579,647,l),
(499,644,o),
(384,640,o),
(320,640,cs),
(48,640,l),
(17,465,l),
(31,462,o),
(46,460,o),
(60,457,c),
(117,571,l),
(159,574,o),
(210,577,o),
(265,579,c),
(258,448,o),
(212,184,o),
(181,54,c),
(99,39,l),
(98,23,o),
(98,8,o),
(99,-8,c)
);
}
);
width = 542;
},
{
anchors = (
{
name = bottom;
pos = (308,0);
},
{
name = center;
pos = (335,267);
},
{
name = top;
pos = (376,660);
}
);
layerId = "B4F86D1D-EB2F-477C-956E-3DDEB412089F";
shapes = (
{
closed = 1;
nodes = (
(236,-3,o),
(355,-2,o),
(476,0,c),
(481,14,o),
(485,29,o),
(487,43,c),
(411,72,l),
(421,208,o),
(451,430,o),
(476,597,c),
(488,597,o),
(514,595,o),
(522,592,c),
(532,381,l),
(567,383,o),
(601,386,o),
(636,388,c),
(664,662,l),
(659,672,l),
(528,665,o),
(399,660,o),
(269,660,c),
(86,660,l),
(43,400,l),
(76,396,o),
(110,392,o),
(143,388,c),
(211,585,l),
(221,588,o),
(247,592,o),
(259,592,c),
(249,443,o),
(221,213,o),
(193,64,c),
(114,43,l),
(112,27,o),
(113,11,o),
(115,-5,c)
);
}
);
width = 600;
},
{
anchors = (
{
name = bottom;
pos = (249,0);
},
{
name = center;
pos = (284,293);
},
{
name = top;
pos = (329,646);
}
);
layerId = "2F2E705F-35A9-412F-BB04-95DF071C0E1E";
shapes = (
{
closed = 1;
nodes = (
(218,-1,o),
(280,2,o),
(367,0,c),
(368,4,o),
(370,9,o),
(370,13,c),
(259,21,l),
(270,132,o),
(316,494,o),
(335,625,c),
(404,629,o),
(465,630,o),
(558,630,c),
(548,453,l),
(552,453,o),
(558,454,o),
(561,455,c),
(580,630,l),
(581,646,l),
(485,645,o),
(396,642,o),
(328,642,c),
(76,646,l),
(48,455,l),
(51,454,o),
(57,453,o),
(61,453,c),
(95,630,l),
(188,630,o),
(249,629,o),
(314,625,c),
(306,534,o),
(251,108,o),
(240,19,c),
(134,7,l),
(134,1,o),
(134,-4,o),
(135,-6,c)
);
}
);
width = 553;
}
);
unicode = 84;
},
{
color = 4;
glyphname = U;
kernLeft = U;
kernRight = U;
lastChange = "2022-12-16 16:12:24 +0000";
layers = (
{
anchors = (
{
name = bottom;
pos = (315,0);
},
{
name = ogonek;
pos = (486,18);
},
{
name = top;
pos = (400,652);
},
{
name = topright;
pos = (604,643);
}
);
background = {
shapes = (
{
closed = 1;
nodes = (
(339,602,l),
(341,618,o),
(341,633,o),
(339,649,c),
(259,643,o),
(181,640,o),
(102,640,c),
(96,627,o),
(94,615,o),
(92,602,c),
(168,571,l),
(164,526,o),
(147,367,o),
(129,223,cs),
(105,34,o),
(245,-12,o),
(315,-12,cs),
(347,-12,o),
(378,-7,o),
(411,1,c),
(466,26,o),
(507,55,o),
(540,84,c),
(561,128,o),
(573,178,o),
(582,248,cs),
(603,412,o),
(628,571,o),
(630,582,c),
(703,602,l),
(705,618,o),
(705,633,o),
(704,649,c),
(626,643,o),
(547,640,o),
(470,640,c),
(465,627,o),
(462,615,o),
(461,602,c),
(549,569,l),
(546,516,o),
(538,404,o),
(526,299,cs),
(517,223,o),
(503,150,o),
(478,103,c),
(442,76,o),
(386,57,o),
(339,57,c),
(248,57,o),
(211,110,o),
(206,215,c),
(220,335,o),
(248,523,o),
(259,584,c)
);
}
);
};
hints = (
{
place = (116, 85);
place = (116, 85);
type = Stem;
},
{
place = (543, 67);
place = (543, 67);
type = Stem;
},
{
horizontal = 1;
place = (-12, 69);
place = (-12, 69);
type = Stem;
},
{
horizontal = 1;
place = (649, -20);
target = down;
type = TopGhost;
},
{
horizontal = 1;
place = (640, -20);
target = down;
type = TopGhost;
}
);
layerId = UUID0;
shapes = (
{
closed = 1;
nodes = (
(347,-12,o),
(378,-7,o),
(411,1,c),
(466,26,o),
(507,55,o),
(540,84,c),
(591,190,o),
(579,302,o),
(630,582,c),
(703,602,l),
(705,618,o),
(705,633,o),
(704,649,c),
(626,643,o),
(547,640,o),
(470,640,c),
(465,627,o),
(462,615,o),
(461,602,c),
(549,569,l),
(540,405,o),
(524,189,o),
(478,103,c),
(442,76,o),
(386,57,o),
(339,57,c),
(248,57,o),
(211,110,o),
(206,215,c),
(220,335,o),
(248,523,o),
(259,584,c),
(339,602,l),
(341,618,o),
(341,633,o),
(339,649,c),
(259,643,o),
(181,640,o),
(102,640,c),
(96,627,o),
(94,615,o),
(92,602,c),
(168,571,l),
(162,508,o),
(126,213,o),
(126,180,cs),
(127,27,o),
(251,-12,o),
(315,-12,cs)
);
}
);
width = 679;
},
{
anchors = (
{
name = bottom;
pos = (333,0);
},
{
name = ogonek;
pos = (508,22);
},
{
name = top;
pos = (414,660);
},
{
name = topright;
pos = (604,663);
}
);
background = {
shapes = (
{
closed = 1;
nodes = (
(399,622,l),
(401,636,o),
(401,651,o),
(399,665,c),
(297,663,o),
(196,662,o),
(93,660,c),
(88,647,o),
(86,635,o),
(84,622,c),
(131,602,l),
(133,527,o),
(114,333,o),
(98,201,cs),
(76,20,o),
(197,-12,o),
(315,-12,cs),
(342,-12,o),
(383,-6,o),
(412,2,c),
(463,27,o),
(516,69,o),
(546,114,c),
(551,169,o),
(558,223,o),
(565,278,cs),
(581,408,o),
(608,538,o),
(630,610,c),
(683,622,l),
(685,636,o),
(685,651,o),
(683,665,c),
(616,663,o),
(548,662,o),
(481,660,c),
(475,647,o),
(473,635,o),
(472,622,c),
(520,604,l),
(518,553,o),
(505,432,o),
(490,323,cs),
(478,232,o),
(464,149,o),
(454,124,c),
(441,115,o),
(404,100,o),
(364,100,cs),
(322,100,o),
(295,130,o),
(304,204,cs),
(318,317,o),
(345,521,o),
(359,613,c)
);
}
);
};
layerId = "B4F86D1D-EB2F-477C-956E-3DDEB412089F";
shapes = (
{
closed = 1;
nodes = (
(342,-12,o),
(383,-6,o),
(412,2,c),
(463,27,o),
(516,69,o),
(546,114,c),
(559,262,o),
(592,485,o),
(630,610,c),
(683,622,l),
(685,636,o),
(685,651,o),
(683,665,c),
(616,663,o),
(548,662,o),
(481,660,c),
(475,647,o),
(473,635,o),
(472,622,c),
(520,604,l),
(517,523,o),
(476,180,o),
(454,124,c),
(441,115,o),
(404,100,o),
(364,100,cs),
(318,100,o),
(303,126,o),
(303,196,cs),
(303,300,o),
(338,477,o),
(359,613,c),
(399,622,l),
(401,636,o),
(401,651,o),
(399,665,c),
(297,663,o),
(196,662,o),
(93,660,c),
(88,647,o),
(86,635,o),
(84,622,c),
(131,602,l),
(136,413,o),
(98,261,o),
(99,156,cs),
(100,47,o),
(142.002,-12,o),
(315,-12,cs)
);
}
);
width = 648;
},
{
anchors = (
{
name = bottom;
pos = (328,0);
},
{
name = ogonek;
pos = (499,18);
},
{
name = top;
pos = (413,652);
},
{
name = topright;
pos = (604,639);
}
);
background = {
shapes = (
{
closed = 1;
nodes = (
(368,-6,o),
(390,-1,o),
(416,8,cs),
(465,24,o),
(500,52,o),
(528,77,c),
(572,198,o),
(583,319,o),
(622,621,c),
(716,633,l),
(716,638,o),
(715,644,o),
(714,646,c),
(630,641,o),
(578,640,o),
(491,640,c),
(489,636,o),
(489,630,o),
(489,626,c),
(603,621,l),
(583,430,o),
(560,216,o),
(514,87,c),
(477,52,o),
(421,13,o),
(334,12,cs),
(173,10,o),
(153,120,o),
(166,226,c),
(185,379,o),
(208,547,o),
(220,622,c),
(330,632,l),
(330,636,o),
(330,642,o),
(329,646,c),
(241,642,o),
(189,640,o),
(106,640,c),
(105,638,o),
(104,633,o),
(104,627,c),
(197,621,l),
(188,534,o),
(166,367,o),
(148,226,cs),
(133,107,o),
(157,-6,o),
(332,-6,cs)
);
}
);
};
layerId = "2F2E705F-35A9-412F-BB04-95DF071C0E1E";
shapes = (
{
closed = 1;
nodes = (
(368,-6,o),
(390,-1,o),
(416,8,cs),
(465,24,o),
(500,52,o),
(528,77,c),
(572,198,o),
(583,319,o),
(622,621,c),
(716,633,l),
(716,638,o),
(715,644,o),
(714,646,c),
(630,641,o),
(578,640,o),
(491,640,c),
(489,636,o),
(489,630,o),
(489,626,c),
(603,621,l),
(583,430,o),
(560,216,o),
(514,87,c),
(477,52,o),
(421,12,o),
(334,11,cs),
(205,9,o),
(163,80,o),
(163,161,cs),
(163,236,o),
(204,534,o),
(218,622,c),
(330,632,l),
(330,636,o),
(330,642,o),
(329,646,c),
(241,642,o),
(189,640,o),
(106,640,c),
(105,638,o),
(104,633,o),
(104,627,c),
(196,621,l),
(184,503,o),
(144,227,o),
(144,166,cs),
(144,72,o),
(187,-6,o),
(332,-6,cs)
);
}
);
width = 700;
}
);
metricLeft = "=H-10";
metricRight = "=H-30";
unicode = 85;
},
{
color = 4;
glyphname = Uogonek;
kernLeft = U;
kernRight = U;
lastChange = "2022-12-16 16:12:24 +0000";
layers = (
{
background = {
shapes = (
{
ref = U;
},
{
pos = (330,8);
ref = ogonekcomb;
}
);
};
hints = (
{
place = (116, 85);
place = (116, 85);
type = Stem;
},
{
place = (543, 67);
place = (543, 67);
type = Stem;
},
{
horizontal = 1;
place = (-12, 69);
place = (-12, 69);
type = Stem;
},
{
horizontal = 1;
place = (649, -20);
target = down;
type = TopGhost;
},
{
horizontal = 1;
place = (640, -20);
target = down;
type = TopGhost;
}
);
layerId = UUID0;
shapes = (
{
closed = 1;
nodes = (
(413,-204,o),
(446,-173,o),
(465,-152,c),
(453,-130,l),
(424,-143,o),
(394,-156,o),
(367,-158,cs),
(363,-158,o),
(351,-139,o),
(351,-85,cs),
(351,-73,o),
(379,-21,o),
(441,16,cs),
(480,39,o),
(513,61,o),
(540,84,c),
(591,190,o),
(579,302,o),
(630,582,c),
(703,602,l),
(705,618,o),
(705,633,o),
(704,649,c),
(626,643,o),
(547,640,o),
(470,640,c),
(465,627,o),
(462,615,o),
(461,602,c),
(549,569,l),
(540,405,o),
(524,189,o),
(478,103,c),
(442,76,o),
(386,57,o),
(339,57,cs),
(248,57,o),
(211,110,o),
(206,215,c),
(220,335,o),
(248,523,o),
(259,584,c),
(339,602,l),
(341,618,o),
(341,633,o),
(339,649,c),
(259,643,o),
(181,640,o),
(102,640,c),
(96,627,o),
(94,615,o),
(92,602,c),
(168,571,l),
(162,508,o),
(126,213,o),
(126,180,cs),
(127,27,o),
(251,-12,o),
(315,-12,cs),
(336,-12,o),
(357,-10,o),
(375,-5,c),
(389,17,l),
(346,-15,o),
(290,-62,o),
(290,-109,cs),
(290,-147,o),
(293,-169,o),
(296,-172,cs),
(319,-195,o),
(350,-204,o),
(381,-204,cs)
);
}
);
width = 679;
},
{
background = {
shapes = (
{
ref = U;
},
{
pos = (340,12);
ref = ogonekcomb;
}
);
};
layerId = "B4F86D1D-EB2F-477C-956E-3DDEB412089F";
shapes = (
{
closed = 1;
nodes = (
(428,-208,o),
(469,-169,o),
(487,-147,c),
(468,-111,l),
(453,-121,o),
(434,-132,o),
(413,-141,c),
(409,-141,o),
(390,-119,o),
(390,-61,cs),
(390,-49,o),
(403,-17,o),
(455,23,cs),
(492,52,o),
(524,82,o),
(546,114,c),
(559,262,o),
(592,485,o),
(630,610,c),
(683,622,l),
(685,636,o),
(685,651,o),
(683,665,c),
(616,663,o),
(548,662,o),
(481,660,c),
(475,647,o),
(473,635,o),
(472,622,c),
(520,604,l),
(517,523,o),
(476,180,o),
(454,124,c),
(441,115,o),
(404,100,o),
(364,100,cs),
(318,100,o),
(303,126,o),
(303,196,cs),
(303,300,o),
(338,477,o),
(359,613,c),
(399,622,l),
(401,636,o),
(401,651,o),
(399,665,c),
(297,663,o),
(196,662,o),
(93,660,c),
(88,647,o),
(86,635,o),
(84,622,c),
(131,602,l),
(136,413,o),
(98,261,o),
(99,156,cs),
(100,47,o),
(142,-12,o),
(315,-12,cs),
(341,-12,o),
(385,-6,o),
(418,5,c),
(408,26,l),
(356,-6,o),
(298,-43,o),
(298,-96,cs),
(298,-137,o),
(301,-171,o),
(304,-174,cs),
(328,-196,o),
(362,-208,o),
(394,-208,cs)
);
}
);
width = 648;
},
{
background = {
shapes = (
{
ref = U;
},
{
pos = (359,8);
ref = ogonekcomb;
}
);
};
layerId = "2F2E705F-35A9-412F-BB04-95DF071C0E1E";
shapes = (
{
closed = 1;
nodes = (
(415,-209,o),
(447,-191,o),
(478,-167,c),
(471,-156,l),
(434,-180,o),
(418,-187,o),
(391,-192,c),
(362,-186,o),
(339,-165,o),
(340,-129,cs),
(341,-87,o),
(394,-17,o),
(448,19,cs),
(482,42,o),
(506,58,o),
(528,77,c),
(572,198,o),
(583,319,o),
(622,621,c),
(716,633,l),
(716,638,o),
(715,644,o),
(714,646,c),
(630,641,o),
(578,640,o),
(491,640,c),
(489,636,o),
(489,630,o),
(489,626,c),
(603,621,l),
(583,430,o),
(560,216,o),
(514,87,c),
(477,52,o),
(421,12,o),
(334,11,cs),
(205,9,o),
(163,80,o),
(163,161,cs),
(163,236,o),
(204,534,o),
(218,622,c),
(330,632,l),
(330,636,o),
(330,642,o),
(329,646,c),
(241,642,o),
(189,640,o),
(106,640,c),
(105,638,o),
(104,633,o),
(104,627,c),
(196,621,l),
(184,503,o),
(144,227,o),
(144,166,cs),
(144,72,o),
(187,-6,o),
(332,-6,cs),
(365,-6,o),
(396,-1,o),
(418,9,c),
(423,19,l),
(369,-22,o),
(321,-88,o),
(321,-130,cs),
(321,-148,o),
(327,-169,o),
(332,-180,c),
(348,-198,o),
(372,-209,o),
(394,-209,cs)
);
}
);
width = 700;
}
);
unicode = 370;
},
{
color = 4;
glyphname = V;
kernLeft = V;
kernRight = V;
lastChange = "2022-12-17 14:56:59 +0000";
layers = (
{
background = {
shapes = (
{
closed = 1;
nodes = (
(629,649,l),
(590,646,o),
(503,642,o),
(411,640,c),
(407,630,o),
(404,615,o),
(402,602,c),
(485,578,l),
(444,454,o),
(320,222,o),
(265,119,c),
(232,251,o),
(201,497,o),
(193,590,c),
(282,611,l),
(280,649,l),
(235,646,o),
(149,643,o),
(48,640,c),
(44,631,o),
(39,613,o),
(38,596,c),
(97,576,l),
(128,460,o),
(172,212,o),
(209,-12,c),
(222,-12,o),
(267,3,o),
(280,13,c),
(284,44,l),
(338,168,o),
(554,549,o),
(573,582,c),
(629,602,l)
);
}
);
};
hints = (
{
horizontal = 1;
place = (649, -20);
target = down;
type = TopGhost;
},
{
horizontal = 1;
place = (640, -20);
target = down;
type = TopGhost;
},
{
horizontal = 1;
place = (-12, 21);
target = up;
type = BottomGhost;
}
);
layerId = UUID0;
shapes = (
{
closed = 1;
nodes = (
(222,-12,o),
(267,3,o),
(280,13,c),
(284,44,l),
(338,168,o),
(554,549,o),
(573,582,c),
(629,602,l),
(630,618,o),
(630,633,o),
(629,649,c),
(590,646,o),
(503,642,o),
(411,640,c),
(407,630,o),
(404,615,o),
(402,602,c),
(485,578,l),
(444,454,o),
(320,222,o),
(265,119,c),
(232,251,o),
(201,497,o),
(193,590,c),
(282,611,l),
(282,624,o),
(282,636,o),
(280,649,c),
(235,646,o),
(149,643,o),
(48,640,c),
(44,631,o),
(39,613,o),
(38,596,c),
(97,576,l),
(128,460,o),
(172,212,o),
(209,-12,c)
);
}
);
width = 581;
},
{
layerId = "B4F86D1D-EB2F-477C-956E-3DDEB412089F";
shapes = (
{
closed = 1;
nodes = (
(263,-10,o),
(336,-2,o),
(410,10,c),
(414,40,l),
(471,192,o),
(598,489,o),
(648,606,c),
(684,618,l),
(686,634,o),
(686,649,o),
(685,665,c),
(615,663,o),
(543,662,o),
(473,660,c),
(468,647,o),
(466,635,o),
(464,622,c),
(535,604,l),
(521,491,o),
(489,402,o),
(396,153,c),
(371,254,o),
(356,398,o),
(349,600,c),
(412,618,l),
(414,634,o),
(414,649,o),
(412,665,c),
(299,663,o),
(185,662,o),
(72,660,c),
(69,645,o),
(67,631,o),
(67,616,c),
(96,603,l),
(96,604,o),
(187,2,o),
(189,-12,c)
);
}
);
width = 600;
},
{
background = {
shapes = (
{
closed = 1;
nodes = (
(558,642,o),
(510,641,o),
(450,641,c),
(448,637,o),
(447,630,o),
(447,627,c),
(536,623,l),
(487,510,o),
(318,153,o),
(257,21,c),
(255,30,l),
(194,302,o),
(178,376,o),
(123,623,c),
(216,629,l),
(217,633,o),
(217,640,o),
(217,643,c),
(161,642,o),
(106,641,o),
(51,640,c),
(50,637,o),
(49,629,o),
(49,626,c),
(105,622,l),
(151,414,o),
(199,208,o),
(245,0,c),
(246,-6,l),
(253,-5,o),
(260,-3,o),
(267,1,c),
(268,7,l),
(364,213,o),
(461,418,o),
(556,624,c),
(621,631,l),
(621,635,o),
(621,641,o),
(619,645,c)
);
}
);
};
layerId = "2F2E705F-35A9-412F-BB04-95DF071C0E1E";
shapes = (
{
closed = 1;
nodes = (
(253,-5,o),
(260,-3,o),
(267,1,c),
(268,7,l),
(364,213,o),
(461,418,o),
(556,624,c),
(621,631,l),
(621,635,o),
(621,641,o),
(619,645,c),
(558,642,o),
(510,641,o),
(450,641,c),
(448,637,o),
(447,630,o),
(447,627,c),
(536,623,l),
(487,510,o),
(318,153,o),
(257,21,c),
(194,301,o),
(177,379,o),
(123,623,c),
(216,629,l),
(217,633,o),
(217,640,o),
(217,643,c),
(161,642,o),
(106,641,o),
(51,640,c),
(50,637,o),
(49,629,o),
(49,626,c),
(105,622,l),
(150,419,o),
(198,211,o),
(246,-6,c)
);
}
);
width = 571;
}
);
unicode = 86;
},
{
color = 4;
glyphname = W;
kernLeft = V;
kernRight = V;
lastChange = "2022-12-14 10:58:19 +0000";
layers = (
{
anchors = (
{
name = bottom;
pos = (481,0);
},
{
name = top;
pos = (501,620);
}
);
background = {
shapes = (
{
closed = 1;
nodes = (
(469,535,l),
(418,406,o),
(314,211,o),
(265,119,c),
(232,251,o),
(201,497,o),
(193,590,c),
(282,611,l),
(280,649,l),
(235,646,o),
(149,643,o),
(48,640,c),
(44,631,o),
(39,613,o),
(38,596,c),
(97,576,l),
(128,460,o),
(172,212,o),
(209,-12,c),
(222,-12,o),
(267,3,o),
(280,13,c),
(284,44,l),
(322,132,o),
(441,347,o),
(514,478,c)
);
},
{
closed = 1;
nodes = (
(979,649,l),
(940,646,o),
(853,642,o),
(761,640,c),
(757,630,o),
(754,615,o),
(752,602,c),
(835,578,l),
(794,454,o),
(670,222,o),
(615,119,c),
(582,251,o),
(551,497,o),
(543,590,c),
(632,611,l),
(630,649,l),
(585,646,o),
(499,643,o),
(398,640,c),
(394,631,o),
(389,613,o),
(388,596,c),
(447,576,l),
(478,460,o),
(522,212,o),
(559,-12,c),
(572,-12,o),
(617,3,o),
(630,13,c),
(634,44,l),
(688,168,o),
(904,549,o),
(923,582,c),
(979,602,l)
);
}
);
};
hints = (
{
horizontal = 1;
place = (649, -20);
target = down;
type = TopGhost;
},
{
horizontal = 1;
place = (640, -20);
target = down;
type = TopGhost;
},
{
horizontal = 1;
place = (-12, 21);
target = up;
type = BottomGhost;
}
);
layerId = UUID0;
shapes = (
{
closed = 1;
nodes = (
(572,-12,o),
(617,3,o),
(630,13,c),
(634,44,l),
(688,168,o),
(904,549,o),
(923,582,c),
(979,602,l),
(979,618,o),
(979,633,o),
(979,649,c),
(940,646,o),
(853,642,o),
(761,640,c),
(757,630,o),
(754,615,o),
(752,602,c),
(835,578,l),
(794,454,o),
(670,222,o),
(615,119,c),
(582,251,o),
(551,497,o),
(543,590,c),
(632,611,l),
(631,624,o),
(631,636,o),
(630,649,c),
(585,646,o),
(499,643,o),
(398,640,c),
(394,631,o),
(389,613,o),
(388,596,c),
(447,576,l),
(478,460,o),
(522,212,o),
(559,-12,c)
);
},
{
closed = 1;
nodes = (
(222,-12,o),
(267,3,o),
(280,13,c),
(284,44,l),
(322,132,o),
(441,347,o),
(514,478,c),
(469,535,l),
(418,406,o),
(314,211,o),
(265,119,c),
(232,251,o),
(201,497,o),
(193,590,c),
(282,611,l),
(281,624,o),
(281,636,o),
(280,649,c),
(235,646,o),
(149,643,o),
(48,640,c),
(44,631,o),
(39,613,o),
(38,596,c),
(97,576,l),
(128,460,o),
(172,212,o),
(209,-12,c)
);
}
);
width = 931;
},
{
anchors = (
{
name = bottom;
pos = (526,0);
},
{
name = top;
pos = (576,660);
}
);
layerId = "B4F86D1D-EB2F-477C-956E-3DDEB412089F";
shapes = (
{
closed = 1;
nodes = (
(683,-10,o),
(756,-2,o),
(830,10,c),
(834,40,l),
(891,192,o),
(1018,489,o),
(1068,606,c),
(1104,618,l),
(1106,634,o),
(1106,649,o),
(1105,665,c),
(1035,663,o),
(963,662,o),
(893,660,c),
(888,647,o),
(886,635,o),
(884,622,c),
(955,604,l),
(941,491,o),
(909,402,o),
(816,153,c),
(791,254,o),
(776,398,o),
(769,600,c),
(832,618,l),
(834,634,o),
(834,649,o),
(832,665,c),
(719,663,o),
(605,662,o),
(492,660,c),
(489,645,o),
(487,631,o),
(487,616,c),
(516,603,l),
(516,604,o),
(607,2,o),
(609,-12,c)
);
},
{
closed = 1;
nodes = (
(263,-10,o),
(336,-2,o),
(410,10,c),
(414,40,l),
(456,153,o),
(537,346,o),
(597,485,c),
(526,545,l),
(508,454,o),
(472,358,o),
(396,153,c),
(371,254,o),
(356,398,o),
(349,600,c),
(412,618,l),
(414,634,o),
(414,649,o),
(412,665,c),
(299,663,o),
(185,662,o),
(72,660,c),
(69,645,o),
(67,631,o),
(67,616,c),
(96,603,l),
(96,604,o),
(187,2,o),
(189,-12,c)
);
}
);
width = 1020;
},
{
anchors = (
{
name = bottom;
pos = (412,0);
},
{
name = top;
pos = (492,646);
}
);
layerId = "2F2E705F-35A9-412F-BB04-95DF071C0E1E";
shapes = (
{
closed = 1;
nodes = (
(571,-5,o),
(578,-3,o),
(585,1,c),
(586,7,l),
(679,213,o),
(773,418,o),
(865,624,c),
(930,631,l),
(930,635,o),
(930,641,o),
(928,645,c),
(867,642,o),
(819,641,o),
(759,641,c),
(757,637,o),
(756,630,o),
(756,627,c),
(845,623,l),
(796,510,o),
(637,153,o),
(575,21,c),
(525,301,o),
(512,379,o),
(474,623,c),
(567,629,l),
(568,633,o),
(568,640,o),
(568,643,c),
(512,642,o),
(457,641,o),
(402,640,c),
(401,637,o),
(400,629,o),
(400,626,c),
(456,622,l),
(490,419,o),
(526,211,o),
(564,-6,c)
);
},
{
closed = 1;
nodes = (
(220,-5,o),
(227,-3,o),
(234,1,c),
(235,7,l),
(316,185,o),
(397,363,o),
(477,541,c),
(473,574,l),
(409,429,o),
(279,137,o),
(224,21,c),
(174,301,o),
(161,379,o),
(123,623,c),
(216,629,l),
(217,633,o),
(217,640,o),
(217,643,c),
(161,642,o),
(106,641,o),
(51,640,c),
(50,637,o),
(49,629,o),
(49,626,c),
(105,622,l),
(139,419,o),
(175,211,o),
(213,-6,c)
);
}
);
width = 880;
}
);
metricLeft = "=V";
metricRight = V;
unicode = 87;
},
{
color = 4;
glyphname = X;
kernLeft = X;
kernRight = X;
lastChange = "2022-12-17 14:53:09 +0000";
layers = (
{
anchors = (
{
name = bottom;
pos = (273,0);
},
{
name = top;
pos = (353,652);
}
);
background = {
shapes = (
{
closed = 1;
nodes = (
(282,350,l),
(130,151,o),
(67,77,o),
(41,51,c),
(-11,38,l),
(-8,-6,l),
(58,-3,o),
(161,0,o),
(223,0,c),
(227,9,o),
(229,25,o),
(230,38,c),
(135,57,l),
(202,156,o),
(266,248,o),
(320,319,c)
);
},
{
closed = 1;
nodes = (
(320,272,l),
(412,418,o),
(520,549,o),
(565,588,c),
(617,602,l),
(614,646,l),
(579,644,o),
(492,642,o),
(403,640,c),
(400,632,o),
(398,615,o),
(397,602,c),
(474,581,l),
(425,490,o),
(331,374,o),
(282,311,c)
);
},
{
closed = 0;
nodes = (
(239,215,l)
);
},
{
closed = 1;
nodes = (
(65,632,o),
(63,615,o),
(63,602,c),
(138,582,l),
(210,470,o),
(344,158,o),
(406,-3,c),
(459,-1,o),
(531,0,o),
(564,0,c),
(568,10,o),
(570,25,o),
(571,38,c),
(495,56,l),
(413,172,o),
(294,456,o),
(227,646,c),
(193,644,o),
(110,640,o),
(68,640,c)
);
}
);
};
hints = (
{
horizontal = 1;
place = (-9, 21);
target = up;
type = BottomGhost;
},
{
horizontal = 1;
place = (0, 21);
target = up;
type = BottomGhost;
},
{
horizontal = 1;
place = (649, -20);
target = down;
type = TopGhost;
},
{
horizontal = 1;
place = (640, -20);
target = down;
type = TopGhost;
}
);
layerId = UUID0;
shapes = (
{
closed = 1;
nodes = (
(459,-1,o),
(531,0,o),
(564,0,c),
(568,10,o),
(570,25,o),
(571,38,c),
(495,56,l),
(413,172,o),
(294,456,o),
(227,646,c),
(193,644,o),
(110,640,o),
(68,640,c),
(65,632,o),
(63,615,o),
(63,602,c),
(138,582,l),
(210,470,o),
(344,158,o),
(406,-3,c)
);
},
{
closed = 1;
nodes = (
(58,-3,o),
(161,0,o),
(223,0,c),
(227,9,o),
(229,25,o),
(230,38,c),
(135,57,l),
(202,156,o),
(266,248,o),
(320,319,c),
(282,350,l),
(130,151,o),
(67,77,o),
(41,51,c),
(-11,38,l),
(-10,23,o),
(-9,9,o),
(-8,-6,c)
);
},
{
closed = 1;
nodes = (
(412,418,o),
(520,549,o),
(565,588,c),
(617,602,l),
(616,617,o),
(615,631,o),
(614,646,c),
(579,644,o),
(492,642,o),
(403,640,c),
(400,632,o),
(398,615,o),
(397,602,c),
(474,581,l),
(425,490,o),
(331,374,o),
(282,311,c),
(320,272,l)
);
}
);
width = 602;
},
{
anchors = (
{
name = bottom;
pos = (311,0);
},
{
name = top;
pos = (392,660);
}
);
layerId = "B4F86D1D-EB2F-477C-956E-3DDEB412089F";
shapes = (
{
closed = 1;
nodes = (
(448,-3,o),
(543,-2,o),
(638,0,c),
(641,13,o),
(645,27,o),
(648,40,c),
(593,58,l),
(517,147,o),
(398,481,o),
(356,665,c),
(261,663,o),
(166,662,o),
(71,660,c),
(68,648,o),
(65,635,o),
(62,623,c),
(108,603,l),
(206,429,o),
(304,190,o),
(353,-5,c)
);
},
{
closed = 1;
nodes = (
(70,-6,o),
(153,-3,o),
(235,0,c),
(238,13,o),
(242,27,o),
(245,40,c),
(180,59,l),
(215,126,o),
(284,257,o),
(360,342,c),
(327,393,l),
(239,277,o),
(121,123,o),
(36,53,c),
(-12,40,l),
(-12,24,o),
(-12,7,o),
(-12,-9,c)
);
},
{
closed = 1;
nodes = (
(456,367,o),
(563,509,o),
(641,608,c),
(690,623,l),
(690,637,o),
(689,651,o),
(689,665,c),
(617,663,o),
(545,662,o),
(473,660,c),
(470,648,o),
(467,635,o),
(464,623,c),
(514,602,l),
(508,553,o),
(444,422,o),
(345,313,c),
(378,262,l)
);
}
);
width = 680;
},
{
anchors = (
{
name = bottom;
pos = (242,0);
},
{
name = top;
pos = (322,646);
}
);
layerId = "2F2E705F-35A9-412F-BB04-95DF071C0E1E";
shapes = (
{
closed = 1;
nodes = (
(475,0,o),
(501,0,o),
(532,0,c),
(533,3,o),
(533,7,o),
(533,12,c),
(459,19,l),
(418,92,o),
(193,560,o),
(156,642,c),
(126,640,o),
(100,640,o),
(63,640,c),
(61,636,o),
(61,630,o),
(61,626,c),
(143,623,l),
(202,506,o),
(388,116,o),
(444,-1,c)
);
},
{
closed = 1;
nodes = (
(5,-2,o),
(122,0,o),
(160,0,c),
(161,3,o),
(162,9,o),
(162,14,c),
(55,19,l),
(81,54,o),
(189,197,o),
(292,330,c),
(284,345,l),
(178,205,o),
(61,52,o),
(32,19,c),
(-39,9,l),
(-39,7,o),
(-40,-3,o),
(-39,-4,c)
);
},
{
closed = 1;
nodes = (
(394,458,o),
(487,577,o),
(526,624,c),
(589,631,l),
(589,635,o),
(589,641,o),
(587,645,c),
(544,643,o),
(457,641,o),
(418,641,c),
(416,637,o),
(415,630,o),
(415,627,c),
(504,624,l),
(478,589,o),
(389,473,o),
(290,351,c),
(299,336,l)
);
}
);
width = 546;
}
);
unicode = 88;
},
{
color = 4;
glyphname = Y;
kernLeft = Y;
kernRight = Y;
lastChange = "2022-12-17 14:58:47 +0000";
layers = (
{
anchors = (
{
name = bottom;
pos = (281,0);
},
{
name = top;
pos = (317,652);
},
{
name = topleft;
pos = (103,652);
}
);
background = {
shapes = (
{
closed = 1;
nodes = (
(256,316,l),
(239,214,o),
(219,113,o),
(205,54,c),
(123,39,l),
(121,-8,l),
(200,-2,o),
(290,1,o),
(384,1,c),
(395,39,l),
(301,67,l),
(309,155,o),
(320,248,o),
(335,339,c)
);
},
{
closed = 1;
nodes = (
(318,314,l),
(268,425,o),
(225,548,o),
(191,646,c),
(157,644,o),
(74,640,o),
(32,640,c),
(29,632,o),
(27,615,o),
(27,602,c),
(102,582,l),
(146,514,o),
(207,372,o),
(266,234,c)
);
},
{
closed = 1;
nodes = (
(277,197,l),
(349,329,o),
(526,552,o),
(550,582,c),
(606,602,l),
(606,649,l),
(567,646,o),
(480,642,o),
(388,640,c),
(384,630,o),
(381,615,o),
(379,602,c),
(462,578,l),
(424,479,o),
(325,349,o),
(253,263,c)
);
}
);
};
hints = (
{
place = (269, 88);
place = (269, 88);
type = Stem;
},
{
horizontal = 1;
place = (649, -20);
target = down;
type = TopGhost;
},
{
horizontal = 1;
place = (640, -20);
target = down;
type = TopGhost;
},
{
horizontal = 1;
place = (-9, 21);
target = up;
type = BottomGhost;
},
{
horizontal = 1;
place = (0, 21);
target = up;
type = BottomGhost;
}
);
layerId = UUID0;
shapes = (
{
closed = 1;
nodes = (
(202,-2,o),
(290,1,o),
(384,1,c),
(390,14,o),
(393,26,o),
(395,39,c),
(301,67,l),
(307,135,o),
(315,206,o),
(325,277,c),
(409,404,o),
(530,560,o),
(550,585,c),
(606,605,l),
(606,621,o),
(606,636,o),
(606,652,c),
(567,649,o),
(480,645,o),
(388,643,c),
(384,633,o),
(381,618,o),
(379,605,c),
(462,581,l),
(433,506,o),
(370,411,o),
(310,333,c),
(263,439,o),
(223,557,o),
(191,649,c),
(157,647,o),
(74,643,o),
(32,643,c),
(29,635,o),
(27,618,o),
(27,605,c),
(102,585,l),
(142,524,o),
(195,399,o),
(249,274,c),
(234,187,o),
(217,105,o),
(205,54,c),
(123,39,l),
(122,23,o),
(122,8,o),
(123,-8,c)
);
}
);
width = 536;
},
{
associatedMasterId = UUID0;
background = {
shapes = (
{
closed = 1;
nodes = (
(624,649,l),
(624,649,o),
(533,640,o),
(411,640,cs),
(411,640,o),
(405,625,o),
(402,602,c),
(485,578,l),
(451,516,o),
(372,391,o),
(332,340,c),
(290,407,o),
(234,541,o),
(221,590,c),
(310,611,l),
(310,649,l),
(310,649,o),
(190,640,o),
(68,640,cs),
(68,640,o),
(60,616,o),
(58,593,c),
(120,579,l),
(155,510,o),
(227,380,o),
(269,246,c),
(260,181,o),
(248,112,o),
(236,56,c),
(140,38,l),
(140,-9,l),
(140,-9,o),
(303,0,o),
(426,0,cs),
(426,0,o),
(432,15,o),
(434,38,c),
(331,70,l),
(337,148,o),
(344,201,o),
(352,276,c),
(402,359,o),
(551,561,o),
(568,582,c),
(624,602,l)
);
}
);
};
hints = (
{
place = (269, 88);
place = (269, 88);
type = Stem;
},
{
horizontal = 1;
place = (649, -20);
target = down;
type = TopGhost;
},
{
horizontal = 1;
place = (640, -20);
target = down;
type = TopGhost;
},
{
horizontal = 1;
place = (-9, 21);
target = up;
type = BottomGhost;
},
{
horizontal = 1;
place = (0, 21);
target = up;
type = BottomGhost;
}
);
layerId = "ADD66B52-7D61-4754-A82D-5B35C4D5BA4E";
name = "Oct 29 19, 19:44";
shapes = (
{
closed = 1;
nodes = (
(281,289,l),
(265,197,o),
(247,108,o),
(234,54,c),
(152,39,l),
(150,-8,l),
(229,-2,o),
(319,1,o),
(413,1,c),
(424,39,l),
(330,67,l),
(336,141,o),
(345,216,o),
(356,292,c)
);
},
{
closed = 1;
nodes = (
(231,480,o),
(257,368,o),
(279,266,c),
(284,260,o),
(292,254,o),
(297,249,c),
(318,250,o),
(335,254,o),
(346,258,c),
(349,274,o),
(351,296,o),
(348,312,c),
(330,409,o),
(323,483,o),
(282,596,cs),
(258,662,o),
(140,653,o),
(122,648,c),
(118,614,l),
(184,594,l),
(196,569,o),
(209,545,o),
(221,509,cs)
);
},
{
closed = 1;
nodes = (
(404,385,o),
(464,496,o),
(481,521,cs),
(503,553,o),
(523,583,o),
(541,604,c),
(601,608,l),
(603,633,l),
(587,643,o),
(505,676,o),
(464,618,cs),
(426,565,o),
(346,372,o),
(344,364,c),
(316,302,l),
(324,295,o),
(320,297,o),
(340,291,c),
(346,293,o),
(351,287,o),
(356,292,c)
);
}
);
width = 597;
},
{
anchors = (
{
name = bottom;
pos = (276,0);
},
{
name = top;
pos = (385,660);
},
{
name = topleft;
pos = (89,660);
}
);
layerId = "B4F86D1D-EB2F-477C-956E-3DDEB412089F";
shapes = (
{
closed = 1;
nodes = (
(216,-3,o),
(328,-2,o),
(439,0,c),
(445,13,o),
(448,25,o),
(450,38,c),
(394,67,l),
(398,124,o),
(402,171,o),
(409,226,c),
(456,320,o),
(563,529,o),
(608,606,c),
(645,618,l),
(647,634,o),
(647,649,o),
(646,665,c),
(575,663,o),
(504,662,o),
(434,660,c),
(429,647,o),
(426,635,o),
(425,622,c),
(495,604,l),
(487,536,o),
(453,447,o),
(389,322,c),
(369,414,o),
(353,565,o),
(338,665,c),
(249,663,o),
(160,662,o),
(70,660,c),
(67,645,o),
(65,631,o),
(65,616,c),
(94,603,l),
(108,569,o),
(189,352,o),
(207,253,c),
(198,190,o),
(187,122,o),
(176,59,c),
(106,38,l),
(104,24,o),
(103,9,o),
(105,-5,c)
);
}
);
width = 600;
},
{
anchors = (
{
name = bottom;
pos = (221,0);
},
{
name = top;
pos = (301,646);
},
{
name = topleft;
pos = (21,646);
}
);
background = {
shapes = (
{
closed = 1;
nodes = (
(254,274,l),
(329,390,o),
(406,508,o),
(483,624,c),
(546,631,l),
(546,635,o),
(546,641,o),
(544,645,c),
(501,643,o),
(414,641,o),
(375,641,c),
(373,637,o),
(372,630,o),
(372,627,c),
(462,624,l),
(391,511,o),
(325,408,o),
(250,296,c),
(207,405,o),
(159,533,o),
(121,642,c),
(91,640,o),
(65,640,o),
(29,640,c),
(26,636,o),
(25,630,o),
(25,626,c),
(107,623,l),
(153,507,o),
(198,391,o),
(241,275,c)
);
},
{
closed = 1;
nodes = (
(240,287,l),
(225,170,o),
(211,59,o),
(206,19,c),
(100,7,l),
(100,1,o),
(100,-4,o),
(101,-6,c),
(184,-1,o),
(246,2,o),
(333,0,c),
(334,4,o),
(336,9,o),
(336,13,c),
(225,21,l),
(230,72,o),
(243,176,o),
(257,287,c)
);
}
);
};
layerId = "2F2E705F-35A9-412F-BB04-95DF071C0E1E";
shapes = (
{
closed = 1;
nodes = (
(184,-1,o),
(246,2,o),
(333,0,c),
(334,4,o),
(336,9,o),
(336,13,c),
(225,21,l),
(230,70,o),
(242,170,o),
(256,277,c),
(330,392,o),
(407,509,o),
(483,624,c),
(546,631,l),
(546,635,o),
(546,641,o),
(544,645,c),
(501,643,o),
(414,641,o),
(375,641,c),
(373,637,o),
(372,630,o),
(372,627,c),
(462,624,l),
(391,511,o),
(325,408,o),
(250,296,c),
(207,405,o),
(159,533,o),
(121,642,c),
(91,640,o),
(65,640,o),
(29,640,c),
(26,636,o),
(25,630,o),
(25,626,c),
(107,623,l),
(152,509,o),
(197,394,o),
(239,280,c),
(224,166,o),
(211,58,o),
(206,19,c),
(100,7,l),
(100,1,o),
(100,-4,o),
(101,-6,c)
);
}
);
width = 482;
}
);
unicode = 89;
},
{
color = 4;
glyphname = Z;
kernLeft = Z;
kernRight = Z;
lastChange = "2022-12-16 16:12:24 +0000";
layers = (
{
anchors = (
{
name = bottom;
pos = (250,0);
},
{
name = center;
pos = (283,326);
},
{
name = top;
pos = (330,652);
}
);
background = {
shapes = (
{
closed = 1;
nodes = (
(89,9,l),
(137,6,o),
(298,0,o),
(481,0,c),
(511,191,l),
(502,194,o),
(477,198,o),
(466,198,c),
(423,79,l),
(396,76,o),
(275,65,o),
(98,65,c),
(121,43,l),
(255,210,o),
(422,431,o),
(552,623,c),
(546,626,l),
(492,652,l),
(482,642,o),
(469,629,o),
(460,620,c),
(388,620,o),
(191,643,o),
(108,644,c),
(96,448,l),
(101,446,o),
(131,440,o),
(140,440,c),
(181,560,l),
(260,563,o),
(364,565,o),
(450,565,c),
(440,592,l),
(303,402,o),
(183,238,o),
(3,23,c),
(31,-12,l)
);
}
);
};
hints = (
{
horizontal = 1;
place = (0, 65);
place = (0, 65);
type = Stem;
},
{
horizontal = 1;
place = (585, 55);
place = (585, 55);
type = Stem;
},
{
horizontal = 1;
place = (-12, 21);
target = up;
type = BottomGhost;
},
{
horizontal = 1;
place = (652, -20);
target = down;
type = TopGhost;
}
);
layerId = UUID0;
shapes = (
{
closed = 1;
nodes = (
(89,9,l),
(137,6,o),
(298,0,o),
(481,0,c),
(511,191,l),
(502,194,o),
(477,198,o),
(466,198,c),
(423,79,l),
(396,76,o),
(275,65,o),
(98,65,c),
(121,43,l),
(255,210,o),
(414,419,o),
(544,611,c),
(544,626,l),
(511,652,l),
(474,639,o),
(447,635,o),
(388,635,cs),
(323,635,o),
(183,644,o),
(108,644,c),
(96,448,l),
(101,446,o),
(131,440,o),
(140,440,c),
(181,560,l),
(260,563,o),
(364,565,o),
(450,565,c),
(440,592,l),
(303,402,o),
(183,238,o),
(3,23,c),
(31,-12,l)
);
}
);
width = 541;
},
{
anchors = (
{
name = bottom;
pos = (246,0);
},
{
name = center;
pos = (297,330);
},
{
name = top;
pos = (334,660);
}
);
background = {
shapes = (
{
closed = 1;
nodes = (
(222,9,l),
(270,6,o),
(361,0,o),
(504,0,c),
(544,216,l),
(535,219,o),
(470,223,o),
(459,223,c),
(396,79,l),
(369,76,o),
(328,65,o),
(231,65,c),
(254,43,l),
(355,224,o),
(490,452,o),
(598,640,c),
(573,662,l),
(385,672,l),
(378,662,o),
(369,649,o),
(363,640,c),
(291,640,o),
(174,663,o),
(91,664,c),
(76,440,l),
(81,438,o),
(151,432,o),
(160,432,c),
(214,580,l),
(253,583,o),
(307,595,o),
(363,595,c),
(353,622,l),
(246,432,o),
(146,228,o),
(-4,13,c),
(14,-12,l)
);
}
);
};
layerId = "B4F86D1D-EB2F-477C-956E-3DDEB412089F";
shapes = (
{
closed = 1;
nodes = (
(222,9,l),
(270,6,o),
(361,0,o),
(504,0,c),
(544,216,l),
(535,219,o),
(470,223,o),
(459,223,c),
(396,79,l),
(369,76,o),
(328,65,o),
(231,65,c),
(254,43,l),
(355,224,o),
(462,402,o),
(570,590,c),
(570,615,l),
(527,672,l),
(473,663,o),
(433,656,o),
(394,656,cs),
(313,656,o),
(196,666,o),
(91,666,c),
(76,440,l),
(81,438,o),
(151,432,o),
(160,432,c),
(214,580,l),
(253,583,o),
(307,595,o),
(363,595,c),
(353,622,l),
(246,432,o),
(146,228,o),
(-4,13,c),
(14,-12,l)
);
}
);
width = 567;
},
{
anchors = (
{
name = bottom;
pos = (251,0);
},
{
name = center;
pos = (291,323);
},
{
name = top;
pos = (331,646);
}
);
layerId = "2F2E705F-35A9-412F-BB04-95DF071C0E1E";
shapes = (
{
closed = 1;
nodes = (
(30,0,l),
(108,0,o),
(322,0,o),
(444,0,c),
(480,190,l),
(476,191,o),
(471,192,o),
(466,192,c),
(429,23,l),
(388,15,o),
(250,17,o),
(38,18,c),
(39,11,l),
(206,220,o),
(373,432,o),
(539,641,c),
(538,643,l),
(531,652,l),
(516,648,o),
(505,645,o),
(498,645,cs),
(479,645,o),
(194,646,o),
(130,647,c),
(106,453,l),
(109,452,o),
(114,451,o),
(118,451,c),
(148,628,l),
(191,628,o),
(355,628,o),
(514,628,c),
(516,639,l),
(433,535,o),
(182,212,o),
(4,-2,c),
(16,-10,l)
);
}
);
width = 520;
}
);
metricLeft = "=H/2";
metricRight = "=H/2";
unicode = 90;
},
{
color = 4;
glyphname = saltillo.case;
lastChange = "2022-12-16 16:16:29 +0000";
layers = (
{
layerId = UUID0;
shapes = (
{
closed = 1;
nodes = (
(101,351,l),
(136,460,o),
(160,595,o),
(168,646,c),
(155,658,l),
(132,658,o),
(95,656,o),
(78,653,c),
(77,628,o),
(75,577,o),
(75,524,c),
(56,354,l),
(62,347,l)
);
}
);
width = 126;
},
{
layerId = "B4F86D1D-EB2F-477C-956E-3DDEB412089F";
shapes = (
{
closed = 1;
nodes = (
(111,332,l),
(148,447,o),
(193,603,o),
(201,657,c),
(187,670,l),
(166,670,o),
(87,668,o),
(68,665,c),
(68,619,o),
(66,574,o),
(65,528,c),
(43,335,l),
(49,327,l)
);
}
);
width = 149;
},
{
background = {
shapes = (
{
closed = 1;
nodes = (
(74,391,l),
(87,469,o),
(108,602,o),
(113,640,c),
(106,646,l),
(97,646,o),
(93,645,o),
(86,643,c),
(85,624,o),
(82,567,o),
(79,529,c),
(62,394,l),
(66,388,l)
);
}
);
};
layerId = "2F2E705F-35A9-412F-BB04-95DF071C0E1E";
shapes = (
{
closed = 1;
nodes = (
(76,401,l),
(89,479,o),
(108,602,o),
(113,640,c),
(106,646,l),
(97,646,o),
(93,645,o),
(86,643,c),
(85,624,o),
(82,567,o),
(79,529,c),
(64,404,l),
(68,398,l)
);
}
);
width = 82;
}
);
metricLeft = saltillo;
metricRight = saltillo;
},
{
color = 4;
glyphname = a;
kernLeft = o;
kernRight = a;
lastChange = "2022-12-20 14:12:30 +0000";
layers = (
{
anchors = (
{
name = bottom;
pos = (216,0);
},
{
name = ogonek;
pos = (423,10);
},
{
name = top;
pos = (272,454);
}
);
background = {
shapes = (
{
closed = 1;
nodes = (
(102,-12,o),
(128,-6,o),
(146,0,c),
(211,64,o),
(259,127,o),
(311,228,c),
(317,226,l),
(269,21,l),
(282,6,o),
(326,-12,o),
(347,-12,c),
(448,101,l),
(427,122,l),
(350,53,l),
(352,97,o),
(359,146,o),
(381,249,cs),
(391,295,o),
(426,416,o),
(442,468,c),
(416,480,l),
(369,452,l),
(336,458,o),
(300,462,o),
(265,462,cs),
(243,462,o),
(170,416,o),
(123,374,c),
(81,329,o),
(32,235,o),
(32,121,cs),
(32,38,o),
(60,2,o),
(77,-12,c)
);
},
{
closed = 1;
nodes = (
(125,60,o),
(114,77,o),
(107,93,c),
(107,241,o),
(151,372,o),
(238,413,c),
(274,413,o),
(314,405,o),
(346,392,c),
(295,248,o),
(195,97,o),
(137,48,c)
);
}
);
};
hints = (
{
place = (18, 75);
place = (18, 75);
type = Stem;
},
{
horizontal = 1;
place = (-12, 21);
target = up;
type = BottomGhost;
},
{
horizontal = 1;
place = (480, -20);
target = down;
type = TopGhost;
},
{
horizontal = 1;
place = (462, -20);
target = down;
type = TopGhost;
}
);
layerId = UUID0;
shapes = (
{
closed = 1;
nodes = (
(102,-12,o),
(128,-6,o),
(146,0,c),
(211,64,o),
(259,127,o),
(311,228,c),
(317,226,l),
(269,21,l),
(282,6,o),
(326,-12,o),
(347,-12,c),
(448,101,l),
(427,122,l),
(350,53,l),
(355,171,o),
(403,341,o),
(442,468,c),
(416,480,l),
(369,452,l),
(336,458,o),
(300,462,o),
(265,462,cs),
(243,462,o),
(170,416,o),
(123,374,c),
(81,329,o),
(32,235,o),
(32,121,cs),
(32,38,o),
(60,2,o),
(77,-12,c)
);
},
{
closed = 1;
nodes = (
(125,60,o),
(114,77,o),
(107,93,c),
(107,97,o),
(107,100,o),
(107,104,cs),
(107,241,o),
(153,373,o),
(238,413,c),
(274,413,o),
(314,405,o),
(346,392,c),
(295,248,o),
(195,97,o),
(137,48,c)
);
}
);
width = 473;
},
{
anchors = (
{
name = bottom;
pos = (245,0);
},
{
name = ogonek;
pos = (562,0);
},
{
name = top;
pos = (302,470);
}
);
background = {
shapes = (
{
closed = 1;
nodes = (
(150,-13,o),
(184,-9,o),
(235,0,c),
(262,63,o),
(306,194,o),
(327,269,c),
(346,265,l),
(294,20,l),
(348,-12,o),
(435,-12,o),
(492,-12,c),
(554,49,l),
(537,72,l),
(489,49,l),
(493,155,o),
(524,370,o),
(545,484,c),
(504,499,l),
(377,470,l),
(318,476,o),
(161,482,o),
(128,482,c),
(41,461,o),
(-13,380,o),
(-33,293,cs),
(-50,219,o),
(-45,140,o),
(-15,88,cs),
(11,43,o),
(52,8,o),
(105,-13,c)
);
},
{
closed = 1;
nodes = (
(206,156,o),
(236,344,o),
(256,436,c),
(279,433,o),
(301,430,o),
(324,427,c),
(302,319,o),
(247,142,o),
(216,81,c),
(213,81,o),
(209,81,o),
(206,81,c)
);
}
);
};
layerId = "B4F86D1D-EB2F-477C-956E-3DDEB412089F";
shapes = (
{
closed = 1;
nodes = (
(168,-11,o),
(202,-7,o),
(235,0,c),
(262,63,o),
(306,194,o),
(327,269,c),
(346,265,l),
(294,20,l),
(348,-12,o),
(435,-12,o),
(492,-12,c),
(554,49,l),
(537,72,l),
(489,49,l),
(493,155,o),
(522,356,o),
(543,470,c),
(502,482,l),
(377,470,l),
(341,474,o),
(304,478,o),
(268,482,c),
(225,482,o),
(164,453,o),
(136,430,cs),
(71,377,o),
(18,293,o),
(18,181,cs),
(18,81,o),
(73,13,o),
(135,-12,c)
);
},
{
closed = 1;
nodes = (
(213,82,o),
(209,82,o),
(206,82,c),
(206,84,o),
(206,86,o),
(206,88,cs),
(206,161,o),
(237,346,o),
(256,436,c),
(279,433,o),
(302,428,o),
(322,417,c),
(300,309,o),
(247,143,o),
(216,82,c)
);
}
);
width = 581;
},
{
anchors = (
{
name = bottom;
pos = (198,0);
},
{
name = ogonek;
pos = (392,10);
},
{
name = top;
pos = (254,454);
}
);
background = {
shapes = (
{
closed = 1;
nodes = (
(395,456,l),
(384,435,l),
(380,431,l),
(347,275,o),
(310,92,o),
(299,4,c),
(304,-1,o),
(313,-6,o),
(319,-6,c),
(408,93,l),
(399,101,l),
(321,20,l),
(321,41,o),
(356,260,o),
(407,452,c)
);
},
{
closed = 1;
nodes = (
(378,419,l),
(307,228,o),
(185,63,o),
(147,14,c),
(128,14,o),
(97,14,o),
(87,17,c),
(-20,97,o),
(67,371,o),
(200,440,c),
(268,441,o),
(344,427,o),
(382,414,c),
(385,434,l),
(326,450,o),
(243,456,o),
(200,456,cs),
(190,456,o),
(130,414,o),
(92,358,cs),
(49,296,o),
(19,210,o),
(19,136,cs),
(19,70,o),
(40,14,o),
(95,-6,c),
(119,-6,o),
(139,-4,o),
(157,0,c),
(205,60,o),
(309,214,o),
(372,354,c)
);
}
);
};
layerId = "2F2E705F-35A9-412F-BB04-95DF071C0E1E";
shapes = (
{
closed = 1;
nodes = (
(132,-6,o),
(148,-4,o),
(166,0,c),
(210,56,o),
(303,199,o),
(362,339,c),
(364,338,l),
(299,4,l),
(304,-1,o),
(313,-6,o),
(319,-6,c),
(408,93,l),
(399,101,l),
(323,22,l),
(323,37,o),
(357,250,o),
(407,452,c),
(395,456,l),
(384,435,l),
(325,450,o),
(262,456,o),
(219,456,cs),
(207,456,o),
(149,415,o),
(111,358,cs),
(69,295,o),
(38,210,o),
(38,136,cs),
(38,70,o),
(61,14,o),
(108,-6,c)
);
},
{
closed = 1;
nodes = (
(135,12,o),
(111,12,o),
(101,15,c),
(70,40,o),
(57,82,o),
(57,132,cs),
(57,245,o),
(126,392,o),
(218,440,c),
(283,441,o),
(337,428,o),
(377,416,c),
(306,226,o),
(192,61,o),
(154,12,c)
);
}
);
width = 440;
},
{
anchors = (
{
name = bottom;
pos = (198,0);
},
{
name = ogonek;
pos = (392,10);
},
{
name = top;
pos = (254,454);
}
);
associatedMasterId = "2F2E705F-35A9-412F-BB04-95DF071C0E1E";
background = {
shapes = (
{
closed = 1;
nodes = (
(132,-6,o),
(148,-4,o),
(166,0,c),
(210,56,o),
(303,199,o),
(362,339,c),
(364,338,l),
(299,4,l),
(304,-1,o),
(313,-6,o),
(319,-6,c),
(408,93,l),
(399,101,l),
(323,22,l),
(323,37,o),
(357,250,o),
(407,452,c),
(395,456,l),
(384,435,l),
(325,450,o),
(262,456,o),
(219,456,cs),
(207,456,o),
(149,415,o),
(111,358,cs),
(69,295,o),
(38,210,o),
(38,136,cs),
(38,70,o),
(61,14,o),
(108,-6,c)
);
},
{
closed = 1;
nodes = (
(135,12,o),
(111,12,o),
(101,15,c),
(70,40,o),
(57,82,o),
(57,132,cs),
(57,245,o),
(126,392,o),
(218,440,c),
(283,441,o),
(337,428,o),
(377,416,c),
(306,226,o),
(192,61,o),
(154,12,c)
);
}
);
};
guides = (
{
angle = 90;
pos = (38,241);
},
{
angle = 90;
pos = (57,241);
}
);
layerId = "41D8FB28-2372-43B8-93DA-ED2D9800D45A";
name = "2 de dic. de 22, 8:30";
shapes = (
{
closed = 1;
nodes = (
(112,-6,o),
(148,-4,o),
(166,0,c),
(210,56,o),
(303,199,o),
(362,339,c),
(364,338,l),
(299,4,l),
(304,-1,o),
(313,-6,o),
(319,-6,c),
(408,93,l),
(399,101,l),
(323,22,l),
(323,37,o),
(357,250,o),
(407,452,c),
(395,456,l),
(384,435,l),
(325,450,o),
(262,456,o),
(219,456,cs),
(207,456,o),
(149,415,o),
(111,358,cs),
(69,295,o),
(38,210,o),
(38,136,cs),
(38,56,o),
(63,19,o),
(88,-6,c)
);
},
{
closed = 1;
nodes = (
(132,12,o),
(115,12,o),
(99,13,c),
(77,34,o),
(57,67,o),
(57,136,cs),
(57,251,o),
(127,392,o),
(218,440,c),
(283,441,o),
(337,428,o),
(377,416,c),
(306,226,o),
(192,61,o),
(154,12,c)
);
}
);
width = 440;
},
{
anchors = (
{
name = bottom;
pos = (216,0);
},
{
name = ogonek;
pos = (423,10);
},
{
name = top;
pos = (272,454);
}
);
associatedMasterId = UUID0;
background = {
shapes = (
{
closed = 1;
nodes = (
(102,-12,o),
(128,-6,o),
(146,0,c),
(211,64,o),
(259,127,o),
(311,228,c),
(317,226,l),
(269,21,l),
(282,6,o),
(326,-12,o),
(347,-12,c),
(448,101,l),
(427,122,l),
(350,53,l),
(352,97,o),
(359,146,o),
(381,249,cs),
(391,295,o),
(426,416,o),
(442,468,c),
(416,480,l),
(369,452,l),
(336,458,o),
(300,462,o),
(265,462,cs),
(243,462,o),
(170,416,o),
(123,374,c),
(81,329,o),
(32,235,o),
(32,121,cs),
(32,38,o),
(60,2,o),
(77,-12,c)
);
},
{
closed = 1;
nodes = (
(125,60,o),
(114,77,o),
(107,93,c),
(107,241,o),
(151,372,o),
(238,413,c),
(274,413,o),
(314,405,o),
(346,392,c),
(295,248,o),
(195,97,o),
(137,48,c)
);
}
);
};
hints = (
{
place = (18, 75);
place = (18, 75);
type = Stem;
},
{
horizontal = 1;
place = (-12, 21);
target = up;
type = BottomGhost;
},
{
horizontal = 1;
place = (480, -20);
target = down;
type = TopGhost;
},
{
horizontal = 1;
place = (462, -20);
target = down;
type = TopGhost;
}
);
layerId = "812EF7C9-282C-4F39-8725-0FE81323A905";
name = "2 de dic. de 22, 8:30";
shapes = (
{
closed = 1;
nodes = (
(102,-12,o),
(128,-6,o),
(146,0,c),
(211,64,o),
(259,127,o),
(311,228,c),
(317,226,l),
(269,21,l),
(282,6,o),
(326,-12,o),
(347,-12,c),
(448,101,l),
(427,122,l),
(350,53,l),
(355,171,o),
(403,341,o),
(442,468,c),
(416,480,l),
(369,452,l),
(336,458,o),
(300,462,o),
(265,462,cs),
(243,462,o),
(170,416,o),
(123,374,c),
(81,329,o),
(32,235,o),
(32,121,cs),
(32,38,o),
(60,2,o),
(77,-12,c)
);
},
{
closed = 1;
nodes = (
(118,56,o),
(108,61,o),
(97,68,c),
(97,91,o),
(99,122,o),
(104,156,cs),
(118,254,o),
(157,377,o),
(238,413,c),
(274,413,o),
(314,405,o),
(346,392,c),
(295,248,o),
(195,97,o),
(137,48,c)
);
}
);
width = 473;
},
{
anchors = (
{
name = bottom;
pos = (245,0);
},
{
name = ogonek;
pos = (562,0);
},
{
name = top;
pos = (302,470);
}
);
associatedMasterId = "B4F86D1D-EB2F-477C-956E-3DDEB412089F";
background = {
shapes = (
{
closed = 1;
nodes = (
(150,-13,o),
(184,-9,o),
(235,0,c),
(262,63,o),
(306,194,o),
(327,269,c),
(346,265,l),
(294,20,l),
(348,-12,o),
(435,-12,o),
(492,-12,c),
(554,49,l),
(537,72,l),
(489,49,l),
(493,155,o),
(524,370,o),
(545,484,c),
(504,499,l),
(377,470,l),
(318,476,o),
(161,482,o),
(128,482,c),
(41,461,o),
(-13,380,o),
(-33,293,cs),
(-50,219,o),
(-45,140,o),
(-15,88,cs),
(11,43,o),
(52,8,o),
(105,-13,c)
);
},
{
closed = 1;
nodes = (
(206,156,o),
(236,344,o),
(256,436,c),
(279,433,o),
(301,430,o),
(324,427,c),
(302,319,o),
(247,142,o),
(216,81,c),
(213,81,o),
(209,81,o),
(206,81,c)
);
}
);
};
layerId = "48684C94-E7A2-43B7-A415-D0E57A0D8B26";
name = "2 de dic. de 22, 13:01";
shapes = (
{
closed = 1;
nodes = (
(168,-11,o),
(202,-7,o),
(235,0,c),
(262,63,o),
(306,194,o),
(327,269,c),
(346,265,l),
(294,20,l),
(348,-12,o),
(435,-12,o),
(492,-12,c),
(554,49,l),
(537,72,l),
(489,49,l),
(493,155,o),
(522,356,o),
(543,470,c),
(502,482,l),
(377,470,l),
(341,474,o),
(304,478,o),
(268,482,c),
(225,482,o),
(164,453,o),
(136,430,cs),
(71,377,o),
(18,293,o),
(18,181,cs),
(18,81,o),
(73,13,o),
(135,-12,c)
);
},
{
closed = 1;
nodes = (
(213,82,o),
(209,82,o),
(206,82,c),
(206,84,o),
(206,86,o),
(206,88,cs),
(206,161,o),
(237,346,o),
(256,436,c),
(279,433,o),
(302,428,o),
(322,417,c),
(300,309,o),
(247,143,o),
(216,82,c)
);
}
);
width = 581;
}
);
metricLeft = o;
metricRight = n;
unicode = 97;
},
{
color = 4;
glyphname = ae;
kernLeft = o;
kernRight = e;
lastChange = "2022-12-19 18:58:08 +0000";
layers = (
{
anchors = (
{
name = top;
pos = (446,450);
}
);
layerId = UUID0;
shapes = (
{
closed = 1;
nodes = (
(102,-12,o),
(128,-6,o),
(146,0,c),
(211,64,o),
(259,127,o),
(311,228,c),
(317,226,l),
(469,435,l),
(345,456,o),
(309,462,o),
(265,462,cs),
(243,462,o),
(170,414,o),
(123,374,c),
(81,329,o),
(32,235,o),
(32,121,cs),
(32,38,o),
(60,2,o),
(77,-12,c)
);
},
{
closed = 1;
nodes = (
(125,60,o),
(114,77,o),
(107,93,c),
(107,96,o),
(107,99,o),
(107,102,cs),
(109,246,o),
(153,373,o),
(238,413,c),
(249,414,o),
(260,415,o),
(271,415,cs),
(297,415,o),
(324,411,o),
(346,402,c),
(295,258,o),
(195,97,o),
(137,48,c)
);
},
{
closed = 1;
nodes = (
(469,-12,o),
(493,-8,o),
(517,0,c),
(557,36,o),
(605,93,o),
(629,125,c),
(608,146,l),
(567,112,o),
(486,47,o),
(448,37,c),
(400,69,o),
(380,128,o),
(380,191,cs),
(380,262,o),
(407,340,o),
(452,388,c),
(479,396,o),
(507,400,o),
(534,400,c),
(554,370,o),
(554,339,o),
(554,309,c),
(481,266,o),
(423,233,o),
(350,210,c),
(352,182,l),
(441,200,o),
(514,227,o),
(603,265,c),
(632,321,l),
(632,438,o),
(591,462,o),
(548,462,cs),
(497,462,o),
(426,417,o),
(385,379,c),
(346,324,o),
(302,246,o),
(302,173,cs),
(302,68,o),
(356,-12,o),
(445,-12,c)
);
}
);
width = 663;
},
{
anchors = (
{
name = top;
pos = (466,470);
}
);
background = {
shapes = (
{
closed = 1;
nodes = (
(168,-11,o),
(202,-7,o),
(235,0,c),
(262,63,o),
(306,194,o),
(327,269,c),
(346,265,l),
(522,456,l),
(380,470,o),
(319,476,o),
(268,482,c),
(225,482,o),
(164,453,o),
(136,430,cs),
(71,377,o),
(18,293,o),
(18,181,cs),
(18,81,o),
(73,13,o),
(135,-12,c)
);
},
{
closed = 1;
nodes = (
(213,82,o),
(209,82,o),
(206,82,c),
(206,157,o),
(236,344,o),
(256,436,c),
(267,435,o),
(279,433,o),
(289,430,cs),
(301,427,o),
(312,423,o),
(322,417,c),
(300,309,o),
(247,143,o),
(216,82,c)
);
},
{
closed = 1;
nodes = (
(566,-12,o),
(583,-10,o),
(601,-8,c),
(647,9,o),
(722,80,o),
(756,111,c),
(727,149,l),
(670,117,o),
(579,71,o),
(538,71,c),
(520,90,o),
(511,119,o),
(509,154,cs),
(504,236,o),
(536,360,o),
(567,432,c),
(571,434,o),
(581,435,o),
(585,435,c),
(597,411,o),
(603,383,o),
(595,284,c),
(558,256,o),
(522,241,o),
(485,231,c),
(482,191,l),
(556,195,o),
(660,212,o),
(745,250,c),
(767,277,l),
(760,420,o),
(718,482,o),
(624,482,cs),
(554,482,o),
(479,460,o),
(406,423,c),
(347,365,o),
(315,265,o),
(318,196,cs),
(324,64,o),
(420,-12,o),
(550,-12,cs)
);
}
);
};
layerId = "B4F86D1D-EB2F-477C-956E-3DDEB412089F";
shapes = (
{
closed = 1;
nodes = (
(168,-11,o),
(202,-7,o),
(235,0,c),
(262,63,o),
(306,194,o),
(327,269,c),
(346,265,l),
(522,456,l),
(380,470,o),
(319,476,o),
(268,482,c),
(225,482,o),
(164,453,o),
(136,430,cs),
(71,377,o),
(18,293,o),
(18,181,cs),
(18,81,o),
(73,13,o),
(135,-12,c)
);
},
{
closed = 1;
nodes = (
(213,82,o),
(209,82,o),
(206,82,c),
(206,84,o),
(206,87,o),
(206,90,cs),
(208,169,o),
(237,347,o),
(256,436,c),
(267,435,o),
(279,433,o),
(289,430,cs),
(301,427,o),
(312,423,o),
(322,417,c),
(300,309,o),
(247,143,o),
(216,82,c)
);
},
{
closed = 1;
nodes = (
(566,-12,o),
(583,-10,o),
(601,-8,c),
(647,9,o),
(722,80,o),
(756,111,c),
(727,149,l),
(670,117,o),
(579,71,o),
(538,71,c),
(520,90,o),
(511,119,o),
(509,154,cs),
(504,236,o),
(536,360,o),
(567,432,c),
(571,434,o),
(581,435,o),
(585,435,c),
(597,411,o),
(603,383,o),
(595,284,c),
(558,256,o),
(522,241,o),
(485,231,c),
(482,191,l),
(556,195,o),
(660,212,o),
(745,250,c),
(767,277,l),
(760,420,o),
(718,482,o),
(624,482,cs),
(554,482,o),
(479,460,o),
(406,423,c),
(347,365,o),
(315,265,o),
(318,196,cs),
(324,64,o),
(420,-12,o),
(550,-12,cs)
);
}
);
width = 773;
},
{
anchors = (
{
name = top;
pos = (446,450);
}
);
background = {
anchors = (
{
name = top;
pos = (446,450);
}
);
shapes = (
{
closed = 1;
nodes = (
(138,-6,o),
(158,-4,o),
(176,0,c),
(210,43,o),
(272,132,o),
(327,229,c),
(409,397,l),
(420,429,l),
(354,447,o),
(295,456,o),
(219,456,cs),
(207,456,o),
(149,415,o),
(111,358,cs),
(69,295,o),
(38,210,o),
(38,136,cs),
(38,70,o),
(59,14,o),
(114,-6,c)
);
},
{
closed = 1;
nodes = (
(147,14,o),
(116,14,o),
(106,17,c),
(72,43,o),
(57,89,o),
(58,141,cs),
(60,252,o),
(129,393,o),
(219,440,c),
(221,440,o),
(223,440,o),
(225,440,cs),
(288,440,o),
(357,428,o),
(396,416,c),
(325,226,o),
(204,63,o),
(166,14,c)
);
},
{
closed = 1;
nodes = (
(473,-6,o),
(496,1,o),
(521,12,cs),
(548,24,o),
(579,42,o),
(603,63,c),
(592,75,l),
(552,42,o),
(488,14,o),
(462,12,c),
(377,14,o),
(331,70,o),
(330,159,cs),
(329,235,o),
(366,327,o),
(421,391,c),
(453,415,o),
(518,440,o),
(551,439,c),
(623,429,o),
(628,354,o),
(628,276,c),
(555,248,o),
(442,219,o),
(332,205,c),
(330,190,l),
(478,209,o),
(584,237,o),
(631,257,c),
(647,280,l),
(647,401,o),
(619,456,o),
(544,455,c),
(518,456,o),
(443,429,o),
(410,403,c),
(355,340,o),
(312,239,o),
(312,151,cs),
(312,51,o),
(375,-6,o),
(461,-6,cs)
);
}
);
};
layerId = "2F2E705F-35A9-412F-BB04-95DF071C0E1E";
shapes = (
{
closed = 1;
nodes = (
(138,-6,o),
(158,-4,o),
(176,0,c),
(210,43,o),
(273,141,o),
(328,238,c),
(409,397,l),
(420,417,l),
(359,435,o),
(295,456,o),
(219,456,cs),
(207,456,o),
(149,415,o),
(111,358,cs),
(69,295,o),
(38,210,o),
(38,136,cs),
(38,70,o),
(59,14,o),
(114,-6,c)
);
},
{
closed = 1;
nodes = (
(147,14,o),
(116,14,o),
(106,17,c),
(72,43,o),
(57,89,o),
(58,141,cs),
(60,252,o),
(129,393,o),
(219,440,c),
(221,440,o),
(223,440,o),
(225,440,cs),
(288,440,o),
(357,418,o),
(396,406,c),
(317,230,o),
(204,68,o),
(166,14,c)
);
},
{
closed = 1;
nodes = (
(473,-6,o),
(496,1,o),
(521,12,cs),
(548,24,o),
(579,42,o),
(603,63,c),
(592,75,l),
(552,42,o),
(488,14,o),
(462,12,c),
(377,14,o),
(331,70,o),
(330,159,cs),
(329,235,o),
(371,335,o),
(421,398,c),
(453,422,o),
(518,440,o),
(551,439,c),
(623,429,o),
(628,354,o),
(628,276,c),
(555,248,o),
(442,219,o),
(332,205,c),
(330,190,l),
(478,209,o),
(584,237,o),
(631,257,c),
(647,280,l),
(647,401,o),
(619,456,o),
(544,455,c),
(518,456,o),
(447,439,o),
(414,413,c),
(359,350,o),
(312,239,o),
(312,151,cs),
(312,51,o),
(375,-6,o),
(461,-6,cs)
);
}
);
width = 667;
},
{
anchors = (
{
name = top;
pos = (446,450);
}
);
associatedMasterId = "2F2E705F-35A9-412F-BB04-95DF071C0E1E";
background = {
anchors = (
{
name = top;
pos = (446,450);
}
);
shapes = (
{
closed = 1;
nodes = (
(112,-6,o),
(148,-4,o),
(166,0,c),
(210,56,o),
(303,198,o),
(362,338,c),
(363,338,l),
(299,4,l),
(304,-1,o),
(313,-6,o),
(319,-6,c),
(408,93,l),
(399,101,l),
(323,22,l),
(323,37,o),
(357,250,o),
(407,452,c),
(395,456,l),
(384,435,l),
(325,450,o),
(262,456,o),
(219,456,cs),
(207,456,o),
(149,415,o),
(111,358,cs),
(69,295,o),
(38,210,o),
(38,136,cs),
(38,56,o),
(63,19,o),
(88,-6,c)
);
},
{
closed = 1;
nodes = (
(132,12,o),
(115,12,o),
(99,13,c),
(77,34,o),
(57,67,o),
(57,136,cs),
(57,251,o),
(127,392,o),
(218,440,c),
(283,441,o),
(337,428,o),
(377,416,c),
(306,226,o),
(192,61,o),
(154,12,c)
);
}
);
};
layerId = "C2170FBA-91A3-4859-9C74-988AA61E4D98";
name = "2 de dic. de 22, 8:38";
shapes = (
{
closed = 1;
nodes = (
(112,-6,o),
(158,-4,o),
(176,0,c),
(210,43,o),
(273,141,o),
(328,238,c),
(409,397,l),
(420,417,l),
(359,435,o),
(295,456,o),
(219,456,cs),
(207,456,o),
(149,415,o),
(111,358,cs),
(69,295,o),
(38,210,o),
(38,136,cs),
(38,56,o),
(63,19,o),
(88,-6,c)
);
},
{
closed = 1;
nodes = (
(147,12,o),
(115,12,o),
(99,13,c),
(77,34,o),
(57,67,o),
(57,136,cs),
(57,247,o),
(129,393,o),
(219,440,c),
(221,440,o),
(223,440,o),
(225,440,cs),
(288,440,o),
(357,418,o),
(396,406,c),
(317,230,o),
(204,66,o),
(166,12,c)
);
},
{
closed = 1;
nodes = (
(473,-6,o),
(496,1,o),
(521,12,cs),
(548,24,o),
(579,42,o),
(603,63,c),
(592,75,l),
(552,42,o),
(488,14,o),
(462,12,c),
(377,14,o),
(331,70,o),
(330,159,cs),
(329,235,o),
(371,335,o),
(421,398,c),
(453,422,o),
(518,440,o),
(551,439,c),
(623,429,o),
(628,354,o),
(628,276,c),
(555,248,o),
(442,219,o),
(332,205,c),
(330,190,l),
(478,209,o),
(584,237,o),
(631,257,c),
(647,280,l),
(647,401,o),
(619,456,o),
(544,455,c),
(518,456,o),
(447,439,o),
(414,413,c),
(359,350,o),
(312,239,o),
(312,151,cs),
(312,51,o),
(375,-6,o),
(461,-6,cs)
);
}
);
width = 667;
},
{
anchors = (
{
name = top;
pos = (446,450);
}
);
associatedMasterId = UUID0;
background = {
shapes = (
{
closed = 1;
nodes = (
(102,-12,o),
(128,-6,o),
(146,0,c),
(211,64,o),
(259,127,o),
(311,228,c),
(317,226,l),
(469,435,l),
(345,456,o),
(309,462,o),
(265,462,cs),
(243,462,o),
(170,414,o),
(123,374,c),
(81,329,o),
(32,235,o),
(32,121,cs),
(32,38,o),
(60,2,o),
(77,-12,c)
);
},
{
closed = 1;
nodes = (
(125,60,o),
(114,77,o),
(107,93,c),
(107,241,o),
(151,372,o),
(238,413,c),
(249,414,o),
(260,415,o),
(271,415,cs),
(297,415,o),
(324,411,o),
(346,402,c),
(295,258,o),
(195,97,o),
(137,48,c)
);
},
{
closed = 1;
nodes = (
(469,-12,o),
(493,-8,o),
(517,0,c),
(557,36,o),
(605,93,o),
(629,125,c),
(608,146,l),
(567,112,o),
(486,47,o),
(448,37,c),
(400,69,o),
(380,128,o),
(380,191,cs),
(380,262,o),
(407,340,o),
(452,388,c),
(479,396,o),
(507,400,o),
(534,400,c),
(554,370,o),
(554,339,o),
(554,309,c),
(481,266,o),
(423,233,o),
(350,210,c),
(352,182,l),
(441,200,o),
(514,227,o),
(603,265,c),
(632,321,l),
(632,438,o),
(591,462,o),
(548,462,cs),
(497,462,o),
(426,417,o),
(385,379,c),
(346,324,o),
(302,246,o),
(302,173,cs),
(302,68,o),
(356,-12,o),
(445,-12,c)
);
}
);
};
layerId = "5DC5FA3D-02B8-4704-A9CE-7AD370CED4A2";
name = "2 de dic. de 22, 8:38";
shapes = (
{
closed = 1;
nodes = (
(102,-12,o),
(128,-6,o),
(146,0,c),
(211,64,o),
(259,127,o),
(311,228,c),
(317,226,l),
(469,435,l),
(345,456,o),
(309,462,o),
(265,462,cs),
(243,462,o),
(170,414,o),
(123,374,c),
(81,329,o),
(32,235,o),
(32,121,cs),
(32,38,o),
(60,2,o),
(77,-12,c)
);
},
{
closed = 1;
nodes = (
(118,56,o),
(108,61,o),
(97,68,c),
(97,91,o),
(99,122,o),
(104,156,cs),
(118,254,o),
(157,377,o),
(238,413,c),
(249,414,o),
(260,415,o),
(271,415,cs),
(297,415,o),
(324,411,o),
(346,402,c),
(295,258,o),
(195,97,o),
(137,48,c)
);
},
{
closed = 1;
nodes = (
(469,-12,o),
(493,-8,o),
(517,0,c),
(557,36,o),
(605,93,o),
(629,125,c),
(608,146,l),
(567,112,o),
(486,47,o),
(448,37,c),
(400,69,o),
(380,128,o),
(380,191,cs),
(380,262,o),
(407,340,o),
(452,388,c),
(479,396,o),
(507,400,o),
(534,400,c),
(554,370,o),
(554,339,o),
(554,309,c),
(481,266,o),
(423,233,o),
(350,210,c),
(352,182,l),
(441,200,o),
(514,227,o),
(603,265,c),
(632,321,l),
(632,438,o),
(591,462,o),
(548,462,cs),
(497,462,o),
(426,417,o),
(385,379,c),
(346,324,o),
(302,246,o),
(302,173,cs),
(302,68,o),
(356,-12,o),
(445,-12,c)
);
}
);
width = 663;
},
{
anchors = (
{
name = top;
pos = (466,470);
}
);
associatedMasterId = "B4F86D1D-EB2F-477C-956E-3DDEB412089F";
background = {
shapes = (
{
closed = 1;
nodes = (
(168,-11,o),
(202,-7,o),
(235,0,c),
(262,63,o),
(306,194,o),
(327,269,c),
(346,265,l),
(522,456,l),
(380,470,o),
(319,476,o),
(268,482,c),
(225,482,o),
(164,453,o),
(136,430,cs),
(71,377,o),
(18,293,o),
(18,181,cs),
(18,81,o),
(73,13,o),
(135,-12,c)
);
},
{
closed = 1;
nodes = (
(213,82,o),
(209,82,o),
(206,82,c),
(206,157,o),
(236,344,o),
(256,436,c),
(267,435,o),
(279,433,o),
(289,430,cs),
(301,427,o),
(312,423,o),
(322,417,c),
(300,309,o),
(247,143,o),
(216,82,c)
);
},
{
closed = 1;
nodes = (
(566,-12,o),
(583,-10,o),
(601,-8,c),
(647,9,o),
(722,80,o),
(756,111,c),
(727,149,l),
(670,117,o),
(579,71,o),
(538,71,c),
(520,90,o),
(511,119,o),
(509,154,cs),
(504,236,o),
(536,360,o),
(567,432,c),
(571,434,o),
(581,435,o),
(585,435,c),
(597,411,o),
(603,383,o),
(595,284,c),
(558,256,o),
(522,241,o),
(485,231,c),
(482,191,l),
(556,195,o),
(660,212,o),
(745,250,c),
(767,277,l),
(760,420,o),
(718,482,o),
(624,482,cs),
(554,482,o),
(479,460,o),
(406,423,c),
(347,365,o),
(315,265,o),
(318,196,cs),
(324,64,o),
(420,-12,o),
(550,-12,cs)
);
}
);
};
layerId = "FA44E1FE-E56F-49E7-8909-065D41F45178";
name = "2 de dic. de 22, 13:06";
shapes = (
{
closed = 1;
nodes = (
(168,-11,o),
(202,-7,o),
(235,0,c),
(262,63,o),
(306,194,o),
(327,269,c),
(346,265,l),
(522,456,l),
(380,470,o),
(319,476,o),
(268,482,c),
(225,482,o),
(164,453,o),
(136,430,cs),
(71,377,o),
(18,293,o),
(18,181,cs),
(18,81,o),
(73,13,o),
(135,-12,c)
);
},
{
closed = 1;
nodes = (
(213,82,o),
(209,82,o),
(206,82,c),
(206,84,o),
(206,87,o),
(206,90,cs),
(208,169,o),
(237,347,o),
(256,436,c),
(267,435,o),
(279,433,o),
(289,430,cs),
(301,427,o),
(312,423,o),
(322,417,c),
(300,309,o),
(247,143,o),
(216,82,c)
);
},
{
closed = 1;
nodes = (
(566,-12,o),
(583,-10,o),
(601,-8,c),
(647,9,o),
(722,80,o),
(756,111,c),
(727,149,l),
(670,117,o),
(579,71,o),
(538,71,c),
(520,90,o),
(511,119,o),
(509,154,cs),
(504,236,o),
(536,360,o),
(567,432,c),
(571,434,o),
(581,435,o),
(585,435,c),
(597,411,o),
(603,383,o),
(595,284,c),
(558,256,o),
(522,241,o),
(485,231,c),
(482,191,l),
(556,195,o),
(660,212,o),
(745,250,c),
(767,277,l),
(760,420,o),
(718,482,o),
(624,482,cs),
(554,482,o),
(479,460,o),
(406,423,c),
(347,365,o),
(315,265,o),
(318,196,cs),
(324,64,o),
(420,-12,o),
(550,-12,cs)
);
}
);
width = 773;
}
);
metricLeft = a;
metricRight = e;
unicode = 230;
},
